<svg width="32" height="40" viewBox="0 0 32 40" fill="none" xmlns="http://www.w3.org/2000/svg">
<path d="M0 38.7732V25H18L1.66436 39.5206C1.01946 40.0938 0 39.636 0 38.7732Z" fill="currentColor"/>
<path d="M0 16C0 7.16344 7.16344 0 16 0V0C24.8366 0 32 7.16344 32 16V16C32 24.8366 24.8366 32 16 32H0V16Z" fill="currentColor"/>
<path d="M16.0929 14.8449L23.0928 17.6446C23.1878 17.6826 23.25 17.7745 23.25 17.8768V22C23.25 22.1381 23.1381 22.25 23 22.25H19.9139H9C8.86193 22.25 8.75 22.1381 8.75 22V17.877C8.75 17.7748 8.81224 17.6829 8.90715 17.6449L15.9072 14.8449C15.9668 14.8211 16.0333 14.8211 16.0929 14.8449Z" fill="white" stroke="white" stroke-width="1.5" stroke-miterlimit="10" stroke-linecap="round"/>
<path d="M16 8L16 15" stroke="white" stroke-width="1.5"/>
<path d="M16 8.75H18.8879C18.9464 8.75 19.0031 8.7705 19.048 8.80794L20.848 10.3079C20.9679 10.4079 20.9679 10.5921 20.848 10.6921L19.048 12.1921C19.0031 12.2295 18.9464 12.25 18.8879 12.25H16V8.75Z" fill="white" stroke="white" stroke-width="1.5" stroke-linejoin="round"/>
</svg>

