<svg width="25" height="24" viewBox="0 0 25 24" fill="none" xmlns="http://www.w3.org/2000/svg">
<rect x="3.40625" width="7.77778" height="22" rx="0.5" fill="#F1F3F5"/>
<path d="M3.40625 0.5C3.40625 0.223858 3.63011 0 3.90625 0H5.07292V3H3.90625C3.63011 3 3.40625 2.77614 3.40625 2.5V0.5Z" fill="#DEE2E6"/>
<path d="M3.40625 1.5C3.40625 1.22386 3.63011 1 3.90625 1H11.184V3H3.90625C3.63011 3 3.40625 2.77614 3.40625 2.5V1.5Z" fill="#DEE2E6"/>
<rect x="2.29688" y="2" width="10" height="22" rx="0.5" fill="#F1F3F5"/>
<path d="M2.29688 2.5C2.29688 2.22386 2.52073 2 2.79688 2H5.07465V24H2.79687C2.52073 24 2.29688 23.7761 2.29688 23.5V2.5Z" fill="#DEE2E6"/>
<path d="M7.85156 20.5C7.85156 20.2239 8.07542 20 8.35156 20H9.57378C9.84993 20 10.0738 20.2239 10.0738 20.5V24H7.85156V20.5Z" fill="#BAC8FF"/>
<rect x="6.29688" y="16" width="2" height="2" rx="0.5" fill="#BAC8FF"/>
<rect x="8.82812" y="19" width="0.277778" height="5" fill="#F1F3F5"/>
<rect x="6.29688" y="13" width="2" height="2" rx="0.5" fill="#BAC8FF"/>
<rect x="6.29688" y="10" width="2" height="2" rx="0.5" fill="#BAC8FF"/>
<rect x="6.29688" y="7" width="2" height="2" rx="0.5" fill="#BAC8FF"/>
<rect x="6.29688" y="4" width="2" height="2" rx="0.5" fill="#BAC8FF"/>
<rect x="9.29688" y="16" width="2" height="2" rx="0.5" fill="#BAC8FF"/>
<rect x="9.29688" y="13" width="2" height="2" rx="0.5" fill="#BAC8FF"/>
<rect x="9.29688" y="10" width="2" height="2" rx="0.5" fill="#BAC8FF"/>
<rect x="9.29688" y="7" width="2" height="2" rx="0.5" fill="#BAC8FF"/>
<rect x="9.29688" y="4" width="2" height="2" rx="0.5" fill="#BAC8FF"/>
<rect x="13.2969" y="6" width="8" height="18" rx="0.5" fill="#F1F3F5"/>
<path d="M13.4062 6.5C13.4062 6.22386 13.6301 6 13.9062 6H15.0729V9H13.9062C13.6301 9 13.4062 8.77614 13.4062 8.5V6.5Z" fill="#DEE2E6"/>
<path d="M13.4062 7.5C13.4062 7.22386 13.6301 7 13.9062 7H21.184V9H13.9063C13.6301 9 13.4062 8.77614 13.4062 8.5V7.5Z" fill="#DEE2E6"/>
<rect x="12.2969" y="8" width="10" height="16" rx="0.5" fill="#F1F3F5"/>
<path d="M12.2969 8.5C12.2969 8.22386 12.5207 8 12.7969 8H15.2969V24H12.7969C12.5207 24 12.2969 23.7761 12.2969 23.5V8.5Z" fill="#DEE2E6"/>
<path d="M17.8516 20.5C17.8516 20.2239 18.0754 20 18.3516 20H19.5738C19.8499 20 20.0738 20.2239 20.0738 20.5V24H17.8516V20.5Z" fill="#BAC8FF"/>
<rect x="16.2969" y="16" width="2" height="2" rx="0.5" fill="#BAC8FF"/>
<rect x="18.8281" y="19" width="0.277778" height="5" fill="#F1F3F5"/>
<rect x="16.2969" y="13" width="2" height="2" rx="0.5" fill="#BAC8FF"/>
<rect x="16.2969" y="10" width="2" height="2" rx="0.5" fill="#BAC8FF"/>
<rect x="19.2969" y="16" width="2" height="2" rx="0.5" fill="#BAC8FF"/>
<rect x="19.2969" y="13" width="2" height="2" rx="0.5" fill="#BAC8FF"/>
<rect x="19.2969" y="10" width="2" height="2" rx="0.5" fill="#BAC8FF"/>
</svg>
