<svg width="16" height="16" viewBox="0 0 16 16" fill="none" xmlns="http://www.w3.org/2000/svg">
<path fill-rule="evenodd" clip-rule="evenodd" d="M10.9135 1.27126C10.9135 3.05311 9.66511 4.07458 8.32338 4.49599V4.41354C8.28784 4.19367 8.26562 3.99212 8.26562 3.8318C8.26562 2.12783 9.49184 1.04681 10.8558 0.666626L10.8735 0.749076C10.8958 0.950622 10.9135 1.12926 10.9135 1.27126ZM13.9778 11.0233V11.124V11.1332C13.9778 11.1606 13.9825 11.1879 13.9875 11.2175C13.9935 11.2523 14 11.2902 14 11.3347C14 12.915 12.3384 15.2786 10.5391 15.2786C10.1731 15.2786 9.803 15.1448 9.4235 15.0076C9.02429 14.8633 8.61473 14.7152 8.18882 14.7152C7.6721 14.7152 7.20263 14.8979 6.77398 15.0646C6.41391 15.2047 6.08264 15.3336 5.77638 15.3336C4.84783 15.3336 4.01703 14.5091 3.34617 13.2494C2.41318 11.5271 2 9.54374 2 8.26118C2 5.83806 4.0348 3.97376 6.08737 3.97376C6.59317 3.97376 6.93801 4.17671 7.2756 4.3754C7.59927 4.56589 7.91628 4.75246 8.36209 4.75246C8.98122 4.75246 9.46815 4.51324 9.91598 4.29323C10.2972 4.10592 10.6502 3.93254 11.0322 3.93254C12.2184 3.93254 12.987 4.65627 13.5602 5.37542L13.5202 5.39374C12.6538 6.0167 12.1785 6.97862 12.1785 8.07796C12.1785 9.44297 12.8138 10.382 13.9778 11.0233Z" fill="#CED4DA"/>
</svg>
