<svg width="70" height="21" viewBox="0 0 70 21" fill="none" xmlns="http://www.w3.org/2000/svg">
<path d="M1.82812 16.0044H0L4.0625 4.69189H6.04688L10.125 16.0044H8.29688L7.26562 13.02H2.85938L1.82812 16.0044ZM3.35156 11.5825H6.76562L5.09375 6.75439H5.01562L3.35156 11.5825Z" fill="white"/>
<path d="M11.1719 19.1919V7.52002H12.7969V8.89502H12.9375C13.2344 8.36377 13.8047 7.41064 15.375 7.41064C17.4297 7.41064 18.9375 9.02002 18.9375 11.7856C18.9375 14.52 17.4453 16.1685 15.3906 16.1763C13.8516 16.1685 13.2422 15.231 12.9375 14.6763H12.8438V19.1919H11.1719ZM12.8125 11.7544C12.8125 13.5356 13.5938 14.7466 15.0156 14.7544C16.4844 14.7466 17.25 13.4575 17.25 11.7544C17.25 10.0825 16.5078 8.82471 15.0156 8.83252C13.5781 8.82471 12.8125 9.98877 12.8125 11.7544Z" fill="white"/>
<path d="M20.3438 19.1919V7.52002H21.9688V8.89502H22.1094C22.4062 8.36377 22.9766 7.41064 24.5469 7.41064C26.6016 7.41064 28.1094 9.02002 28.1094 11.7856C28.1094 14.52 26.6172 16.1685 24.5625 16.1763C23.0234 16.1685 22.4141 15.231 22.1094 14.6763H22.0156V19.1919H20.3438ZM21.9844 11.7544C21.9844 13.5356 22.7656 14.7466 24.1875 14.7544C25.6562 14.7466 26.4219 13.4575 26.4219 11.7544C26.4219 10.0825 25.6797 8.82471 24.1875 8.83252C22.75 8.82471 21.9844 9.98877 21.9844 11.7544Z" fill="white"/>
<path d="M39.4688 7.67627C39.3594 6.62158 38.4375 6.02002 37.1406 6.02002C35.7578 6.02002 34.8828 6.73096 34.875 7.69189C34.875 8.76221 36.0391 9.18408 36.9375 9.39502L38.0312 9.69189C39.4766 10.0435 41.2891 10.8325 41.2969 12.8794C41.2891 14.7935 39.7656 16.1919 37.0938 16.1919C34.5625 16.1919 32.9688 14.9263 32.8594 12.8638H34.5781C34.6797 14.0981 35.7734 14.6841 37.0938 14.6919C38.5391 14.6841 39.5859 13.9575 39.5938 12.8481C39.5859 11.8638 38.6484 11.4653 37.4531 11.145L36.1094 10.7856C34.2891 10.2856 33.1641 9.36377 33.1562 7.78564C33.1641 5.83252 34.8984 4.53564 37.1875 4.53564C39.4844 4.53564 41.0859 5.84814 41.1406 7.67627H39.4688Z" fill="white"/>
<path d="M46.7188 7.52002V8.84814H44.9844V13.5044C44.9922 14.4653 45.4609 14.6372 46 14.645C46.2422 14.645 46.6094 14.6216 46.8438 14.5981V16.0513C46.6172 16.0825 46.2578 16.1138 45.7969 16.1138C44.4922 16.1138 43.3125 15.395 43.3281 13.8481V8.84814H42.0781V7.52002H43.3281V5.48877H44.9844V7.52002H46.7188Z" fill="white"/>
<path d="M51.5938 16.1763C49.1875 16.1763 47.6172 14.4263 47.625 11.8013C47.6172 9.16064 49.1875 7.41064 51.5938 7.41064C53.9844 7.41064 55.5469 9.16064 55.5469 11.8013C55.5469 14.4263 53.9844 16.1763 51.5938 16.1763ZM49.2969 11.8013C49.2969 13.4185 50.0391 14.7856 51.5938 14.7856C53.125 14.7856 53.8594 13.4185 53.8594 11.8013C53.8594 10.1763 53.125 8.79346 51.5938 8.78564C50.0391 8.79346 49.2969 10.1763 49.2969 11.8013Z" fill="white"/>
<path d="M56.9375 16.0044V7.52002H58.5469V8.86377H58.6406C58.9531 7.95752 59.8047 7.38721 60.7969 7.39502C61 7.38721 61.3281 7.41064 61.5 7.42627V9.02002C61.3594 8.98877 60.9688 8.91846 60.625 8.92627C59.4688 8.91846 58.6094 9.72314 58.6094 10.8325V16.0044H56.9375Z" fill="white"/>
<path d="M65.875 16.1763C63.375 16.1763 61.8359 14.4497 61.8438 11.8169C61.8359 9.20752 63.3984 7.41064 65.7656 7.41064C67.6953 7.41064 69.5312 8.60596 69.5312 11.6763V12.27H63.5C63.5469 13.8872 64.5 14.8013 65.8906 14.8013C66.8359 14.8013 67.4531 14.395 67.7344 13.8794H69.4219C69.0469 15.2544 67.7422 16.1763 65.875 16.1763ZM63.5078 11.02H67.8906C67.8906 9.73096 67.0547 8.77783 65.7812 8.78564C64.4453 8.77783 63.5781 9.82471 63.5078 11.02Z" fill="white"/>
</svg>
