<svg width="25" height="24" viewBox="0 0 25 24" fill="none" xmlns="http://www.w3.org/2000/svg">
  <path fill-rule="evenodd" clip-rule="evenodd"
    d="M16.8703 1.90695C16.8703 4.57972 14.9977 6.11192 12.9851 6.74404V6.62037C12.9318 6.29057 12.8984 5.98825 12.8984 5.74777C12.8984 3.19181 14.7378 1.57028 16.7837 1L16.8103 1.12368C16.8436 1.42599 16.8703 1.69396 16.8703 1.90695ZM21.4667 16.535V16.6861V16.6999C21.4667 16.7409 21.4737 16.7819 21.4813 16.8263C21.4903 16.8785 21.5 16.9353 21.5 17.0022C21.5 19.3726 19.0076 22.918 16.3086 22.918C15.7597 22.918 15.2045 22.7173 14.6352 22.5115C14.0364 22.295 13.4221 22.0729 12.7832 22.0729C12.0082 22.0729 11.3039 22.3469 10.661 22.597C10.1209 22.8071 9.62397 23.0005 9.16457 23.0005C7.77175 23.0005 6.52555 21.7637 5.51925 19.8742C4.11977 17.2908 3.5 14.3157 3.5 12.3918C3.5 8.75715 6.5522 5.96071 9.63106 5.96071C10.3898 5.96071 10.907 6.26513 11.4134 6.56316C11.8989 6.8489 12.3744 7.12875 13.0431 7.12875C13.9718 7.12875 14.7022 6.76993 15.374 6.43991C15.9459 6.15895 16.4752 5.89887 17.0483 5.89887C18.8277 5.89887 19.9806 6.98447 20.8402 8.06319L20.7803 8.09067C19.4807 9.02511 18.7677 10.468 18.7677 12.117C18.7677 14.1645 19.7207 15.573 21.4667 16.535Z"
    fill="white" />
</svg>