<svg width="26" height="24" viewBox="0 0 26 24" fill="none" xmlns="http://www.w3.org/2000/svg">
  <rect x="4.5" width="18" height="7" rx="0.5" fill="#F1F3F5" />
  <path d="M4.5 0.5C4.5 0.223858 4.72386 0 5 0H8.5V7H5C4.72386 7 4.5 6.77614 4.5 6.5V0.5Z" fill="#DEE2E6" />
  <path d="M4.5 1.5C4.5 1.22386 4.72386 1 5 1H22.5V7H5C4.72386 7 4.5 6.77614 4.5 6.5V1.5Z" fill="#DEE2E6" />
  <path d="M3.5 5H23.5V23.5C23.5 23.7761 23.2761 24 23 24H4C3.72386 24 3.5 23.7761 3.5 23.5V5Z" fill="#F1F3F5" />
  <path d="M3.5 5H8.5V24H4C3.72386 24 3.5 23.7761 3.5 23.5V5Z" fill="#DEE2E6" />
  <path d="M13.5 19.5C13.5 19.2239 13.7239 19 14 19H18C18.2761 19 18.5 19.2239 18.5 19.5V24H13.5V19.5Z"
    fill="#BAC8FF" />
  <rect x="15.75" y="19" width="0.5" height="5" fill="#F1F3F5" />
  <rect x="11.5" y="15" width="4" height="2" rx="0.5" fill="#BAC8FF" />
  <rect x="11.5" y="11" width="4" height="2" rx="0.5" fill="#BAC8FF" />
  <rect x="11.5" y="7" width="4" height="2" rx="0.5" fill="#BAC8FF" />
  <rect x="16.5" y="15" width="4" height="2" rx="0.5" fill="#BAC8FF" />
  <rect x="16.5" y="11" width="4" height="2" rx="0.5" fill="#BAC8FF" />
  <rect x="16.5" y="7" width="4" height="2" rx="0.5" fill="#BAC8FF" />
  <path
    d="M2.18711 2.23927C2.27794 2.09065 2.43957 2 2.61375 2H20.3863C20.5604 2 20.7221 2.09065 20.8129 2.23927L22.0351 4.23928C22.2387 4.57245 21.9989 5 21.6085 5H1.39153C1.00106 5 0.76128 4.57245 0.964887 4.23927L2.18711 2.23927Z"
    fill="#FFCD4E" />
  <path
    d="M2.18711 2.23927C2.27794 2.09065 2.43957 2 2.61375 2H6.5V5H1.39153C1.00106 5 0.76128 4.57245 0.964887 4.23927L2.18711 2.23927Z"
    fill="#E9AC11" />
</svg>