<svg width="49" height="48" viewBox="0 0 49 48" fill="none" xmlns="http://www.w3.org/2000/svg">
  <g clip-path="url(#clip0_965_36289)">
    <circle cx="24.5" cy="24" r="24" fill="#CED4DA" />
    <mask id="mask0_965_36289" style="mask-type:alpha" maskUnits="userSpaceOnUse" x="4" y="10" width="41" height="38">
      <path fill-rule="evenodd" clip-rule="evenodd"
        d="M29.9365 32.7007C33.8318 30.7178 36.5 26.6705 36.5 22C36.5 15.3726 31.1274 10 24.5 10C17.8726 10 12.5 15.3726 12.5 22C12.5 26.6705 15.1682 30.7178 19.0635 32.7007C13.4567 34.172 8.59778 37.8828 5.72903 43.0987L4.62378 45.1083C4.54258 45.2559 4.5 45.4217 4.5 45.5902V47C4.5 47.5523 4.94771 48 5.5 48H43.5C44.0523 48 44.5 47.5523 44.5 47V45.5902C44.5 45.4217 44.4574 45.2559 44.3762 45.1083L43.271 43.0987C40.4022 37.8828 35.5433 34.172 29.9365 32.7007Z"
        fill="white" />
    </mask>
    <g mask="url(#mask0_965_36289)">
      <circle cx="24.5" cy="24" r="22" fill="white" stroke="#CED4DA" stroke-width="4" />
    </g>
  </g>
  <defs>
    <clipPath id="clip0_965_36289">
      <rect width="48" height="48" fill="white" transform="translate(0.5)" />
    </clipPath>
  </defs>
</svg>