<svg width="24" height="24" viewBox="0 0 24 24" fill="none" xmlns="http://www.w3.org/2000/svg">
<path fill-rule="evenodd" clip-rule="evenodd" d="M3 2C2.44772 2 2 2.44772 2 3V21C2 21.5523 2.44772 22 3 22H21C21.5523 22 22 21.5523 22 21V3C22 2.44772 21.5523 2 21 2H3ZM16.8535 11.1465L18.6464 9.35356C18.8416 9.1583 18.8416 8.84172 18.6464 8.64646L16.8535 6.85356C16.5385 6.53858 15.9999 6.76167 15.9999 7.20712V8.25001H5.99992V9.75001H15.9999V10.7929C15.9999 11.2384 16.5385 11.4614 16.8535 11.1465ZM17.9999 15.75H7.99992V16.7929C7.99992 17.2384 7.46135 17.4614 7.14637 17.1465L5.35348 15.3536C5.15822 15.1583 5.15822 14.8417 5.35348 14.6465L7.14637 12.8536C7.46135 12.5386 7.99992 12.7617 7.99992 13.2071V14.25H17.9999V15.75Z" fill="currentColor"/>
</svg>
