<svg width="36" height="36" viewBox="0 0 36 36" fill="none" xmlns="http://www.w3.org/2000/svg">
<rect width="36" height="36" rx="18" fill="#343A40"/>
<path d="M12.2998 9H19.0276C22.5819 9 24.6383 11.0564 24.6383 13.8237C24.6383 15.677 23.4705 17.2003 21.998 17.6827C23.6228 18.0635 25.1968 19.5614 25.1968 21.897C25.1968 24.842 22.9627 27 19.5607 27H12.2998V9ZM16.2095 16.2102H18.3929C19.7892 16.2102 20.7032 15.4739 20.7032 14.2553C20.7032 13.0874 19.9162 12.3258 18.3421 12.3258H16.2095V16.2102ZM16.2095 23.725H18.7229C20.2716 23.725 21.2109 22.9126 21.2109 21.6178C21.2109 20.3738 20.297 19.5106 18.7229 19.5106H16.2095V23.725Z" fill="#E9ECEF"/>
</svg>
