<svg width="33" height="32" viewBox="0 0 33 32" fill="none" xmlns="http://www.w3.org/2000/svg">
  <circle cx="16.5" cy="16" r="16" fill="#42B649" />
  <path
    d="M10.9677 15.3724C10.5966 15.3724 10.296 15.6731 10.296 16.0441C10.296 16.4151 10.5966 16.7172 10.9677 16.7172C11.3387 16.7172 11.6394 16.4165 11.6394 16.0441C11.6394 15.6717 11.3387 15.3724 10.9677 15.3724Z"
    fill="white" />
  <path
    d="M17.6091 15.3021C17.2091 15.3021 16.8849 15.6262 16.8849 16.0262C16.8849 16.4262 17.2091 16.7503 17.6091 16.7503C18.0091 16.7503 18.3332 16.4262 18.3332 16.0262C18.3332 15.6262 18.0091 15.3021 17.6091 15.3021Z"
    fill="white" />
  <path
    d="M23.6214 8.68964H9.31932C7.87656 8.68964 6.70691 9.85929 6.70691 11.3021V19.7903C6.70691 21.2331 7.87656 22.4027 9.31932 22.4027H14.3704L16.089 26.451C16.089 26.451 16.2076 26.8014 16.4931 26.8014C16.78 26.8014 16.8973 26.451 16.8973 26.451L18.6159 22.4027H23.6214C25.0641 22.4027 26.2338 21.2331 26.2338 19.7903V11.3021C26.2338 9.85929 25.0641 8.68964 23.6214 8.68964ZM12.8407 16.1931C12.8324 17.7448 11.2283 17.7889 11.2283 17.7889C10.6076 17.7889 10.2573 17.3779 10.2573 17.3779V17.6579H9.08898V12.8386C9.08898 12.8386 9.08346 12.8372 9.08898 12.8358V12.8386C9.16208 12.8496 10.2573 12.8358 10.2573 12.8358V14.6786C10.5317 14.2096 11.3262 14.2179 11.3262 14.2179C13.0559 14.3793 12.8393 16.1931 12.8393 16.1931H12.8407ZM14.8986 14.3669V17.6662H13.7552V14.4C13.7552 13.9558 13.2035 13.8317 13.2035 13.8317V12.68C15.0297 12.7545 14.8986 14.3669 14.8986 14.3669ZM17.609 17.7917C16.5497 17.7917 15.6917 17.0014 15.6917 16.0276C15.6917 15.0538 16.5497 14.2634 17.609 14.2634C18.6683 14.2634 19.5262 15.0538 19.5262 16.0276C19.5262 17.0014 18.6683 17.7917 17.609 17.7917ZM23.8738 17.7917C23.8738 17.7917 23.8904 19.4676 22.1869 19.4676H21.6683V18.382H21.9814C21.9814 18.382 22.6973 18.4483 22.689 17.3448C22.689 17.3448 22.5497 17.7917 21.5455 17.7917C21.5455 17.7917 20.1221 17.6896 20.1221 16.3007V15.7738C20.1221 15.7738 20.1552 14.3338 21.7179 14.2193C21.7179 14.2193 22.3345 14.1531 22.7138 14.6634V14.3103H23.8738V17.7931V17.7917Z"
    fill="white" />
  <path
    d="M22.056 15.3186C21.6656 15.3186 21.3484 15.6358 21.3484 16.0262C21.3484 16.4165 21.6656 16.7338 22.056 16.7338C22.4463 16.7338 22.7636 16.4165 22.7636 16.0262C22.7636 15.6358 22.4463 15.3186 22.056 15.3186Z"
    fill="white" />
</svg>