<svg width="20" height="20" viewBox="0 0 20 20" fill="none" xmlns="http://www.w3.org/2000/svg">
  <path
    d="M13.37 13.84C15.19 12.71 16.4 10.7 16.4 8.4C16.4 4.87 13.53 2 9.99998 2C6.46998 2 3.59998 4.87 3.59998 8.4C3.59998 10.7 4.80998 12.71 6.62998 13.84V14.53H13.37V13.84Z"
    fill="#FFC107" />
  <path
    d="M10.0001 11.7299C9.82012 11.7299 9.65012 11.6499 9.53012 11.5199L7.29012 9.07989C7.05012 8.81989 7.07012 8.40989 7.33012 8.17989C7.59012 7.93989 8.00012 7.95989 8.23012 8.21989L10.0001 10.1499L11.7701 8.21989C12.0101 7.95989 12.4201 7.93989 12.6701 8.17989C12.9301 8.41989 12.9501 8.81989 12.7101 9.07989L10.4701 11.5199C10.3501 11.6499 10.1801 11.7299 10.0001 11.7299Z"
    fill="#FF9900" />
  <path d="M10.6397 11.0901H9.35974V14.5401H10.6397V11.0901Z" fill="#FF9900" />
  <path
    d="M10.13 18H9.85998C8.46998 18 7.34998 16.88 7.34998 15.49V15.04H12.64V15.49C12.64 16.88 11.52 18 10.13 18Z"
    fill="#4A5C6D" />
  <path
    d="M12.6098 16.32H7.38976C6.96976 16.32 6.62976 15.98 6.62976 15.56V14.53H13.3698V15.56C13.3698 15.98 13.0298 16.32 12.6098 16.32Z"
    fill="#72868E" />
</svg>