<svg width="24" height="24" viewBox="0 0 24 24" fill="none" xmlns="http://www.w3.org/2000/svg">
<g clip-path="url(#clip0_186_63972)">
<path fill-rule="evenodd" clip-rule="evenodd" d="M1.75 12C1.75 6.34817 6.39382 1.75 12.1427 1.75C15.8854 1.75 19.1631 3.70037 20.9929 6.62375L18.6271 6.62874L18.6303 8.12874L22.8819 8.11976C23.2949 8.11889 23.6294 7.78432 23.6303 7.37135L23.6392 3.15559L22.1392 3.15242L22.134 5.62438C20.0148 2.38903 16.3301 0.25 12.1427 0.25C5.58368 0.25 0.25 5.50157 0.25 12C0.25 18.4984 5.58368 23.75 12.1427 23.75C15.9296 23.75 19.3057 22.0002 21.4837 19.2733L20.3116 18.3372C18.4087 20.7197 15.4584 22.25 12.1427 22.25C6.39382 22.25 1.75 17.6518 1.75 12Z" fill="#495057"/>
<path d="M12.1205 6.9222L17.1205 9.67201C17.2004 9.71595 17.25 9.79989 17.25 9.89107V16C17.25 16.1381 17.1381 16.25 17 16.25H14C13.8619 16.25 13.75 16.1381 13.75 16V14C13.75 13.0335 12.9665 12.25 12 12.25C11.0335 12.25 10.25 13.0335 10.25 14V16C10.25 16.1381 10.1381 16.25 10 16.25H7C6.86193 16.25 6.75 16.1381 6.75 16V9.89127C6.75 9.8001 6.79963 9.71616 6.87952 9.67222L11.8795 6.92221C11.9546 6.88095 12.0455 6.88095 12.1205 6.9222Z" stroke="#495057" stroke-width="1.5" stroke-miterlimit="10" stroke-linecap="round"/>
</g>
<defs>
<clipPath id="clip0_186_63972">
<rect width="24" height="24" fill="white"/>
</clipPath>
</defs>
</svg>
