<svg width="16" height="16" viewBox="0 0 16 16" fill="none" xmlns="http://www.w3.org/2000/svg">
  <path fill-rule="evenodd" clip-rule="evenodd"
    d="M3 2.75H13C13.2761 2.75 13.5 2.97386 13.5 3.25V4.41667H2.5V3.25C2.5 2.97386 2.72386 2.75 3 2.75ZM1 5.91667V4.41667V3.25C1 2.14543 1.89543 1.25 3 1.25H13C14.1046 1.25 15 2.14543 15 3.25V4.41667V5.91667V13.25C15 14.3546 14.1046 15.25 13 15.25H3C1.89543 15.25 1 14.3546 1 13.25V5.91667ZM13.5 5.91667V13.25C13.5 13.5261 13.2761 13.75 13 13.75H3C2.72386 13.75 2.5 13.5261 2.5 13.25V5.91667H13.5ZM7.125 7.58333C7.125 7.30719 7.34886 7.08333 7.625 7.08333H8.375C8.65114 7.08333 8.875 7.30719 8.875 7.58333V8.33333C8.875 8.60948 8.65114 8.83333 8.375 8.83333H7.625C7.34886 8.83333 7.125 8.60948 7.125 8.33333V7.58333ZM10.8333 7.08333C10.5572 7.08333 10.3333 7.30719 10.3333 7.58333V8.33333C10.3333 8.60948 10.5572 8.83333 10.8333 8.83333H11.5833C11.8595 8.83333 12.0833 8.60948 12.0833 8.33333V7.58333C12.0833 7.30719 11.8595 7.08333 11.5833 7.08333H10.8333ZM3.91667 7.58333C3.91667 7.30719 4.14052 7.08333 4.41667 7.08333H5.16667C5.44281 7.08333 5.66667 7.30719 5.66667 7.58333V8.33333C5.66667 8.60948 5.44281 8.83333 5.16667 8.83333H4.41667C4.14052 8.83333 3.91667 8.60948 3.91667 8.33333V7.58333ZM7.625 10.2917C7.34886 10.2917 7.125 10.5155 7.125 10.7917V11.5417C7.125 11.8178 7.34886 12.0417 7.625 12.0417H8.375C8.65114 12.0417 8.875 11.8178 8.875 11.5417V10.7917C8.875 10.5155 8.65114 10.2917 8.375 10.2917H7.625ZM10.3333 10.7917C10.3333 10.5155 10.5572 10.2917 10.8333 10.2917H11.5833C11.8595 10.2917 12.0833 10.5155 12.0833 10.7917V11.5417C12.0833 11.8178 11.8595 12.0417 11.5833 12.0417H10.8333C10.5572 12.0417 10.3333 11.8178 10.3333 11.5417V10.7917ZM4.41667 10.2917C4.14052 10.2917 3.91667 10.5155 3.91667 10.7917V11.5417C3.91667 11.8178 4.14052 12.0417 4.41667 12.0417H5.16667C5.44281 12.0417 5.66667 11.8178 5.66667 11.5417V10.7917C5.66667 10.5155 5.44281 10.2917 5.16667 10.2917H4.41667Z"
    fill="currentColor" />
</svg>