<svg width="33" height="32" viewBox="0 0 33 32" fill="none" xmlns="http://www.w3.org/2000/svg">
  <circle cx="16.5" cy="16" r="14" fill="#868E96" stroke="white" stroke-width="4" />
  <path
    d="M21.98 12.19H21.51C21.22 12.19 20.97 12.02 20.86 11.75L20.43 10.66C20.27 10.26 19.88 10 19.46 10H13.52C13.09 10 12.7 10.26 12.55 10.66L12.12 11.75C12.01 12.02 11.76 12.19 11.47 12.19H11C10.17 12.19 9.5 12.86 9.5 13.69V19.88C9.5 20.71 10.17 21.38 11 21.38H22C22.83 21.38 23.5 20.71 23.5 19.88V13.69C23.5 12.86 22.83 12.19 22 12.19H21.98ZM17.17 20.04C14.67 20.51 12.52 18.36 12.99 15.86C13.25 14.47 14.39 13.33 15.78 13.07C18.28 12.6 20.43 14.75 19.96 17.25C19.7 18.64 18.56 19.78 17.17 20.04Z"
    fill="white" />
  <path
    d="M16.4802 18.8208C17.7284 18.8208 18.7402 17.8089 18.7402 16.5608C18.7402 15.3126 17.7284 14.3008 16.4802 14.3008C15.2321 14.3008 14.2202 15.3126 14.2202 16.5608C14.2202 17.8089 15.2321 18.8208 16.4802 18.8208Z"
    fill="white" />
</svg>