<svg width="20" height="20" viewBox="0 0 20 20" fill="none" xmlns="http://www.w3.org/2000/svg">
  <path
    d="M8.31998 3.915L2.36998 13.145C1.36998 14.695 2.48998 16.725 4.31998 16.725H15.66C17.5 16.725 18.61 14.695 17.61 13.145L11.68 3.915C10.89 2.695 9.09999 2.695 8.31998 3.915Z"
    fill="#F83D3D" />
  <path
    d="M9.17016 7.86506C9.15016 7.38506 9.43016 7.00506 9.87016 6.92506C10.3302 6.84506 10.8002 7.17506 10.8202 7.64506C10.8402 8.02506 10.8002 8.41506 10.7802 8.80506C10.7302 9.70506 10.6802 10.6051 10.6302 11.5051C10.6102 11.9951 10.2302 12.2951 9.80016 12.1551C9.57016 12.0751 9.42016 11.9151 9.40016 11.6751C9.36016 11.3051 9.35016 10.9251 9.32016 10.5451C9.29016 10.1051 9.27016 9.65506 9.25016 9.21506C9.22016 8.77506 9.19016 8.33506 9.16016 7.86506H9.17016Z"
    fill="white" />
  <path
    d="M10.8302 13.765C10.8302 14.205 10.4602 14.575 10.0202 14.575C9.57017 14.575 9.20016 14.205 9.20016 13.755C9.20016 13.305 9.58016 12.925 10.0302 12.925C10.4802 12.925 10.8402 13.295 10.8402 13.775L10.8302 13.765Z"
    fill="white" />
</svg>