<svg width="24" height="24" viewBox="0 0 24 24" fill="none" xmlns="http://www.w3.org/2000/svg">
  <path fill-rule="evenodd" clip-rule="evenodd"
    d="M21 4L11 4.00037H3C2.44772 4.00037 2 4.44809 2 5.00037V19.9197C2 20.7583 2.96993 21.2244 3.62469 20.7006L6.72609 18.2195C6.9034 18.0777 7.12371 18.0004 7.35078 18.0004H21C21.5523 18.0004 22 17.5527 22 17.0004V5C22 4.4477 21.5523 3.99998 21 4ZM8 10C7.44772 10 7 10.4477 7 11C7 11.5523 7.44772 12 8 12C8.55228 12 9 11.5523 9 11C9 10.4477 8.55228 10 8 10ZM11 11C11 10.4477 11.4477 10 12 10C12.5523 10 13 10.4477 13 11C13 11.5523 12.5523 12 12 12C11.4477 12 11 11.5523 11 11ZM16 10C15.4477 10 15 10.4477 15 11C15 11.5523 15.4477 12 16 12C16.5523 12 17 11.5523 17 11C17 10.4477 16.5523 10 16 10Z"
    fill="currentColor" />
</svg>