<svg width="24" height="24" viewBox="0 0 24 24" fill="none" xmlns="http://www.w3.org/2000/svg">
<path fill-rule="evenodd" clip-rule="evenodd" d="M21 3L11 3.00037H3C2.44772 3.00037 2 3.44809 2 4.00037V18.9197C2 19.7583 2.96993 20.2244 3.62469 19.7006L6.72609 17.2195C6.9034 17.0777 7.12371 17.0004 7.35078 17.0004H21C21.5523 17.0004 22 16.5527 22 16.0004V4C22 3.4477 21.5523 2.99998 21 3ZM8 8.99996C7.44772 8.99996 7 9.44768 7 9.99996C7 10.5522 7.44772 11 8 11C8.55228 11 9 10.5522 9 9.99996C9 9.44768 8.55228 8.99996 8 8.99996ZM11 9.99996C11 9.44768 11.4477 8.99996 12 8.99996C12.5523 8.99996 13 9.44768 13 9.99996C13 10.5522 12.5523 11 12 11C11.4477 11 11 10.5522 11 9.99996ZM16 8.99996C15.4477 8.99996 15 9.44768 15 9.99996C15 10.5522 15.4477 11 16 11C16.5523 11 17 10.5522 17 9.99996C17 9.44768 16.5523 8.99996 16 8.99996Z" fill="currentColor"/>
</svg>
