<svg width="100" height="80" viewBox="0 0 100 80" fill="none" xmlns="http://www.w3.org/2000/svg">
  <path
    d="M10.4463 1.09466C10.0948 0.557682 9.54974 0.181802 8.92807 0.0476645C8.30196 -0.0790735 7.65183 0.0492591 7.11829 0.404882L0.802307 4.62977C0.370603 5.02461 0.0928303 5.56336 0.0194446 6.14819C-0.0539411 6.73301 0.081843 7.32513 0.402276 7.81703C0.72271 8.30893 1.20652 8.66798 1.76576 8.82899C2.325 8.99001 2.92259 8.9423 3.4501 8.69453L5.10197 7.5983C1.67674 24.1653 1.84688 42.0873 5.6608 57.1762C5.79854 57.6951 6.09971 58.154 6.51854 58.4832C6.93738 58.8123 7.4508 58.9935 7.98063 58.9992C8.18155 59.005 8.38232 58.98 8.57593 58.9253C9.19123 58.7599 9.71793 58.3563 10.0428 57.8011C10.3676 57.246 10.4645 56.5837 10.3128 55.9568C6.66889 41.6808 6.55964 24.695 9.77839 8.91628L10.6043 10.148C10.8246 10.4829 11.1224 10.7579 11.4718 10.949C11.8212 11.1401 12.2115 11.2415 12.6084 11.2443C13.08 11.2469 13.5414 11.1053 13.9323 10.8378C14.4581 10.4769 14.8236 9.92169 14.9508 9.2909C15.0779 8.66011 14.9566 8.00391 14.6126 7.46278L10.4463 1.09466Z"
    fill="white" />
  <path
    d="M26.0923 22.0892L38.8183 44.1314L37.486 49.1782C34.4424 60.6969 41.3216 72.612 52.8189 75.7355L64.9091 79.0202C72.0416 80.9597 79.4797 79.9994 85.8521 76.3203C99.0127 68.722 103.491 51.758 95.8364 38.4999L83.428 17.0078C81.1975 13.1444 76.2637 11.8029 72.4256 14.0188C70.9962 14.844 69.9178 16.0512 69.2451 17.4378C66.7162 15.2595 63.0002 14.7889 59.972 16.5372C58.5427 17.3624 57.4643 18.5695 56.7915 19.9562C54.2627 17.7779 50.5467 17.3072 47.5185 19.0555C46.2538 19.7857 45.2622 20.8158 44.5863 22.005L39.9983 14.0584C37.7678 10.195 32.834 8.85348 28.9991 11.0676C25.1643 13.2816 23.8583 18.2235 26.0897 22.0885L26.0923 22.0892ZM36.5262 16.0652L49.6712 38.8331C50.2295 39.8001 51.4617 40.1352 52.4216 39.5809C53.3816 39.0267 53.7075 37.7921 53.1492 36.8251L48.0938 28.0689C46.9771 26.1348 47.6332 23.6654 49.5482 22.5598C51.4632 21.4541 53.9308 22.1223 55.0465 24.0548L58.0799 29.3088C58.6382 30.2759 59.8704 30.6109 60.8303 30.0567C61.7902 29.5025 62.1162 28.2679 61.5578 27.3008L60.5464 25.5489C59.4297 23.6148 60.0858 21.1454 62.0008 20.0398C63.9158 18.9341 66.3833 19.6023 67.4991 21.5348L69.521 25.0369C70.0793 26.004 71.3115 26.339 72.2714 25.7848C73.2314 25.2306 73.5573 23.996 72.999 23.0289C71.8823 21.0948 72.5383 18.6254 74.4533 17.5198C76.3683 16.4141 78.8359 17.0823 79.9516 19.0148L92.3601 40.5069C98.898 51.831 95.0708 66.3284 83.8302 72.8182C78.3851 75.9619 72.0343 76.7804 65.9406 75.1235L53.8504 71.8387C49.1751 70.5647 45.4398 67.5088 43.1809 63.5962C40.9219 59.6837 40.1431 54.9209 41.3774 50.235L41.6815 49.083L47.3293 58.8653C47.8877 59.8324 49.1198 60.1674 50.0797 59.6132C51.0397 59.059 51.3656 57.8244 50.8073 56.8573L29.5735 20.0793C28.4568 18.1452 29.1129 15.6758 31.0279 14.5701C32.9429 13.4645 35.4104 14.1327 36.5262 16.0652Z"
    fill="white" />
</svg>