<svg width="29" height="34" viewBox="0 0 29 34" fill="none" xmlns="http://www.w3.org/2000/svg">
  <path
    fill-rule="evenodd"
    clip-rule="evenodd"
    d="M14.6403 33.3861C17.103 31.8832 28.3333 24.4683 28.3333 14.2221C28.3333 6.55152 21.9907 0.333252 14.1667 0.333252C6.34263 0.333252 0 6.55152 0 14.2221C0 24.4683 11.2303 31.8832 13.6931 33.3861C13.9901 33.5674 14.3432 33.5674 14.6403 33.3861ZM14.1667 19.4999C16.9281 19.4999 19.1667 17.2613 19.1667 14.4999C19.1667 11.7385 16.9281 9.49992 14.1667 9.49992C11.4052 9.49992 9.16667 11.7385 9.16667 14.4999C9.16667 17.2613 11.4052 19.4999 14.1667 19.4999Z"
    fill="#4263EB"
  />
  <path
    fill-rule="evenodd"
    clip-rule="evenodd"
    d="M14.6403 33.3861C17.103 31.8832 28.3333 24.4683 28.3333 14.2221C28.3333 6.55152 21.9907 0.333252 14.1667 0.333252C6.34263 0.333252 0 6.55152 0 14.2221C0 24.4683 11.2303 31.8832 13.6931 33.3861C13.9901 33.5674 14.3432 33.5674 14.6403 33.3861ZM14.1667 19.4999C16.9281 19.4999 19.1667 17.2613 19.1667 14.4999C19.1667 11.7385 16.9281 9.49992 14.1667 9.49992C11.4052 9.49992 9.16667 11.7385 9.16667 14.4999C9.16667 17.2613 11.4052 19.4999 14.1667 19.4999Z"
    fill="#7048E8"
  />
</svg>
