
<svg width="25" height="24" viewBox="0 0 25 24" fill="none" xmlns="http://www.w3.org/2000/svg">
<path d="M4.44614 9.22962C4.53814 9.08651 4.69659 9 4.86673 9H19.3208C19.4909 9 19.6494 9.08651 19.7414 9.22962L23.5985 15.2296C23.8124 15.5624 23.5735 16 23.1779 16H1.00958C0.613999 16 0.375079 15.5624 0.588994 15.2296L4.44614 9.22962Z" fill="#4C6EF5"/>
<path d="M6.44375 1.2C6.53818 1.0741 6.68637 1 6.84375 1H17.3438C17.5011 1 17.6493 1.0741 17.7437 1.2L19.9937 4.2C20.241 4.52962 20.0058 5 19.5938 5H4.59375C4.18173 5 3.94654 4.52962 4.19375 4.2L6.44375 1.2Z" fill="#4C6EF5"/>
<path d="M2.09375 16L5.67811 10.624C5.87603 10.3271 6.31224 10.3271 6.51015 10.624L10.0941 16H21.0941C21.6464 16 22.0941 16.4477 22.0941 17V22.5C22.0941 22.7761 21.8703 23 21.5941 23H10.0941H2.59411C2.31798 23 2.09413 22.7762 2.09411 22.5L2.09375 16Z" fill="#DEE2E6"/>
<path d="M10.0938 17H22.0938V22.5C22.0938 22.7761 21.8699 23 21.5938 23H10.0938V17Z" fill="#F1F3F5"/>
<path d="M5.09375 5L6.6781 2.62394C6.87603 2.32711 7.31222 2.32713 7.51013 2.62398L9.09414 5H19.0941V9H9.09414H5.09414L5.09375 5Z" fill="#DEE2E6"/>
<path d="M10.0938 6H19.0938V9H10.0938V6Z" fill="#F1F3F5"/>
<rect x="14.0938" y="17" width="5" height="5" rx="0.5" fill="#BAC8FF"/>
<rect x="16.3438" y="17" width="0.5" height="5" fill="#F1F3F5"/>
<rect x="19.0938" y="19.25" width="0.5" height="5" transform="rotate(90 19.0938 19.25)" fill="#F1F3F5"/>
</svg>
