<svg width="25" height="24" viewBox="0 0 25 24" fill="none" xmlns="http://www.w3.org/2000/svg">
<path d="M5.55244 2.25718C5.64062 2.09845 5.80793 2 5.98951 2H19.4011C19.5827 2 19.75 2.09845 19.8382 2.25718L24.2826 10.2572C24.4678 10.5904 24.2268 11 23.8456 11H1.54507C1.16383 11 0.922844 10.5904 1.10799 10.2572L5.55244 2.25718Z" fill="#EA2323"/>
<path d="M2.69531 11L6.26157 4.75966C6.45353 4.42377 6.93786 4.42378 7.1298 4.75968L10.6957 11H22.6957V21.5C22.6957 21.7761 22.4718 22 22.1957 22H10.6957H3.19569C2.91955 22 2.6957 21.7762 2.69569 21.5L2.69531 11Z" fill="#DEE2E6"/>
<path d="M10.6953 12H22.6953V21.5C22.6953 21.7761 22.4715 22 22.1953 22H10.6953V12Z" fill="#F1F3F5"/>
<rect x="14.6953" y="14" width="5" height="5" rx="0.5" fill="#BAC8FF"/>
<rect x="16.9453" y="14" width="0.5" height="5" fill="#F1F3F5"/>
<rect x="19.6953" y="16.25" width="0.5" height="5" transform="rotate(90 19.6953 16.25)" fill="#F1F3F5"/>
</svg>
