<svg width="18" height="22" viewBox="0 0 18 22" fill="none" xmlns="http://www.w3.org/2000/svg">
<path fill-rule="evenodd" clip-rule="evenodd" d="M16.3149 9.39078C16.3149 11.8315 14.9752 14.0727 13.2277 15.9362C11.686 17.5802 9.96088 18.7854 8.99999 19.3951C8.0391 18.7854 6.31397 17.5802 4.77227 15.9362C3.0248 14.0727 1.68506 11.8315 1.68506 9.39078C1.68506 5.66781 4.89254 2.49561 8.99999 2.49561C13.1074 2.49561 16.3149 5.66781 16.3149 9.39078ZM17.8149 9.39078C17.8149 15.3784 11.2835 19.7665 9.46495 20.8722C9.17502 21.0485 8.82496 21.0485 8.53503 20.8722C6.71648 19.7665 0.185059 15.3784 0.185059 9.39078C0.185059 4.77343 4.13164 0.995605 8.99999 0.995605C13.8683 0.995605 17.8149 4.77343 17.8149 9.39078ZM5.8518 9.06054V10.5605H12.1482V9.06054H5.8518Z" fill="#212529"/>
</svg>
