<svg width="24" height="24" viewBox="0 0 24 24" fill="none" xmlns="http://www.w3.org/2000/svg">
  <g clip-path="url(#clip0_1543_20393)">
    <path d="M24 24H0L4.67156 4.54028H19.3284L24 24Z" fill="#E9F2FF" />
    <path d="M19.3286 4.54028H16.9141L21.5856 24H24.0002L19.3286 4.54028Z" fill="#DEEBFF" />
    <path
      d="M15.913 7.87073H7.23832C7.03816 7.87073 6.87598 8.03291 6.87598 8.23307C6.87598 8.43323 7.03816 8.59541 7.23832 8.59541H15.9135C16.1136 8.59541 16.2758 8.43323 16.2758 8.23307C16.2758 8.03291 16.1136 7.87073 15.9135 7.87073H15.913Z"
      fill="#91A8DD" />
    <path
      d="M14.765 10.8721H6.7559C6.55574 10.8721 6.39355 11.0343 6.39355 11.2345C6.39355 11.4346 6.55574 11.5968 6.7559 11.5968H14.765C14.9651 11.5968 15.1273 11.4346 15.1273 11.2345C15.1273 11.0343 14.9651 10.8721 14.765 10.8721Z"
      fill="#91A8DD" />
    <path
      d="M13.7546 13.8735H6.17582C5.97566 13.8735 5.81348 14.0357 5.81348 14.2359C5.81348 14.436 5.97566 14.5982 6.17582 14.5982H13.7546C13.9547 14.5982 14.1169 14.436 14.1169 14.2359C14.1169 14.0357 13.9547 13.8735 13.7546 13.8735Z"
      fill="#91A8DD" />
    <path
      d="M5.3392 20.9915C5.65608 20.4543 5.98045 19.9214 6.31186 19.3926C6.55655 19.0017 6.80498 18.6121 7.06748 18.2329C7.15889 18.1007 7.26998 17.9432 7.33748 17.8612C7.38811 17.7993 7.43826 17.7361 7.5053 17.6925C7.56858 17.6512 7.60186 17.6409 7.63748 17.6629C7.59998 17.64 7.65295 17.7065 7.66373 17.7351C7.71295 17.8659 7.68295 18.0271 7.67217 18.1617C7.64826 18.4514 7.61451 18.7401 7.58826 19.0298C7.54139 19.537 7.4078 20.316 7.96936 20.5893C8.28061 20.7407 8.6078 20.5715 8.88436 20.4206C9.16936 20.265 9.43748 20.1103 9.73748 19.987C9.82045 19.9528 9.85748 19.9664 9.7342 19.9378C9.6817 19.9256 9.72389 19.8745 9.72295 19.9326C9.72155 19.9964 9.80076 20.1206 9.8228 20.1914C9.88889 20.4046 9.94514 20.6296 10.0572 20.8246C10.5283 21.6436 11.8567 21.3557 12.5861 21.1157C13.0267 20.9709 12.8383 20.2711 12.3934 20.4173C12.1136 20.5092 11.8178 20.5786 11.5248 20.6104C11.3115 20.6334 11.0772 20.6507 10.869 20.587C10.7083 20.5378 10.6712 20.4651 10.614 20.2992C10.48 19.9101 10.3839 19.2684 9.85795 19.2436C9.55045 19.229 9.22561 19.3968 8.96311 19.5412C8.81358 19.6237 8.66826 19.7142 8.51826 19.7957C8.45264 19.8318 8.38654 19.8693 8.31717 19.8979C8.17561 19.9575 8.29139 19.9195 8.28623 19.9411C8.30592 19.859 8.27358 19.7268 8.27592 19.6373C8.2792 19.4948 8.28623 19.3523 8.29701 19.2103C8.31811 18.9295 8.35233 18.6501 8.37811 18.3698C8.42733 17.8411 8.43483 17.122 7.7917 16.9546C7.29342 16.8248 6.92639 17.2078 6.6578 17.5664C6.39811 17.9132 6.1628 18.2789 5.92936 18.6436C5.5117 19.2965 5.10764 19.9589 4.71389 20.6268C4.4767 21.0295 5.10248 21.3942 5.3392 20.9925V20.9915Z"
      fill="#F55745" />
    <path d="M19.8909 2.66058L22.1016 3.44105L17.0114 17.8561L14.8008 17.0756L19.8909 2.66058Z" fill="#F55745" />
    <path
      d="M22.5472 2.37795L20.21 1.55295C19.8299 1.41889 19.4131 1.6181 19.2791 1.99826C19.145 2.37842 19.3442 2.79514 19.7244 2.9292L21.3735 3.51139L19.3963 9.11248C19.2622 9.49264 19.4614 9.90935 19.8416 10.0439C20.2217 10.1784 20.6385 9.97873 20.7725 9.59857L22.9925 3.30935C23.1266 2.9292 22.9274 2.51248 22.5472 2.37842V2.37795Z"
      fill="#FFBA47" />
    <path
      d="M15.604 18.3253C15.4151 18.2587 15.2084 18.3577 15.1418 18.5461L14.4143 20.6067C14.3477 20.7952 14.4466 21.0023 14.6351 21.0689C14.6749 21.083 14.7157 21.0895 14.7556 21.0895C14.9046 21.0895 15.0448 20.9967 15.0973 20.8477L15.8248 18.7875C15.8913 18.5991 15.7924 18.3919 15.604 18.3253Z"
      fill="#91A8DD" />
    <path d="M15.7193 19.882L14.5371 19.4648L14.8034 17.0732L17.0135 17.8532L15.7193 19.882Z" fill="#FFBA47" />
    <path
      d="M22.133 2.2317L20.625 1.69967L21.0366 0.533887C21.1837 0.117637 21.6403 -0.100801 22.0566 0.0459178C22.4728 0.193105 22.6913 0.649668 22.5445 1.06592L22.133 2.2317Z"
      fill="#91A8DD" />
  </g>
  <defs>
    <clipPath id="clip0_1543_20393">
      <rect width="24" height="24" fill="white" />
    </clipPath>
  </defs>
</svg>