<svg width="20" height="20" viewBox="0 0 20 20" fill="none" xmlns="http://www.w3.org/2000/svg">
  <path
    d="M10 18C14.4183 18 18 14.4183 18 10C18 5.58172 14.4183 2 10 2C5.58172 2 2 5.58172 2 10C2 14.4183 5.58172 18 10 18Z"
    fill="#ADB5BD" />
  <path
    d="M9.0498 13.09C9.0498 12.75 9.1398 12.52 9.3298 12.38C9.5098 12.24 9.7398 12.18 9.9998 12.18C10.2598 12.18 10.4798 12.25 10.6598 12.38C10.8398 12.52 10.9298 12.75 10.9298 13.09C10.9298 13.43 10.8398 13.65 10.6598 13.79C10.4798 13.93 10.2598 14 9.9998 14C9.7398 14 9.5098 13.93 9.3298 13.79C9.1498 13.65 9.0498 13.41 9.0498 13.09ZM10.6598 11.25H9.3498L9.0798 6H10.9398L10.6698 11.25H10.6598Z"
    fill="white" />
</svg>