<svg width="33" height="32" viewBox="0 0 33 32" fill="none" xmlns="http://www.w3.org/2000/svg">
  <g clip-path="url(#clip0_7096_10647)">
    <path
      d="M32.5 16C32.5 24.8366 25.3366 32 16.5 32C7.66345 32 0.5 24.8366 0.5 16C0.5 7.16345 7.66345 0 16.5 0C25.3366 0 32.5 7.16345 32.5 16Z"
      fill="#3B5A9A" />
    <path
      d="M20.0119 8.09186V10.8992H18.482C18.0261 10.8992 17.7397 11.0236 17.5927 11.2723C17.491 11.4381 17.4495 11.7282 17.4495 12.1201V13.4013H20.0534L19.7444 16.2313H17.4533V24.3895H14.0882V16.2313H12.4377V13.4013H14.0882V11.7094C14.0882 9.97598 14.6874 8.86058 15.8631 8.38578C16.4396 8.15969 16.937 8.09563 17.4533 8.09563H20.0157L20.0119 8.09186Z"
      fill="#F7F8F8" />
  </g>
  <defs>
    <clipPath id="clip0_7096_10647">
      <rect width="32" height="32" fill="white" transform="translate(0.5)" />
    </clipPath>
  </defs>
</svg>