<svg width="16" height="16" viewBox="0 0 16 16" fill="none" xmlns="http://www.w3.org/2000/svg">
<path d="M2.75 13C2.75 12.3096 3.30964 11.75 4 11.75C4.69036 11.75 5.25 12.3096 5.25 13C5.25 13.6904 4.69036 14.25 4 14.25C3.30964 14.25 2.75 13.6904 2.75 13Z" stroke="#495057" stroke-width="1.5" stroke-miterlimit="10"/>
<path d="M16 13L5 13" stroke="#495057" stroke-width="1.5" stroke-miterlimit="10"/>
<path d="M10.75 8C10.75 7.30964 11.3096 6.75 12 6.75C12.6904 6.75 13.25 7.30964 13.25 8C13.25 8.69036 12.6904 9.25 12 9.25C11.3096 9.25 10.75 8.69036 10.75 8Z" stroke="#495057" stroke-width="1.5" stroke-miterlimit="10"/>
<path d="M16 8L13 8" stroke="#495057" stroke-width="1.5" stroke-miterlimit="10"/>
<path d="M11 8L2.38419e-07 8" stroke="#495057" stroke-width="1.5" stroke-miterlimit="10"/>
<path d="M3 13L0 13" stroke="#495057" stroke-width="1.5" stroke-miterlimit="10"/>
<path d="M5.75 3C5.75 2.30964 6.30964 1.75 7 1.75C7.69036 1.75 8.25 2.30964 8.25 3C8.25 3.69036 7.69036 4.25 7 4.25C6.30964 4.25 5.75 3.69036 5.75 3Z" stroke="#495057" stroke-width="1.5" stroke-miterlimit="10"/>
<path d="M16 3L8 3" stroke="#495057" stroke-width="1.5" stroke-miterlimit="10"/>
<path d="M6 3L0 3" stroke="#495057" stroke-width="1.5" stroke-miterlimit="10"/>
</svg>
