<svg width="83" height="21" viewBox="0 0 83 21" fill="none" xmlns="http://www.w3.org/2000/svg">
<path d="M8.01562 7.77002C7.59375 6.43408 6.57031 5.60596 5.07812 5.61377C3.17188 5.60596 1.71094 7.10596 1.70312 9.84814C1.71094 12.5825 3.15625 14.0903 5.15625 14.0825C6.96094 14.0903 8.15625 12.9419 8.1875 11.1294H5.40625V9.70752H9.85938V10.9888C9.85938 13.856 7.89062 15.6606 5.14062 15.6606C2.07812 15.6606 0 13.4341 0 9.84814C0 6.23877 2.14062 4.03564 5.0625 4.03564C7.50781 4.03564 9.39844 5.55908 9.78125 7.77002H8.01562Z" fill="white"/>
<path d="M15.0469 15.6763C12.6406 15.6763 11.0703 13.9263 11.0781 11.3013C11.0703 8.66064 12.6406 6.91064 15.0469 6.91064C17.4375 6.91064 19 8.66064 19 11.3013C19 13.9263 17.4375 15.6763 15.0469 15.6763ZM12.75 11.3013C12.75 12.9185 13.4922 14.2856 15.0469 14.2856C16.5781 14.2856 17.3125 12.9185 17.3125 11.3013C17.3125 9.67627 16.5781 8.29346 15.0469 8.28564C13.4922 8.29346 12.75 9.67627 12.75 11.3013Z" fill="white"/>
<path d="M23.9844 15.6763C21.5781 15.6763 20.0078 13.9263 20.0156 11.3013C20.0078 8.66064 21.5781 6.91064 23.9844 6.91064C26.375 6.91064 27.9375 8.66064 27.9375 11.3013C27.9375 13.9263 26.375 15.6763 23.9844 15.6763ZM21.6875 11.3013C21.6875 12.9185 22.4297 14.2856 23.9844 14.2856C25.5156 14.2856 26.25 12.9185 26.25 11.3013C26.25 9.67627 25.5156 8.29346 23.9844 8.28564C22.4297 8.29346 21.6875 9.67627 21.6875 11.3013Z" fill="white"/>
<path d="M32.8906 18.8638C30.75 18.8638 29.3359 17.9185 29.1875 16.3325H30.8906C31.0547 17.1372 31.8047 17.5278 32.9062 17.52C34.2344 17.5278 35.0703 16.9497 35.0781 15.6294V13.9575H34.9688C34.6719 14.5044 34.0625 15.3794 32.5 15.3794C30.5 15.3794 28.9531 13.8872 28.9531 11.1763C28.9531 8.46533 30.4766 6.91064 32.5156 6.91064C34.0938 6.91064 34.6719 7.86377 34.9844 8.39502H35.0938V7.02002H36.7188V15.6919C36.7266 17.8716 35.0781 18.8638 32.8906 18.8638ZM30.6562 11.2075C30.6484 12.8716 31.4141 13.9966 32.875 14.0044C34.2969 13.9966 35.0938 12.9575 35.0938 11.2075C35.0938 9.48877 34.3125 8.32471 32.875 8.33252C31.3984 8.32471 30.6484 9.58252 30.6562 11.2075Z" fill="white"/>
<path d="M40.1719 4.19189V15.5044H38.5V4.19189H40.1719Z" fill="white"/>
<path d="M45.6094 15.6763C43.1094 15.6763 41.5703 13.9497 41.5781 11.3169C41.5703 8.70752 43.1328 6.91064 45.5 6.91064C47.4297 6.91064 49.2656 8.10596 49.2656 11.1763V11.77H43.2344C43.2812 13.3872 44.2344 14.3013 45.625 14.3013C46.5703 14.3013 47.1875 13.895 47.4688 13.3794H49.1562C48.7812 14.7544 47.4766 15.6763 45.6094 15.6763ZM43.2422 10.52H47.625C47.625 9.23096 46.7891 8.27783 45.5156 8.28564C44.1797 8.27783 43.3125 9.32471 43.2422 10.52Z" fill="white"/>
<path d="M54.4688 15.5044V4.19189H58.5C61.1328 4.19189 62.4219 5.77002 62.4219 7.86377C62.4219 9.94971 61.125 11.5356 58.5 11.5356H56.1875V15.5044H54.4688ZM56.1875 10.0669H58.3281C59.9922 10.0747 60.6875 9.13721 60.6875 7.86377C60.6875 6.58252 59.9922 5.66846 58.3281 5.66064H56.1875V10.0669Z" fill="white"/>
<path d="M65.5156 4.19189V15.5044H63.8438V4.19189H65.5156Z" fill="white"/>
<path d="M66.9062 13.1138C66.8984 11.1763 68.5469 10.6763 70.0781 10.5669C70.6406 10.5356 71.9141 10.4653 72.3047 10.4497L72.2969 9.77002C72.3047 8.80908 71.7109 8.25439 70.5781 8.25439C69.5938 8.25439 69 8.70752 68.8281 9.33252H67.1719C67.3203 7.92627 68.6328 6.91064 70.6406 6.91064C71.9922 6.91064 73.9609 7.40283 73.9688 9.86377V15.5044H72.3438V14.3481H72.2812C71.9531 14.981 71.1719 15.6919 69.7656 15.6919C68.1562 15.6919 66.8984 14.77 66.9062 13.1138ZM68.5312 13.1294C68.5312 13.9419 69.2031 14.356 70.1406 14.3638C71.5 14.356 72.3125 13.4497 72.3125 12.4419L72.3047 11.6685C71.9219 11.6919 70.7109 11.7778 70.3125 11.8013C69.2188 11.8794 68.5312 12.2935 68.5312 13.1294Z" fill="white"/>
<path d="M76.4531 18.6919C76.1094 18.6841 75.7734 18.6763 75.5625 18.645V17.2544C75.75 17.27 76.0781 17.2778 76.3125 17.2856C76.8281 17.2778 77.2578 17.2466 77.6562 16.1763L77.8594 15.6138L74.75 7.02002H76.5312L78.6719 13.5981H78.7656L80.9062 7.02002H82.7031L79.2031 16.6294C78.7109 17.9731 77.8516 18.6841 76.4531 18.6919Z" fill="white"/>
</svg>
