<svg width="25" height="24" viewBox="0 0 25 24" fill="none" xmlns="http://www.w3.org/2000/svg">
  <rect x="0.5" width="9" height="24" rx="1" fill="#F1F3F5" />
  <rect x="10.5" width="9" height="24" rx="1" fill="#F1F3F5" />
  <path fill-rule="evenodd" clip-rule="evenodd"
    d="M20.8721 2.16545C20.6735 1.94485 20.3275 1.94485 20.1289 2.16545L16.6294 6.05248C16.3397 6.37423 16.5681 6.88703 17.001 6.88703H18.9601V9.99592C18.9601 10.5482 19.4078 10.9959 19.9601 10.9959H21.0417C21.594 10.9959 22.0417 10.5482 22.0417 9.99593V6.88703H24.0001C24.433 6.88703 24.6613 6.37423 24.3716 6.05249L20.8721 2.16545Z"
    fill="#EA2323" />
  <path fill-rule="evenodd" clip-rule="evenodd"
    d="M20.1279 21.8306C20.3265 22.0512 20.6725 22.0512 20.8711 21.8306L24.3706 17.9436C24.6603 17.6219 24.4319 17.1091 23.999 17.1091L22.0399 17.1091L22.0399 14.0002C22.0399 13.4479 21.5922 13.0002 21.0399 13.0002L19.9583 13.0002C19.406 13.0002 18.9583 13.4479 18.9583 14.0002L18.9583 17.1091L16.9999 17.1091C16.567 17.1091 16.3387 17.6219 16.6284 17.9436L20.1279 21.8306Z"
    fill="#EA2323" />
</svg>