<svg width="84" height="20" viewBox="0 0 84 20" fill="none" xmlns="http://www.w3.org/2000/svg">
<path fill-rule="evenodd" clip-rule="evenodd" d="M67.0825 2.72393H69.9511V0H67.0825V2.72393ZM11.4757 2.0794H9.7038H9.22861H9.19257V2.53488V10.9718C8.21122 9.57497 7.23886 8.18773 6.27496 6.8106C5.33752 5.47223 4.38994 4.12262 3.43673 2.76571L3.43786 2.76515L2.95703 2.0794H2.80445H2.62259H2.18512H0.51123H0V2.59891V15.3952V15.8967H0.51123H2.27407H2.80445V15.3856V6.54439C3.81002 8.0125 4.81446 9.47556 5.81834 10.9352C6.74171 12.2798 7.67071 13.6255 8.60196 14.9723H8.59914L9.22861 15.8866V15.8967H9.23536H9.50168H11.135H11.4942H12.0325V15.4143V2.58992V2.0794H11.4757ZM48.6785 6.74862C48.281 6.55766 47.8441 6.46162 47.3785 6.46162C46.9011 6.46162 46.4546 6.55823 46.0526 6.74862C45.6472 6.9407 45.2925 7.20017 44.9969 7.52087C44.7007 7.84268 44.4676 8.22066 44.3021 8.64694C44.1355 9.07154 44.0527 9.52365 44.0527 9.99093C44.0527 10.4644 44.1355 10.9182 44.3021 11.3394C44.4676 11.7618 44.7002 12.1336 44.9963 12.4453C45.2914 12.7587 45.6461 13.0092 46.0503 13.1911C46.454 13.3731 46.9011 13.4658 47.3785 13.4658C47.8447 13.4658 48.2816 13.3731 48.6802 13.1911C49.0777 13.0092 49.4262 12.7587 49.7151 12.4464C50.0045 12.1347 50.2336 11.7623 50.3958 11.3405C50.5596 10.9182 50.6424 10.4644 50.6424 9.99093C50.6424 9.52365 50.5596 9.07098 50.3958 8.64638C50.2331 8.2201 50.0039 7.84156 49.7145 7.52031C49.4257 7.19961 49.0766 6.94014 48.6785 6.74862ZM51.7067 5.65064C52.08 6.01964 52.4026 6.43525 52.6689 6.88624C52.9347 7.33779 53.1447 7.83147 53.2905 8.35435C53.4358 8.87779 53.5101 9.42876 53.5101 9.99095C53.5101 10.5531 53.4358 11.1019 53.2905 11.6231C53.1447 12.142 52.9347 12.6329 52.6689 13.0822C52.4026 13.5298 52.08 13.946 51.7073 14.3167C51.3351 14.6885 50.9185 15.0097 50.4697 15.2726C50.0204 15.5354 49.5289 15.7421 49.0087 15.8876C48.4862 16.033 47.9395 16.1071 47.3832 16.1071C46.8213 16.1071 46.2724 16.033 45.7532 15.8876C45.2369 15.7426 44.7443 15.5354 44.2927 15.2726C43.8401 15.0097 43.4229 14.6885 43.0501 14.3167C42.6774 13.946 42.3548 13.5298 42.0885 13.0822C41.8222 12.6346 41.6133 12.1431 41.4669 11.6231C41.3216 11.1019 41.2479 10.5531 41.2479 9.99095C41.2479 9.42876 41.3216 8.87779 41.4669 8.35491C41.6139 7.83035 41.8227 7.33611 42.0885 6.88624C42.3542 6.43525 42.6774 6.01964 43.0501 5.65064C43.4229 5.28333 43.8401 4.9632 44.2927 4.70036C44.7432 4.43751 45.2347 4.23083 45.7527 4.08537C46.7853 3.79557 47.9609 3.79332 49.0087 4.08481C49.53 4.23083 50.0216 4.43808 50.4697 4.70036C50.919 4.96264 51.3351 5.28221 51.7067 5.65064ZM79.1689 6.74862C78.7714 6.55766 78.3345 6.46162 77.8689 6.46162C77.3925 6.46162 76.9455 6.55823 76.5429 6.74862C76.1381 6.9407 75.7828 7.20017 75.4878 7.52087C75.1917 7.84268 74.9574 8.22066 74.7919 8.64694C74.6258 9.07154 74.543 9.52365 74.543 9.99093C74.543 10.4644 74.6258 10.9182 74.7919 11.3394C74.9574 11.7618 75.1911 12.1336 75.4867 12.4453C75.7817 12.7587 76.137 13.0092 76.5412 13.1911C76.9444 13.3731 77.392 13.4658 77.8689 13.4658C78.3345 13.4658 78.7725 13.3731 79.1706 13.1911C79.5681 13.0092 79.9166 12.7587 80.206 12.4464C80.4954 12.1347 80.7245 11.7623 80.8861 11.3405C81.05 10.9182 81.1327 10.4644 81.1327 9.99093C81.1327 9.52365 81.05 9.07098 80.8861 8.64638C80.724 8.2201 80.4943 7.84156 80.2043 7.52031C79.916 7.19961 79.5675 6.94014 79.1689 6.74862ZM83.1599 6.88624C83.4257 7.33779 83.6351 7.83147 83.7804 8.35435C83.9262 8.87779 84.0005 9.42876 84.0005 9.99095C84.0005 10.5531 83.9262 11.1019 83.7804 11.6231C83.6351 12.142 83.4257 12.6329 83.1599 13.0822C82.8936 13.5298 82.5704 13.946 82.1988 14.3167C81.825 14.6885 81.4089 15.0097 80.9602 15.2726C80.5109 15.5354 80.0193 15.7421 79.4991 15.8876C78.9772 16.033 78.4294 16.1071 77.8742 16.1071C77.3123 16.1071 76.7628 16.033 76.2431 15.8876C75.7274 15.7426 75.2353 15.5354 74.7832 15.2726C74.3305 15.0097 73.9133 14.6885 73.5411 14.3167C73.1684 13.946 72.8452 13.5298 72.5789 13.0822C72.3126 12.6346 72.1037 12.1431 71.9579 11.6231C71.8121 11.1019 71.7378 10.5531 71.7378 9.99095C71.7378 9.42876 71.8121 8.87779 71.9579 8.35491C72.1043 7.83035 72.3132 7.33611 72.5789 6.88624C72.8452 6.43525 73.1684 6.01964 73.5411 5.65064C73.9133 5.28333 74.3305 4.9632 74.7832 4.70036C75.2336 4.43751 75.7251 4.23083 76.2426 4.08537C77.2757 3.79557 78.4513 3.79332 79.4991 4.08481C80.0205 4.23083 80.512 4.43808 80.9602 4.70036C81.4095 4.96264 81.8255 5.28221 82.1988 5.65064C82.5704 6.01964 82.8942 6.43525 83.1599 6.88624ZM17.9336 7.06033C17.6589 7.27937 17.4156 7.53996 17.2118 7.83482C17.0356 8.0898 16.8976 8.365 16.8031 8.65705H23.0189C22.9254 8.34872 22.7931 8.0606 22.6248 7.8C22.4333 7.50346 22.1991 7.24454 21.9277 7.02944C21.6575 6.81489 21.3444 6.64697 20.9959 6.52846C20.3462 6.30942 19.5591 6.26786 18.8463 6.54138C18.5158 6.66831 18.2084 6.84298 17.9336 7.06033ZM22.4389 12.6546L22.5093 12.5901L24.0638 14.5429C24.056 14.5494 24.0487 14.5559 24.0415 14.5624C24.0301 14.5727 24.0187 14.5829 24.0053 14.5928C23.4659 15.0517 22.8612 15.4207 22.2143 15.6863C21.564 15.9531 20.8411 16.0885 20.0658 16.0885C19.2291 16.0885 18.424 15.9284 17.674 15.6128C16.9241 15.2977 16.2569 14.8585 15.6938 14.3087C15.1302 13.7588 14.6753 13.1051 14.3443 12.366C14.0115 11.6257 13.8437 10.8175 13.8437 9.96329C13.8437 9.41345 13.9124 8.87372 14.0492 8.36039C14.1849 7.84706 14.382 7.36012 14.6331 6.91081C14.8842 6.46319 15.1933 6.04533 15.5531 5.67128C15.9123 5.29667 16.3199 4.97205 16.7647 4.70584C17.2073 4.43962 17.696 4.23069 18.2145 4.08523C19.1582 3.82014 20.2471 3.78419 21.2673 4.03861C21.7267 4.15263 22.1681 4.31718 22.5808 4.5278C22.9935 4.73841 23.3837 4.99676 23.7446 5.29667C24.1032 5.59659 24.4242 5.94031 24.6989 6.31941C25.0722 6.84061 25.3487 7.40954 25.5226 8.00993C25.6955 8.60976 25.7839 9.28203 25.7839 10.0093C25.7839 10.1902 25.776 10.3441 25.7602 10.4671C25.7422 10.6058 25.6955 10.7209 25.6217 10.8097C25.5457 10.9001 25.4348 10.9664 25.2924 11.0051C25.1589 11.0416 24.9816 11.0596 24.7496 11.0596H16.7343C16.8165 11.4325 16.955 11.7695 17.1476 12.0616C17.3643 12.3896 17.6239 12.6704 17.9184 12.8973C18.214 13.1236 18.5394 13.2966 18.8885 13.4117C19.5027 13.6145 20.1429 13.6268 20.7093 13.5044C20.9548 13.4516 21.1879 13.3792 21.4018 13.2904C21.6141 13.2028 21.814 13.0989 21.997 12.9832C22.1619 12.8776 22.31 12.7675 22.4389 12.6546ZM36.8738 10.0248C36.8619 10.4859 36.7645 10.9279 36.5838 11.3407C36.4031 11.7535 36.1559 12.1202 35.8479 12.4302C35.5416 12.7397 35.1751 12.9896 34.7607 13.1727C34.348 13.3552 33.9021 13.4474 33.4365 13.4474C32.9646 13.4474 32.5244 13.3536 32.1263 13.1688C31.7282 12.9834 31.3763 12.7273 31.0819 12.41C30.7857 12.0916 30.5515 11.717 30.386 11.294C30.221 10.8728 30.136 10.4185 30.136 9.945C30.136 9.47772 30.221 9.02729 30.386 8.6055C30.5515 8.18315 30.7857 7.80798 31.0819 7.48953C31.3769 7.17053 31.7288 6.91554 32.1263 6.73077C32.5232 6.54599 32.9635 6.4522 33.4365 6.4522C33.9021 6.4522 34.348 6.5443 34.7607 6.72684C35.1751 6.91049 35.5416 7.16098 35.8479 7.47325C36.1559 7.78608 36.4031 8.15451 36.5838 8.56787C36.7645 8.98067 36.8619 9.42268 36.8738 9.88097V10.0248ZM37.8283 4.0226L37.8251 4.02257C37.7761 4.02202 37.7281 4.02148 37.6785 4.02148C37.675 4.02148 37.6721 4.02179 37.6693 4.02208C37.6667 4.02235 37.6643 4.0226 37.6616 4.0226H36.915V5.40422C36.7337 5.21832 36.5372 5.04197 36.3306 4.87797C36.0626 4.66624 35.7704 4.4809 35.4624 4.32645C35.1522 4.16975 34.8172 4.04844 34.4664 3.96475C34.1145 3.88107 33.7334 3.83839 33.3347 3.83839C32.7773 3.83839 32.2346 3.91252 31.7217 4.05742C31.2104 4.20289 30.7273 4.41013 30.2859 4.67354C29.8445 4.93694 29.4391 5.25876 29.0788 5.62944C28.7201 6.00068 28.4071 6.41685 28.1498 6.86503C27.8925 7.31322 27.6909 7.80409 27.5513 8.32416C27.4128 8.84255 27.3407 9.3879 27.3407 9.94504C27.3407 10.5078 27.4128 11.0537 27.5513 11.567C27.6909 12.0804 27.8925 12.5639 28.1498 13.0037C28.4077 13.4429 28.7207 13.8473 29.0811 14.2067C29.4408 14.5662 29.8473 14.8773 30.2876 15.1306C30.7296 15.385 31.2121 15.5827 31.7239 15.7181C32.2351 15.8546 32.7773 15.9236 33.3347 15.9236C33.7334 15.9236 34.1106 15.8793 34.4546 15.7922C34.798 15.7046 35.1207 15.5827 35.4129 15.4305C35.7073 15.2783 35.9832 15.0969 36.2355 14.8913C36.4117 14.7487 36.5829 14.5965 36.7461 14.4359L36.7455 14.4801L36.7455 14.4807C36.745 14.5118 36.7444 14.5435 36.7444 14.5757C36.7444 14.7144 36.7304 14.8357 36.6988 14.9548C36.6639 15.3204 36.5479 15.6552 36.3531 15.95C36.1566 16.2483 35.9005 16.5072 35.593 16.7178C35.2823 16.9301 34.9219 17.0946 34.5222 17.207C34.1207 17.3199 33.6934 17.3766 33.252 17.3766C33.0718 17.3766 32.864 17.3648 32.6332 17.3406C32.4052 17.3176 32.1721 17.2766 31.9412 17.2199C31.7104 17.1632 31.4874 17.0901 31.2774 17.0048C31.0719 16.9211 30.8985 16.8178 30.7583 16.6959L29.3693 18.7245C29.6221 18.9216 29.9081 19.1019 30.2195 19.2597C30.528 19.417 30.858 19.5518 31.1997 19.6602C31.537 19.768 31.89 19.8517 32.247 19.9118C32.6056 19.9702 32.9654 20 33.3162 20C34.15 20 34.9512 19.8775 35.6955 19.6383C36.4438 19.3951 37.1098 19.0227 37.6751 18.5307C38.2415 18.0376 38.6948 17.4086 39.0253 16.6611C39.3541 15.9158 39.5213 15.0239 39.5213 14.0124V13.1278V4.66904V4.0226H37.8283ZM59.8839 13.2972C60.6586 13.6628 61.5921 13.6769 62.4294 13.3449C62.833 13.1849 63.1911 12.9754 63.4946 12.7198L64.896 14.8647C64.8858 14.8742 64.8757 14.8827 64.8657 14.8912L64.8656 14.8912L64.8655 14.8913C64.8511 14.9035 64.8368 14.9156 64.8222 14.9304L64.8115 14.9203L64.8205 14.931C64.3425 15.2899 63.7885 15.5791 63.1737 15.7897C62.5594 15.9998 61.899 16.1071 61.211 16.1071C60.6598 16.1071 60.1176 16.0329 59.5984 15.8875C59.0805 15.742 58.5901 15.5347 58.1413 15.2719C57.692 15.0102 57.2759 14.6906 56.9027 14.3216C56.5299 13.9537 56.2051 13.5381 55.9354 13.0866C55.6657 12.635 55.4545 12.1425 55.3087 11.623C55.1635 11.1035 55.0897 10.5547 55.0897 9.99086C55.0897 9.42698 55.1635 8.8777 55.3087 8.35875C55.4545 7.83924 55.6657 7.34668 55.9354 6.89513C56.2051 6.44357 56.5299 6.02853 56.9027 5.66009C57.2759 5.2911 57.692 4.97153 58.1413 4.70981C58.5901 4.44696 59.0805 4.23972 59.5984 4.09426C60.1176 3.94879 60.6598 3.87466 61.211 3.87466C61.899 3.87466 62.5594 3.98193 63.1737 4.19254C63.7885 4.40316 64.3425 4.69184 64.8205 5.05072L64.8115 5.06195L64.8222 5.05128C64.8358 5.06486 64.8493 5.0764 64.8627 5.08795L64.8775 5.10073C64.8836 5.10611 64.8898 5.11166 64.896 5.11756L63.4946 7.26188C63.1911 7.00633 62.833 6.79684 62.4294 6.63678C61.5921 6.30485 60.6586 6.31889 59.8839 6.68451C59.4796 6.87603 59.1176 7.13944 58.8102 7.46687C58.5022 7.7943 58.2562 8.18127 58.0771 8.61654C57.9003 9.04956 57.8108 9.51234 57.8108 9.99086C57.8108 10.4694 57.9003 10.9322 58.0771 11.3652C58.2562 11.801 58.5022 12.1874 58.8102 12.5148C59.1176 12.8423 59.4796 13.1057 59.8839 13.2972ZM69.9511 15.8965H67.0825V4.04882H69.9511V15.8965Z" fill="#7048E8"/>
</svg>
