<svg width="24" height="24" viewBox="0 0 24 24" fill="none" xmlns="http://www.w3.org/2000/svg">
<path fill-rule="evenodd" clip-rule="evenodd" d="M21.4751 8.11646L12.4751 3.2568C12.1786 3.09669 11.8214 3.09669 11.5249 3.25681L2.52485 8.11682C2.20153 8.29142 2 8.62927 2 8.99673V20.0002C2 20.5525 2.44772 21.0002 3 21.0002H14.3923H21C21.5523 21.0002 22 20.5525 22 20.0002V8.99638C22 8.62891 21.7985 8.29105 21.4751 8.11646ZM14.1453 10.0002H15.1761H15.5V10.2589V16.7558V17.0002H15.1869H14.9779H14.0277H13.8727H13.8688V16.9951L13.5026 16.5319H13.5043C12.9625 15.8496 12.422 15.1679 11.8849 14.4867C11.3009 13.7472 10.7165 13.006 10.1315 12.2623V16.7413V17.0002H9.82296H8.79741H8.5V16.7462V10.2634V10.0002H8.79741H9.77121H10.0257H10.1315H10.2203L10.5 10.3477L10.4993 10.3479C11.0539 11.0354 11.6051 11.7191 12.1505 12.3971C12.7113 13.0948 13.2769 13.7976 13.8479 14.5052V10.231V10.0002H13.8688H14.1453Z" fill="currentColor"/>
</svg>
