<svg width="20" height="18" viewBox="0 0 20 18" fill="none" xmlns="http://www.w3.org/2000/svg">
<path fill-rule="evenodd" clip-rule="evenodd" d="M19.4751 5.11646L10.4751 0.2568C10.1786 0.096687 9.82139 0.096692 9.52487 0.256813L0.524851 5.11682C0.201526 5.29142 0 5.62927 0 5.99673V17.0002C0 17.5525 0.447715 18.0002 1 18.0002H12.3923H19C19.5523 18.0002 20 17.5525 20 17.0002V5.99638C20 5.62891 19.7985 5.29105 19.4751 5.11646ZM10.883 6.50024H9.11916V7.35619C8.82356 7.45192 8.56045 7.59452 8.34104 7.77889C7.90689 8.14372 7.65252 8.66487 7.65466 9.28427C7.65466 9.78635 7.82012 10.1906 8.12675 10.5014C8.43006 10.8088 8.8613 11.0144 9.37563 11.1431L9.98404 11.2978L9.98579 11.2982C10.3023 11.3746 10.513 11.4553 10.6439 11.5496C10.764 11.6361 10.8161 11.7327 10.8197 11.8651C10.8158 12.0205 10.7487 12.1462 10.6264 12.2367C10.4997 12.3303 10.3037 12.393 10.0373 12.393C9.75064 12.393 9.52726 12.3216 9.37415 12.1964C9.22352 12.0733 9.12461 11.885 9.11032 11.6167L9.10311 11.4812H7.5L7.50244 11.6264C7.51498 12.3736 7.76623 12.9479 8.22135 13.3338C8.4696 13.5444 8.77282 13.6938 9.11916 13.7861V14.5002H10.883V13.8103C11.2596 13.7227 11.5814 13.5718 11.8377 13.3604C12.269 13.0044 12.4979 12.4894 12.5 11.8644C12.4979 11.3327 12.3226 10.8974 11.9914 10.5613C11.6634 10.2284 11.1932 10.0035 10.6181 9.86833L10.1147 9.73962L10.1114 9.73884C9.85659 9.67993 9.66208 9.60795 9.53439 9.51506C9.41462 9.42793 9.35597 9.32522 9.35889 9.18392L9.35891 9.18262C9.36046 9.0463 9.41447 8.93532 9.51818 8.85529C9.62524 8.77267 9.79869 8.71315 10.0533 8.71315C10.3082 8.71315 10.4885 8.77508 10.6068 8.87165C10.7234 8.96673 10.7966 9.10887 10.8122 9.30392L10.8227 9.43573H12.4214L12.4199 9.29142C12.4135 8.6792 12.1805 8.15621 11.7633 7.78722C11.5231 7.57474 11.2258 7.41674 10.883 7.32112V6.50024Z" fill="currentColor"/>
<path fill-rule="evenodd" clip-rule="evenodd" d="M19.4751 5.11646L10.4751 0.2568C10.1786 0.096687 9.82139 0.096692 9.52487 0.256813L0.524851 5.11682C0.201526 5.29142 0 5.62927 0 5.99673V17.0002C0 17.5525 0.447715 18.0002 1 18.0002H12.3923H19C19.5523 18.0002 20 17.5525 20 17.0002V5.99638C20 5.62891 19.7985 5.29105 19.4751 5.11646ZM10.883 6.50024H9.11916V7.35619C8.82356 7.45192 8.56045 7.59452 8.34104 7.77889C7.90689 8.14372 7.65252 8.66487 7.65466 9.28427C7.65466 9.78635 7.82012 10.1906 8.12675 10.5014C8.43006 10.8088 8.8613 11.0144 9.37563 11.1431L9.98404 11.2978L9.98579 11.2982C10.3023 11.3746 10.513 11.4553 10.6439 11.5496C10.764 11.6361 10.8161 11.7327 10.8197 11.8651C10.8158 12.0205 10.7487 12.1462 10.6264 12.2367C10.4997 12.3303 10.3037 12.393 10.0373 12.393C9.75064 12.393 9.52726 12.3216 9.37415 12.1964C9.22352 12.0733 9.12461 11.885 9.11032 11.6167L9.10311 11.4812H7.5L7.50244 11.6264C7.51498 12.3736 7.76623 12.9479 8.22135 13.3338C8.4696 13.5444 8.77282 13.6938 9.11916 13.7861V14.5002H10.883V13.8103C11.2596 13.7227 11.5814 13.5718 11.8377 13.3604C12.269 13.0044 12.4979 12.4894 12.5 11.8644C12.4979 11.3327 12.3226 10.8974 11.9914 10.5613C11.6634 10.2284 11.1932 10.0035 10.6181 9.86833L10.1147 9.73962L10.1114 9.73884C9.85659 9.67993 9.66208 9.60795 9.53439 9.51506C9.41462 9.42793 9.35597 9.32522 9.35889 9.18392L9.35891 9.18262C9.36046 9.0463 9.41447 8.93532 9.51818 8.85529C9.62524 8.77267 9.79869 8.71315 10.0533 8.71315C10.3082 8.71315 10.4885 8.77508 10.6068 8.87165C10.7234 8.96673 10.7966 9.10887 10.8122 9.30392L10.8227 9.43573H12.4214L12.4199 9.29142C12.4135 8.6792 12.1805 8.15621 11.7633 7.78722C11.5231 7.57474 11.2258 7.41674 10.883 7.32112V6.50024Z" fill="currentColor"/>
</svg>
