<svg width="24" height="24" viewBox="0 0 24 24" fill="none" xmlns="http://www.w3.org/2000/svg">
  <path
    d="M22.0684 7.46901L19.7987 4.64526H3.92779L2.04529 7.46901C1.27092 8.63058 1.01404 10.0617 1.3356 11.4201L4.03279 22.8084C4.19826 23.5068 4.82217 24 5.53935 24H18.5744C19.292 24 19.9155 23.5068 20.0809 22.8084L22.7781 11.4201C23.0997 10.0617 22.8428 8.63058 22.0684 7.46901Z"
    fill="#F9EAC7" />
  <path
    d="M22.0684 7.46901L19.7987 4.64526H3.92779L2.04529 7.46901C1.27092 8.63058 1.01404 10.0617 1.3356 11.4201L4.03279 22.8084C4.19826 23.5068 4.8217 24 5.53935 24H7.91639L6.32311 11.4201C6.22045 10.6092 6.22889 9.77292 6.34045 8.98308C6.38545 8.66198 6.57107 8.37933 6.84623 8.20823C6.84764 8.20729 6.84857 8.20636 6.84998 8.20589C7.28404 7.93636 7.59764 7.74136 8.31201 7.74136C9.02639 7.74136 9.34092 7.93636 9.77498 8.20589C10.2756 8.5162 10.8981 8.90292 12.0545 8.90292C13.2109 8.90292 13.8334 8.5162 14.3336 8.20589C14.7676 7.93636 15.0812 7.74136 15.7956 7.74136C16.51 7.74136 16.825 7.93636 17.2595 8.20589C17.7601 8.5162 18.3826 8.90292 19.5395 8.90292C20.6964 8.90292 21.3189 8.5162 21.8195 8.20589C22.0019 8.09292 22.1622 7.9973 22.337 7.92042C22.2559 7.7662 22.1669 7.61526 22.0694 7.46854L22.0684 7.46901Z"
    fill="#F4DBB3" />
  <path
    d="M5.35602 22.4517H18.7576C19.1166 22.4517 19.4284 22.2051 19.5109 21.8559L22.0248 11.242C22.2934 10.1076 22.081 8.90108 21.4421 7.92655L19.4274 5.41968H4.34211L2.6893 7.8989C2.03398 8.8814 1.81648 10.0926 2.08883 11.242L4.60273 21.8559C4.6857 22.2051 4.99742 22.4517 5.35602 22.4517Z"
    fill="#FFC269" />
  <path
    d="M21.6624 8.30247C21.5959 8.17356 21.5227 8.04794 21.4426 7.92606L19.4279 5.41919H4.34211L2.6893 7.89841C2.03398 8.88138 1.81648 10.0922 2.08883 11.2415L4.60273 21.8554C4.6857 22.2047 4.99742 22.4512 5.35602 22.4512H7.71992L6.32258 11.4197C6.21992 10.6087 6.22836 9.77247 6.33992 8.98263C6.38492 8.66153 6.57055 8.37888 6.8457 8.20778C6.84711 8.20685 6.84805 8.20638 6.84945 8.20544C7.28351 7.93591 7.59711 7.74138 8.31148 7.74138C9.02586 7.74138 9.34039 7.93638 9.77445 8.20591C10.2751 8.51622 10.8976 8.90294 12.054 8.90294C13.2104 8.90294 13.8329 8.51622 14.333 8.20591C14.7671 7.93638 15.0807 7.74185 15.7951 7.74185C16.5095 7.74185 16.8245 7.93685 17.259 8.20638C17.7596 8.51669 18.3821 8.90341 19.539 8.90341C20.5787 8.90341 21.1862 8.59122 21.662 8.30247H21.6624Z"
    fill="#FFA95F" />
  <path
    d="M20.1858 0H3.9277C3.5002 0 3.15332 0.346406 3.15332 0.774375V2.32266C3.15332 2.75016 3.49973 3.09703 3.9277 3.09703H20.1858C20.6133 3.09703 20.9602 2.75062 20.9602 2.32266V0.774375C20.9602 0.346875 20.6138 0 20.1858 0Z"
    fill="#FF8B5A" />
  <path
    d="M22.7104 6.39513C22.9283 6.6131 22.814 6.97919 22.5135 7.04763C21.3632 7.30966 21.1119 8.12903 19.5393 8.12903C17.6675 8.12903 17.6675 6.96794 15.7954 6.96794C13.9232 6.96794 13.9246 8.12903 12.0543 8.12903C10.184 8.12903 10.183 6.96794 8.31177 6.96794C6.44052 6.96794 6.44145 8.12903 4.57067 8.12903C2.99989 8.12903 2.74864 7.30966 1.59974 7.04763C1.29927 6.97919 1.18536 6.6131 1.40286 6.3956L2.81286 4.9856C3.03036 4.7681 3.32614 4.64575 3.63411 4.64575H20.4791C20.7871 4.64575 21.0824 4.7681 21.3004 4.9856L22.7099 6.39513H22.7104Z"
    fill="#FF8B5A" />
  <path
    d="M15.3665 4.25818H14.5171L15.0918 5.53037C15.1565 5.67334 15.2971 5.75818 15.4447 5.75818C15.4977 5.75818 15.5521 5.7474 15.6037 5.72396C15.7987 5.63584 15.8854 5.40662 15.7972 5.21209L15.3665 4.25865V4.25818Z"
    fill="#FF7350" />
  <path
    d="M8.66215 4.64537H3.63481C3.32684 4.64537 3.03153 4.76771 2.81356 4.98521L1.40356 6.39521C1.18559 6.61318 1.29996 6.9788 1.60043 7.04724C2.74887 7.30927 3.00059 8.12912 4.57137 8.12912C6.23309 8.12912 6.42106 7.21459 7.75324 7.00974L8.66262 4.6449L8.66215 4.64537Z"
    fill="#FF7350" />
  <path
    d="M6.33575 4.25818L5.33872 5.89552C5.22763 6.07787 5.28529 6.31646 5.46857 6.42755C5.53138 6.46599 5.60075 6.48427 5.66919 6.48427C5.79997 6.48427 5.92747 6.41818 6.00013 6.29865L7.24185 4.25865H6.33529L6.33575 4.25818Z"
    fill="#FF8B5A" />
  <path
    d="M7.41145 1.16109V0H3.9277C3.5002 0 3.15332 0.346406 3.15332 0.774375V2.32266C3.15332 2.75016 3.49973 3.09703 3.9277 3.09703H20.1858C20.6133 3.09703 20.9602 2.75062 20.9602 2.32266H8.57301C7.93176 2.32266 7.41191 1.80281 7.41191 1.16156L7.41145 1.16109Z"
    fill="#FF7350" />
  <path
    d="M19.7987 4.64531H4.3149C3.8874 4.64531 3.54053 4.2989 3.54053 3.87093C3.54053 3.44296 3.88693 3.09656 4.3149 3.09656H19.7991C20.2266 3.09656 20.5735 3.44296 20.5735 3.87093C20.5735 4.29843 20.2266 4.64531 19.7991 4.64531H19.7987Z"
    fill="#9F6E50" />
  <path
    d="M19.7988 3.09705H7.4116C7.19785 3.09705 7.02441 3.27048 7.02441 3.48423C7.02441 3.69798 7.19785 3.87142 7.4116 3.87142H20.5732C20.5732 3.44392 20.2268 3.09705 19.7988 3.09705Z"
    fill="#B57F5F" />
</svg>