<svg width="24" height="24" viewBox="0 0 24 24" fill="none" xmlns="http://www.w3.org/2000/svg">
  <path d="M22.7143 20V9H9V21H21.7143C22.2666 21 22.7143 20.5523 22.7143 20Z" fill="#F5F8FA" />
  <path
    d="M4.70044 3.41083C4.88868 3.15267 5.18895 3 5.50845 3H18.0202C18.3235 3 18.6104 3.13769 18.8002 3.37431L23.348 9.0443C23.6105 9.37158 23.3775 9.85714 22.958 9.85714H0.983389C0.574462 9.85714 0.338457 9.39297 0.579386 9.06256L4.70044 3.41083Z"
    fill="#26B580" />
  <path
    d="M1.28564 9.85715L4.74279 5.24763C4.94279 4.98096 5.34279 4.98096 5.54279 5.24763L8.99993 9.85715V21H2.28565C1.73336 21 1.28564 20.5523 1.28564 20V9.85715Z"
    fill="#E5ECF3" />
  <path
    d="M15.4287 15.9286C15.4287 15.6524 15.6526 15.4286 15.9287 15.4286H17.5001C17.7763 15.4286 18.0001 15.6524 18.0001 15.9286V21H15.4287V15.9286Z"
    fill="#4BA483" />
  <rect x="12.4287" y="15.4286" width="1.71429" height="2.14286" rx="0.5" fill="#CFDFEB" />
  <rect x="19.2856" y="15.4286" width="1.71429" height="2.14286" rx="0.5" fill="#CFDFEB" />
</svg>