<svg width="28" height="28" viewBox="0 0 28 28" fill="none" xmlns="http://www.w3.org/2000/svg">
  <path d="M26 23V10H11V24H25C25.5523 24 26 23.5523 26 23Z" fill="#F5F8FA" />
  <path
    d="M5.53377 3.41083C5.72201 3.15267 6.02228 3 6.34178 3H21.1035C21.4068 3 21.6938 3.13769 21.8836 3.37431L27.348 10.1872C27.6105 10.5144 27.3775 11 26.958 11H0.983389C0.574461 11 0.338457 10.5358 0.579386 10.2054L5.53377 3.41083Z"
    fill="#4263EB" />
  <path
    d="M5.53377 3.41083C5.72201 3.15267 6.02228 3 6.34178 3H21.1035C21.4068 3 21.6938 3.13769 21.8836 3.37431L27.348 10.1872C27.6105 10.5144 27.3775 11 26.958 11H0.983389C0.574461 11 0.338457 10.5358 0.579386 10.2054L5.53377 3.41083Z"
    fill="#7048E8" />
  <path d="M2 11L6.1 5.53333C6.3 5.26667 6.7 5.26667 6.9 5.53333L11 11V24H3C2.44772 24 2 23.5523 2 23V11Z"
    fill="#E5ECF3" />
  <path d="M18 18.5C18 18.2239 18.2239 18 18.5 18H20.5C20.7761 18 21 18.2239 21 18.5V24H18V18.5Z" fill="#5F3DC4" />
  <rect x="15" y="18" width="2" height="3" rx="0.5" fill="#CFDFEB" />
  <rect x="22" y="18" width="2" height="3" rx="0.5" fill="#CFDFEB" />
</svg>