<svg width="16" height="16" viewBox="0 0 16 16" fill="none" xmlns="http://www.w3.org/2000/svg">
<path fill-rule="evenodd" clip-rule="evenodd" d="M15.4648 4.78933L8.46483 1.11459C8.17378 0.961799 7.82623 0.961804 7.53518 1.1146L0.535166 4.78961C0.206108 4.96237 0 5.30336 0 5.67501V13.8706C0 14.4229 0.447715 14.8706 1 14.8706H9.91388H15C15.5523 14.8706 16 14.4229 16 13.8706V5.67474C16 5.30308 15.7939 4.96208 15.4648 4.78933ZM4.34467 8.4634L6.84467 10.9634C7.13756 11.2563 7.61244 11.2563 7.90533 10.9634L11.6553 7.2134L10.5947 6.15274L7.375 9.37241L5.40533 7.40274L4.34467 8.4634Z" fill="#20C764"/>
</svg>
