<svg width="24" height="24" viewBox="0 0 24 24" fill="none" xmlns="http://www.w3.org/2000/svg">
  <path
    d="M12.7213 11.6429C12.7213 9.83298 12.7213 8.01404 12.7213 6.20415C12.7213 6.04126 12.7658 5.96887 12.9172 5.91457C15.0098 5.16347 17.0935 4.40332 19.1861 3.64316C20.6287 3.1183 22 4.09564 22 5.65214C22 8.89184 22 12.1315 22 15.3712C22 16.3757 21.4924 17.1178 20.5663 17.4526C17.8237 18.448 15.081 19.4435 12.3384 20.4389C12.1069 20.5204 11.8842 20.5204 11.6527 20.4389C8.91897 19.4435 6.18522 18.4571 3.45147 17.4617C2.50757 17.1178 2 16.3848 2 15.3712C2 12.1225 2 8.87374 2 5.63404C2 4.11373 3.37133 3.12735 4.77827 3.63411C6.9065 4.40332 9.03473 5.18157 11.163 5.94172C11.35 6.01412 11.3945 6.10461 11.3945 6.2856C11.3945 9.83298 11.3945 13.3894 11.3945 16.9368C11.3945 17.0454 11.3945 17.154 11.4123 17.2535C11.4657 17.5883 11.7685 17.8236 12.098 17.8055C12.4274 17.7874 12.7035 17.525 12.7213 17.1811C12.7302 17.0001 12.7213 16.8101 12.7213 16.6291C12.7213 14.964 12.7213 13.2989 12.7213 11.6338V11.6429Z"
    fill="currentColor" />
</svg>