<svg width="24" height="24" viewBox="0 0 24 24" fill="none" xmlns="http://www.w3.org/2000/svg">
  <path
    d="M4.80397 15.3542C4.86232 15.2452 4.89286 15.1236 4.89286 15V10.5C4.89286 6.80671 8.04381 3.75 12 3.75C15.9562 3.75 19.1071 6.80671 19.1071 10.5V15C19.1071 15.1236 19.1377 15.2452 19.196 15.3542L20.5502 17.8819C20.6394 18.0485 20.5188 18.25 20.3298 18.25H3.67017C3.48124 18.25 3.36058 18.0485 3.4498 17.8819L4.80397 15.3542Z"
    stroke="#212529" stroke-width="1.5" stroke-miterlimit="10" stroke-linejoin="round" />
  <rect x="11.25" y="2" width="1.5" height="2" fill="#212529" />
  <path
    d="M10.2374 20.75H13.7626C13.37 21.0321 12.7556 21.25 12 21.25C11.2444 21.25 10.63 21.0321 10.2374 20.75Z"
    fill="white" stroke="#212529" stroke-width="1.5" />
</svg>