<svg width="24" height="24" viewBox="0 0 24 24" fill="none" xmlns="http://www.w3.org/2000/svg">
  <path
    d="M19.57 3.71387L13.82 5.49387C13.3 5.65387 12.94 6.14387 12.94 6.68387V15.6139C12.94 16.1339 12.52 16.5539 12 16.5539C11.48 16.5539 11.06 16.1339 11.06 15.6139V6.69387C11.06 6.14387 10.7 5.66387 10.18 5.50387L4.43 3.71387C3.22 3.34387 2 4.24387 2 5.51387V15.5439C2 16.6439 2.71 17.6139 3.76 17.9339L11.26 20.2539C11.74 20.4039 12.25 20.4039 12.74 20.2539L20.24 17.9339C21.29 17.6139 22 16.6439 22 15.5439V5.51387C22 4.25387 20.78 3.35387 19.57 3.72387V3.71387Z"
    fill="currentColor" />
</svg>