<svg width="24" height="24" viewBox="0 0 24 24" fill="none" xmlns="http://www.w3.org/2000/svg">
  <path
    d="M15 16.33V18.75C15 19.99 13.99 21 12.75 21H5.25C4.01 21 3 19.99 3 18.75V9.91998C3 8.67998 4.01 7.66998 5.25 7.66998H9"
    stroke="currentColor" stroke-width="2" stroke-miterlimit="10" />
  <path
    d="M18.75 16.33H11.25C10.01 16.33 9 15.32 9 14.08V5.25C9 4.01 10.01 3 11.25 3H15.38C15.91 3 16.42 3.21 16.79 3.59L18.6 5.4L20.37 7.08C20.77 7.46 21 7.98 21 8.53V14.09C21 15.33 19.99 16.34 18.75 16.34V16.33Z"
    stroke="currentColor" stroke-width="2" stroke-linecap="round" stroke-linejoin="round" />
  <path d="M20.9998 8.7H17.6398C16.3498 8.7 15.2998 7.65 15.2998 6.36V3" stroke="currentColor"
    stroke-width="2" stroke-linecap="round" stroke-linejoin="round" />
</svg>