<svg width="33" height="32" viewBox="0 0 33 32" fill="none" xmlns="http://www.w3.org/2000/svg">
  <g clip-path="url(#clip0_7096_10646)">
    <path
      d="M32.5 16C32.5 24.8346 25.3384 32 16.5 32C7.66158 32 0.5 24.8346 0.5 16C0.5 7.16537 7.66158 0 16.5 0C25.3384 0 32.5 7.16158 32.5 16Z"
      fill="url(#paint0_linear_7096_10646)" />
    <path
      d="M20.6978 24.8195H12.8814C10.069 24.8195 7.78271 22.5333 7.78271 19.7246V12.1278C7.78271 9.31537 10.069 7.02911 12.8814 7.02911H20.6978C23.5102 7.02911 25.7964 9.31537 25.7964 12.1278V19.7246C25.7964 22.5333 23.5102 24.8195 20.6978 24.8195ZM12.8814 8.67567C10.9812 8.67567 9.43306 10.2238 9.43306 12.1278V19.7246C9.43306 21.6248 10.9812 23.173 12.8814 23.173H20.6978C22.6017 23.173 24.1461 21.6248 24.1461 19.7246V12.1278C24.1461 10.2238 22.598 8.67567 20.6978 8.67567H12.8814Z"
      fill="white" />
    <path
      d="M16.7877 20.5914C14.2138 20.5914 12.1205 18.4982 12.1205 15.9243C12.1205 13.3504 14.2138 11.2571 16.7877 11.2571C19.3616 11.2571 21.4548 13.3504 21.4548 15.9243C21.4548 18.4982 19.3616 20.5914 16.7877 20.5914ZM16.7877 12.9037C15.1222 12.9037 13.7671 14.2588 13.7671 15.9243C13.7671 17.5898 15.1222 18.9449 16.7877 18.9449C18.4532 18.9449 19.8083 17.5898 19.8083 15.9243C19.8083 14.2588 18.4532 12.9037 16.7877 12.9037Z"
      fill="white" />
    <path
      d="M22.7228 11.1625C22.7228 11.7682 22.2308 12.2602 21.6251 12.2602C21.0195 12.2602 20.5274 11.7682 20.5274 11.1625C20.5274 10.5569 21.0195 10.0648 21.6251 10.0648C22.2308 10.0648 22.7228 10.5569 22.7228 11.1625Z"
      fill="white" />
  </g>
  <defs>
    <linearGradient id="paint0_linear_7096_10646" x1="5.27691" y1="27.2193" x2="27.4241"
      y2="5.07594" gradientUnits="userSpaceOnUse">
      <stop offset="0.03" stop-color="#FCB216" />
      <stop offset="0.19" stop-color="#F46233" />
      <stop offset="0.3" stop-color="#EE2F45" />
      <stop offset="0.35" stop-color="#ED1C4D" />
      <stop offset="0.71" stop-color="#8F2785" />
      <stop offset="1" stop-color="#5757A2" />
    </linearGradient>
    <clipPath id="clip0_7096_10646">
      <rect width="32" height="32" fill="white" transform="translate(0.5)" />
    </clipPath>
  </defs>
</svg>