<svg width="32" height="32" viewBox="0 0 32 32" fill="none" xmlns="http://www.w3.org/2000/svg">
  <rect x="0.00146484" width="31.9988" height="32" rx="15.9994" fill="#868E96" />
  <path
    d="M16.0889 25.9997C16.0225 25.9997 15.9564 25.9997 15.8896 25.9997C14.3221 26.0036 12.8736 25.9638 11.4646 25.8779C10.1732 25.7994 8.99434 25.3529 8.05527 24.5873C7.14902 23.8486 6.53027 22.8494 6.21621 21.6186C5.94277 20.5467 5.92832 19.4948 5.91426 18.4773C5.9041 17.7472 5.89395 16.882 5.8916 16.0023C5.89355 15.1187 5.9041 14.2535 5.91426 13.5235C5.92832 12.5059 5.94277 11.454 6.21621 10.3821C6.53027 9.15092 7.14902 8.15212 8.05527 7.41346C8.99434 6.64707 10.1732 6.20099 11.465 6.12209C12.8736 6.03654 14.3225 5.9967 15.8936 6.00021C17.4615 5.9967 18.9096 6.03654 20.3186 6.12209C21.61 6.2006 22.7889 6.64707 23.7279 7.41268C24.6342 8.15133 25.2529 9.15053 25.567 10.3814C25.8404 11.4532 25.8549 12.5055 25.8689 13.5227C25.8791 14.2528 25.8896 15.118 25.8916 15.9976V16.0011C25.8896 16.8808 25.8791 17.746 25.8689 18.4761C25.8549 19.4936 25.8408 20.5456 25.567 21.6174C25.2529 22.8486 24.6342 23.8474 23.7279 24.5861C22.7889 25.3517 21.61 25.7982 20.3186 25.8767C18.9693 25.9587 17.5838 25.9986 16.0889 25.9986V25.9997ZM15.8896 24.4369C17.4318 24.4404 18.8479 24.4017 20.2236 24.3181C21.2002 24.2588 22.0471 23.942 22.7404 23.3764C23.3814 22.8533 23.8232 22.1319 24.0529 21.2323C24.2807 20.3401 24.2936 19.3823 24.3064 18.4558C24.3162 17.7304 24.3268 16.8714 24.3287 16.0004C24.3268 15.1289 24.3162 14.2699 24.3064 13.545C24.2939 12.6188 24.2807 11.6606 24.0529 10.7685C23.8232 9.86848 23.3818 9.14701 22.7404 8.62437C22.0467 8.05876 21.2002 7.74197 20.2236 7.6826C18.8482 7.599 17.4322 7.56033 15.8936 7.56346C14.3518 7.55994 12.9354 7.59861 11.56 7.6826C10.5834 7.74197 9.73652 8.05876 9.04316 8.62437C8.40215 9.1474 7.96035 9.86887 7.73066 10.7685C7.50293 11.6606 7.49004 12.6184 7.47715 13.545C7.46738 14.2707 7.45684 15.1305 7.45488 16.0023C7.45684 16.8707 7.46738 17.73 7.47715 18.4562C7.48965 19.3823 7.50293 20.3405 7.73066 21.2327C7.96035 22.1326 8.40176 22.8541 9.04316 23.3768C9.73691 23.9424 10.5834 24.2592 11.56 24.3185C12.9354 24.4021 14.3521 24.4412 15.89 24.4377L15.8896 24.4369ZM15.8525 20.8827C13.1604 20.8827 10.9697 18.6925 10.9697 16C10.9697 13.3075 13.1604 11.1173 15.8525 11.1173C18.5447 11.1173 20.7354 13.3075 20.7354 16C20.7354 18.6925 18.5451 20.8827 15.8525 20.8827ZM15.8525 12.6797C14.0217 12.6797 12.5322 14.1692 12.5322 16C12.5322 17.8308 14.0217 19.3202 15.8525 19.3202C17.6834 19.3202 19.1729 17.8308 19.1729 16C19.1729 14.1692 17.6834 12.6797 15.8525 12.6797ZM21.2822 9.55482C20.635 9.55482 20.1104 10.0794 20.1104 10.7267C20.1104 11.3739 20.635 11.8985 21.2822 11.8985C21.9295 11.8985 22.4541 11.3739 22.4541 10.7267C22.4541 10.0794 21.9295 9.55482 21.2822 9.55482Z"
    fill="white" />
</svg>