<svg width="36" height="36" viewBox="0 0 36 36" fill="none" xmlns="http://www.w3.org/2000/svg">
<rect width="35.9986" height="36" rx="17.9993" fill="#343A40"/>
<path d="M18.1963 27.9997C18.1299 27.9997 18.0639 27.9997 17.9971 27.9997C16.4295 28.0036 14.9811 27.9638 13.5721 27.8779C12.2807 27.7994 11.1018 27.3529 10.1627 26.5873C9.25645 25.8486 8.6377 24.8494 8.32363 23.6186C8.0502 22.5467 8.03574 21.4948 8.02168 20.4773C8.01152 19.7472 8.00137 18.882 7.99902 18.0023C8.00098 17.1187 8.01152 16.2535 8.02168 15.5235C8.03574 14.5059 8.0502 13.454 8.32363 12.3821C8.6377 11.1509 9.25645 10.1521 10.1627 9.41346C11.1018 8.64707 12.2807 8.20099 13.5725 8.12209C14.9811 8.03654 16.4299 7.9967 18.001 8.00021C19.5689 7.9967 21.017 8.03654 22.426 8.12209C23.7174 8.2006 24.8963 8.64707 25.8354 9.41268C26.7416 10.1513 27.3604 11.1505 27.6744 12.3814C27.9479 13.4532 27.9623 14.5055 27.9764 15.5227C27.9865 16.2528 27.9971 17.118 27.999 17.9976V18.0011C27.9971 18.8808 27.9865 19.746 27.9764 20.4761C27.9623 21.4936 27.9482 22.5456 27.6744 23.6174C27.3604 24.8486 26.7416 25.8474 25.8354 26.5861C24.8963 27.3517 23.7174 27.7982 22.426 27.8767C21.0768 27.9587 19.6912 27.9986 18.1963 27.9986V27.9997ZM17.9971 26.4369C19.5393 26.4404 20.9553 26.4017 22.3311 26.3181C23.3076 26.2588 24.1545 25.942 24.8479 25.3764C25.4889 24.8533 25.9307 24.1319 26.1604 23.2323C26.3881 22.3401 26.401 21.3823 26.4139 20.4558C26.4236 19.7304 26.4342 18.8714 26.4361 18.0004C26.4342 17.1289 26.4236 16.2699 26.4139 15.545C26.4014 14.6188 26.3881 13.6606 26.1604 12.7685C25.9307 11.8685 25.4893 11.147 24.8479 10.6244C24.1541 10.0588 23.3076 9.74197 22.3311 9.6826C20.9557 9.599 19.5396 9.56033 18.001 9.56346C16.4592 9.55994 15.0428 9.59861 13.6674 9.6826C12.6908 9.74197 11.8439 10.0588 11.1506 10.6244C10.5096 11.1474 10.0678 11.8689 9.83809 12.7685C9.61035 13.6606 9.59746 14.6184 9.58457 15.545C9.5748 16.2707 9.56426 17.1305 9.5623 18.0023C9.56426 18.8707 9.5748 19.73 9.58457 20.4562C9.59707 21.3823 9.61035 22.3405 9.83809 23.2327C10.0678 24.1326 10.5092 24.8541 11.1506 25.3768C11.8443 25.9424 12.6908 26.2592 13.6674 26.3185C15.0428 26.4021 16.4596 26.4412 17.9975 26.4377L17.9971 26.4369ZM17.96 22.8827C15.2678 22.8827 13.0771 20.6925 13.0771 18C13.0771 15.3075 15.2678 13.1173 17.96 13.1173C20.6521 13.1173 22.8428 15.3075 22.8428 18C22.8428 20.6925 20.6525 22.8827 17.96 22.8827ZM17.96 14.6797C16.1291 14.6797 14.6396 16.1692 14.6396 18C14.6396 19.8308 16.1291 21.3202 17.96 21.3202C19.7908 21.3202 21.2803 19.8308 21.2803 18C21.2803 16.1692 19.7908 14.6797 17.96 14.6797ZM23.3896 11.5548C22.7424 11.5548 22.2178 12.0794 22.2178 12.7267C22.2178 13.3739 22.7424 13.8985 23.3896 13.8985C24.0369 13.8985 24.5615 13.3739 24.5615 12.7267C24.5615 12.0794 24.0369 11.5548 23.3896 11.5548Z" fill="#E9ECEF"/>
</svg>
