<svg width="72" height="72" viewBox="0 0 72 72" fill="none" xmlns="http://www.w3.org/2000/svg">
  <mask id="mask0_5574_86900" style="mask-type:alpha" maskUnits="userSpaceOnUse" x="0" y="0"
    width="72" height="72">
    <circle cx="36" cy="36" r="36" fill="#D9D9D9" />
  </mask>
  <g mask="url(#mask0_5574_86900)">
    <circle cx="36" cy="36" r="36" fill="#F8F9FA" />
    <path
      d="M48.9169 58.3132L2.88447 67.0182C-1.51029 67.8496 -5.78482 64.9334 -6.61363 60.5412L-20.6497 -13.6683C-22.1027 -19.9816 -18.8412 -23.4606 -14.4464 -24.2919L31.8622 -31.874C36.257 -32.7054 40.5315 -29.7892 41.3603 -25.397L56.522 48.4569C57.3534 52.8517 55.4016 56.8039 48.9169 58.3106V58.3132Z"
      fill="#5F3DC4" />
    <path
      d="M49.9465 56.8268L3.91408 65.5319C-0.480677 66.3633 -4.75521 63.4471 -5.58402 59.0549L-19.6201 -15.1546C-20.4515 -19.5494 -17.5353 -23.8239 -13.1431 -24.6527L32.8893 -33.3604C37.284 -34.1917 41.5586 -31.2755 42.3874 -26.8833L56.4209 47.3236C57.2523 51.7184 54.3361 55.9929 49.9439 56.8217L49.9465 56.8268Z"
      fill="#7048E8" />
    <path
      d="M52.4532 50.8722L43.9374 14.1896L43.9144 14.0744L38.9262 -24.2172C38.9185 -24.2837 38.8827 -24.3451 38.829 -24.3861C38.7753 -24.427 38.7088 -24.4449 38.6397 -24.4372L36.6777 -24.1814L36.4577 -25.3402C36.4321 -25.4784 36.2965 -25.5705 36.1584 -25.5449L34.7719 -25.284L34.6517 -25.8058C34.6363 -25.8723 34.5954 -25.9286 34.5391 -25.9644C34.4828 -26.0002 34.4138 -26.0104 34.3447 -25.9977L15.8985 -21.7155L11.867 -20.9531L-12.6649 -17.7581C-12.8056 -17.7402 -12.9028 -17.6123 -12.8849 -17.4716L-12.7314 -16.3026L-14.6755 -15.9342C-14.742 -15.9214 -14.8009 -15.8831 -14.8392 -15.8268C-14.8776 -15.7705 -14.893 -15.7014 -14.8802 -15.6349L-14.6883 -14.6168L-16.0518 -14.2996C-16.1183 -14.2843 -16.1745 -14.2433 -16.2104 -14.1845C-16.2462 -14.1257 -16.259 -14.0566 -16.2436 -13.9927L-7.56154 23.4063L-2.71912 60.5878C-2.70121 60.7285 -2.57075 60.8282 -2.43262 60.8078L-0.470579 60.5519L-0.250585 61.7107C-0.225004 61.8489 -0.0919857 61.941 0.048708 61.9154L1.32007 61.6749L1.55541 62.6854C1.58355 62.803 1.68843 62.8823 1.80354 62.8823C1.82401 62.8823 1.84191 62.8823 1.86238 62.8747L27.6579 56.8862L48.8745 54.1235C49.0152 54.1056 49.1124 53.9777 49.0945 53.837L48.941 52.6654L50.8851 52.2971C51.0233 52.2715 51.1154 52.1385 51.0898 51.9978L50.99 51.4708L52.2614 51.1766C52.3995 51.1459 52.4839 51.0078 52.4532 50.8697V50.8722Z"
      fill="#5F3DC4" />
    <path d="M39.0835 -25.6905L-12.2227 -19.0088L-2.05703 59.0489L49.2491 52.3671L39.0835 -25.6905Z"
      fill="#E8EDF0" />
    <path d="M34.8132 -27.2571L-15.5859 -15.5566L2.21518 61.121L52.6143 49.4205L34.8132 -27.2571Z"
      fill="#B7C5C9" />
    <path d="M36.6194 -26.8027L-14.2188 -17.1875L0.409833 60.1581L51.248 50.5429L36.6194 -26.8027Z"
      fill="white" />
    <path
      d="M1.14605 7.11836C3.28184 6.54408 4.54769 4.34714 3.97341 2.21136C3.39913 0.0755722 1.20218 -1.19028 -0.9336 -0.615998C-3.06939 -0.0417179 -4.33524 2.15522 -3.76096 4.29101C-3.18668 6.42679 -0.989733 7.69264 1.14605 7.11836Z"
      fill="#E8EDF0" />
    <path
      d="M34.0391 -2.35639L7.36017 2.68836C6.92899 2.76921 6.5086 2.48355 6.42775 2.05238C6.3469 1.6212 6.63256 1.2008 7.06373 1.11996L33.7427 -3.92479C34.1739 -4.00563 34.5943 -3.71998 34.6751 -3.28881C34.756 -2.85763 34.4703 -2.43723 34.0391 -2.35639Z"
      fill="#E8EDF0" />
    <path
      d="M32.1937 1.25494L6.64923 6.08679C6.21805 6.16764 5.79766 5.88199 5.71681 5.45081C5.63597 5.01964 5.92162 4.59924 6.3528 4.51839L31.8972 -0.313461C32.3284 -0.394306 32.7488 -0.108653 32.8296 0.322522C32.9105 0.753697 32.6248 1.17409 32.1937 1.25494Z"
      fill="#E8EDF0" />
    <path
      d="M3.52105 19.6213C5.65684 19.047 6.92269 16.8501 6.34841 14.7143C5.77413 12.5785 3.57718 11.3127 1.4414 11.8869C-0.694385 12.4612 -1.96024 14.6582 -1.38596 16.7939C-0.811675 18.9297 1.38527 20.1956 3.52105 19.6213Z"
      fill="#E8EDF0" />
    <path
      d="M36.4102 10.1524L9.73126 15.1971C9.30009 15.278 8.87969 14.9923 8.79884 14.5612C8.718 14.13 9.00365 13.7096 9.43483 13.6287L36.1138 8.584C36.545 8.50315 36.9654 8.78881 37.0462 9.21998C37.127 9.65116 36.8414 10.0716 36.4102 10.1524Z"
      fill="#E8EDF0" />
    <path
      d="M38.1109 6.56841L7.82892 12.295C7.39774 12.3758 6.97735 12.0901 6.8965 11.659C6.81565 11.2278 7.10131 10.8074 7.53248 10.7266L37.8144 5.00002C38.2456 4.91917 38.666 5.20482 38.7469 5.636C38.8277 6.06717 38.5421 6.48757 38.1109 6.56841Z"
      fill="#E8EDF0" />
    <path
      d="M34.5648 13.7667L9.02032 18.5985C8.58915 18.6794 8.16875 18.3937 8.08791 17.9625C8.00706 17.5314 8.29271 17.111 8.72389 17.0301L34.2683 12.1983C34.6995 12.1174 35.1199 12.4031 35.2007 12.8342C35.2816 13.2654 34.9959 13.6858 34.5648 13.7667Z"
      fill="#E8EDF0" />
    <path
      d="M5.52417 32.2155C7.70354 31.839 9.16511 29.7671 8.78866 27.5878C8.41222 25.4084 6.34032 23.9468 4.16095 24.3233C1.98157 24.6997 0.520011 26.7716 0.896454 28.951C1.2729 31.1304 3.3448 32.5919 5.52417 32.2155Z"
      fill="#E8EDF0" />
    <path
      d="M38.7774 22.6651L12.0984 27.7098C11.6673 27.7907 11.2469 27.505 11.166 27.0739C11.0852 26.6427 11.3708 26.2223 11.802 26.1414L38.481 21.0967C38.9121 21.0158 39.3325 21.3015 39.4134 21.7327C39.4942 22.1639 39.2086 22.5843 38.7774 22.6651Z"
      fill="#E8EDF0" />
    <path
      d="M40.4781 19.0782L10.1961 24.8047C9.76493 24.8856 9.34453 24.5999 9.26369 24.1687C9.18284 23.7376 9.4685 23.3172 9.89967 23.2363L40.1816 17.5098C40.6128 17.4289 41.0332 17.7146 41.1141 18.1458C41.1949 18.5769 40.9092 18.9973 40.4781 19.0782Z"
      fill="#E8EDF0" />
    <path
      d="M7.86306 44.7299C10.0451 44.369 11.5214 42.3076 11.1606 40.1256C10.7997 37.9436 8.73836 36.4673 6.55635 36.8281C4.37434 37.1889 2.89799 39.2503 3.25882 41.4323C3.61966 43.6143 5.68105 45.0907 7.86306 44.7299Z"
      fill="#E8EDF0" />
    <path
      d="M37.1565 35.9258L14.4578 40.2187C14.0266 40.2996 13.6063 40.0139 13.5254 39.5827C13.4446 39.1516 13.7302 38.7312 14.1614 38.6503L36.8601 34.3574C37.2912 34.2766 37.7116 34.5622 37.7925 34.9934C37.8733 35.4246 37.5877 35.845 37.1565 35.9258Z"
      fill="#E8EDF0" />
    <path
      d="M38.8623 32.3419L12.5633 37.3165C12.1321 37.3974 11.7117 37.1117 11.6309 36.6806C11.55 36.2494 11.8357 35.829 12.2669 35.7481L38.5658 30.7735C38.997 30.6926 39.4174 30.9783 39.4983 31.4094C39.5791 31.8406 39.2934 32.261 38.8623 32.3419Z"
      fill="#E8EDF0" />
    <path
      d="M17.0873 51.8739C16.9522 51.8739 16.8315 51.7852 16.8057 51.6563C16.7769 51.5113 16.8775 51.369 17.0356 51.3421L44.5396 46.4811C44.6948 46.4543 44.8471 46.5483 44.8759 46.696C44.9046 46.841 44.804 46.9833 44.646 47.0102L17.1419 51.8712C17.1247 51.8739 17.1074 51.8766 17.0873 51.8766V51.8739Z"
      fill="#9775FA" />
    <path
      d="M16.4287 49.3329C16.7331 49.2715 17.0068 49.1973 17.3112 49.0694L17.4263 49.3815C17.0477 49.5426 16.7101 49.6194 16.3187 49.6936L16.1089 49.7319L15.7227 47.6932L16.1038 47.6215L16.4261 49.3303L16.4287 49.3329ZM18.1093 49.9903L17.7486 50.0594L17.4366 48.4145L16.7868 48.5373L16.728 48.2278L17.3777 48.105L17.1987 47.1662L17.5593 47.0971L18.1068 49.9903H18.1093ZM18.8026 50.0108L18.4393 50.0798L17.851 46.9743L18.2142 46.9053L18.8026 50.0108Z"
      fill="#9775FA" />
    <path
      d="M21.2229 46.9405C21.292 47.3268 21.3739 47.7591 21.3764 48.4319L20.9825 48.4626C20.9876 47.8358 20.9057 47.3933 20.8392 47.0198L18.9846 47.3703L18.9258 47.0633L21.1666 46.6387L21.2229 46.938V46.9405ZM21.9187 49.0049L19.0869 49.5395L19.0281 49.2274L20.0718 49.0305L19.8672 47.951L20.2457 47.8793L20.4504 48.9588L21.8599 48.6928L21.9187 49.0049Z"
      fill="#9775FA" />
    <path
      d="M23.9926 47.9899L23.8238 48.3378C23.4349 48.2406 23.1101 47.9592 22.8901 47.5806C22.8312 48.0462 22.6317 48.4529 22.2864 48.7011L21.9922 48.4248C22.468 48.1025 22.6598 47.4527 22.5447 46.8541L22.4501 46.3604L22.8389 46.2863L22.9336 46.78C23.0384 47.3504 23.4452 47.8646 23.99 47.9848L23.9926 47.9899ZM24.7907 48.8827L24.407 48.9543L23.8186 45.8437L24.2049 45.7695L24.7933 48.8801L24.7907 48.8827Z"
      fill="#9775FA" />
    <path
      d="M27.4219 46.2137C27.5089 46.6793 27.1687 47.0655 26.611 47.2292L26.7185 47.7997L27.9566 47.5669L28.0154 47.879L25.176 48.4162L25.1171 48.1041L26.3399 47.8739L26.2324 47.3034C25.6569 47.3546 25.1964 47.1193 25.112 46.6537C25.0122 46.1497 25.442 45.7225 26.1045 45.5972C26.7722 45.4719 27.3247 45.7123 27.4219 46.2163V46.2137ZM25.488 46.5795C25.5469 46.9172 25.9127 47.0553 26.3655 46.9683C26.8259 46.8814 27.1124 46.6204 27.0485 46.2853C26.9871 45.9579 26.6238 45.8146 26.1659 45.9042C25.7106 45.986 25.4241 46.2546 25.4906 46.5795H25.488Z"
      fill="#9775FA" />
    <path
      d="M30.6993 46.1378L30.5638 46.4806C30.1929 46.4269 29.9038 46.2376 29.7119 45.969C29.6377 46.322 29.4254 46.6315 29.0852 46.8285L28.832 46.5573C29.295 46.3015 29.4843 45.8436 29.405 45.4318L29.3896 45.3499L28.7424 45.4727L28.6836 45.1632L30.3617 44.846L30.4205 45.1555L29.7784 45.2783L29.7938 45.3653C29.8654 45.7388 30.1877 46.0764 30.6993 46.1455V46.1378ZM31.7916 47.491L29.6761 47.8927L29.4919 46.9206L29.8731 46.849L29.9984 47.5115L31.7328 47.1841L31.7916 47.4936V47.491ZM31.5665 46.7338L31.1854 46.8055L30.9705 45.6671L30.4205 45.772L30.3617 45.4625L30.9117 45.3576L30.7556 44.5365L31.1368 44.4648L31.5665 46.7338Z"
      fill="#9775FA" />
    <path
      d="M33.1837 44.5996L32.181 44.7889L32.3319 45.5819C32.9151 45.4719 33.2374 45.3875 33.593 45.2443L33.6902 45.5384C33.3014 45.7047 32.9407 45.7866 32.2628 45.9145L32.0121 45.9631L31.7461 44.551L33.1274 44.2901L33.1863 44.5996H33.1837ZM34.606 46.9786L32.6005 47.3572L32.3779 46.1831L34.386 45.8045L34.6086 46.9786H34.606ZM32.9202 46.9837L34.1711 46.7484L34.0637 46.1805L32.8128 46.4159L32.9202 46.9837ZM34.1635 44.6354L34.5958 44.5536L34.6546 44.8708L34.2223 44.9526L34.3579 45.6638L33.9767 45.7354L33.6467 43.9857L34.0279 43.9141L34.1635 44.6354Z"
      fill="#9775FA" />
    <path
      d="M36.371 45.8591L35.1508 46.0893L34.7773 44.1196L35.9975 43.8894L36.371 45.8591ZM35.4501 45.7209L35.9541 45.6263L35.6957 44.2628L35.1917 44.3575L35.4501 45.7209ZM37.8854 46.404L37.517 46.473L37.2152 44.8819L36.8852 44.9433L37.1563 46.3835L36.7957 46.4526L36.2482 43.5517L36.6089 43.4826L36.8264 44.6261L37.1563 44.5647L36.9287 43.365L37.297 43.2959L37.8854 46.4014V46.404Z"
      fill="#9775FA" />
    <path
      d="M38.5954 45.1224C39.0303 45.0329 39.4856 44.905 39.9461 44.7208L40.0561 45.0303C39.5317 45.2477 39.0278 45.3782 38.5468 45.4677L38.2782 45.5189L37.8945 43.4955L38.2731 43.4238L38.5954 45.1224ZM40.8389 45.8438L40.4603 45.9154L39.8719 42.8099L40.2505 42.7383L40.8389 45.8438Z"
      fill="#9775FA" />
    <path
      d="M43.0386 44.4339L42.8697 44.7818C42.4758 44.6769 42.1535 44.3802 41.9412 43.9965C41.8849 44.462 41.693 44.879 41.3656 45.1297L41.0791 44.8739C41.5344 44.5465 41.7135 43.8993 41.6086 43.3314L41.5702 43.1242L40.9026 43.2495L40.8438 42.9374L42.5653 42.6126L42.6242 42.9246L41.9565 43.05L41.9949 43.2572C42.0972 43.7944 42.4937 44.3086 43.036 44.4313L43.0386 44.4339ZM43.893 45.2678L43.5118 45.3395L43.1895 43.6409L42.5909 43.7535L42.5321 43.4414L43.1307 43.3288L42.9235 42.2289L43.3046 42.1572L43.893 45.2678Z"
      fill="#9775FA" />
    <path
      d="M-0.2133 7.05727C-0.315622 7.05727 -0.415386 7.02657 -0.50236 6.96773L-2.82764 5.37918C-3.06043 5.22058 -3.12182 4.90082 -2.96066 4.66803C-2.80206 4.43525 -2.4823 4.37641 -2.24952 4.53501L-0.387248 5.80893L1.33433 2.7239C1.47247 2.47833 1.78455 2.3888 2.03012 2.52693C2.2757 2.66507 2.36523 2.97715 2.2271 3.22273L0.231803 6.79634C0.162736 6.92169 0.0425065 7.01122 -0.0981872 7.04448C-0.136558 7.05471 -0.177487 7.05727 -0.215858 7.05727H-0.2133Z"
      fill="#7048E8" />
    <path
      d="M2.38734 18.1969C2.28392 18.1969 2.18309 18.1681 2.09519 18.1128L-0.254946 16.6196C-0.490217 16.4705 -0.552266 16.1699 -0.389386 15.9511C-0.229091 15.7323 0.0940842 15.6746 0.329356 15.8261L2.21153 17.0235L3.95151 14.1237C4.09112 13.8905 4.40654 13.8087 4.65474 13.9386C4.90294 14.0684 4.99342 14.3618 4.85381 14.5926L2.8372 17.9517C2.76739 18.0695 2.64588 18.1537 2.50368 18.1849C2.4649 18.1945 2.42353 18.1969 2.38475 18.1969H2.38734Z"
      fill="#7048E8" />
    <path
      d="M4.54749 30.277C4.44408 30.277 4.34325 30.2482 4.25534 30.1929L1.90521 28.6997C1.66994 28.5506 1.60789 28.25 1.77077 28.0312C1.93107 27.8124 2.25424 27.7547 2.48951 27.9062L4.37169 29.1036L6.11166 26.2038C6.25127 25.9706 6.56669 25.8888 6.81489 26.0186C7.06309 26.1485 7.15358 26.4418 7.01397 26.6727L4.99735 30.0318C4.92755 30.1496 4.80603 30.2337 4.66384 30.265C4.62506 30.2746 4.58369 30.277 4.54491 30.277H4.54749Z"
      fill="#7048E8" />
    <path
      d="M7.78577 43.0368C7.68236 43.0368 7.58153 43.0079 7.49362 42.9526L5.14349 41.4593C4.90822 41.3102 4.84617 41.0096 5.00905 40.7907C5.16935 40.5719 5.49252 40.5166 5.72779 40.6657L7.60997 41.8633L9.34994 38.9631C9.48956 38.7322 9.80498 38.6481 10.0532 38.7779C10.3014 38.9078 10.3919 39.2012 10.2522 39.432L8.23564 42.7915C8.16583 42.9093 8.04432 42.9935 7.90212 43.0248C7.86334 43.0344 7.82456 43.0368 7.78319 43.0368H7.78577Z"
      fill="#7048E8" />
    <path
      d="M65.5862 29.0929L61.987 43.679C61.5265 45.1806 59.9814 46.035 58.5413 45.6103C57.1011 45.1857 56.2313 43.6227 56.6202 42.1007L59.3956 27.2741C59.9277 25.1867 61.8079 23.8514 63.5602 24.3682C65.3125 24.8823 66.2155 27.0388 65.5862 29.0955V29.0929Z"
      fill="#E8AC8E" />
    <path
      d="M69.5607 30.2921L65.9206 43.8192C65.4601 45.3208 63.915 46.1752 62.4749 45.7505C61.0347 45.3259 60.1649 43.7629 60.5537 42.2408L63.3727 28.4733C63.9048 26.386 65.785 25.0506 67.5373 25.5674C69.2895 26.0815 70.1925 28.238 69.5633 30.2947L69.5607 30.2921Z"
      fill="#DEA487" />
    <path
      d="M61.1541 29.0464L54.8715 42.4558C54.2089 43.7886 52.6383 44.3488 51.3618 43.74C50.0853 43.1311 49.4995 41.5426 50.0802 40.1689L55.3805 26.2888C56.258 24.2143 58.353 23.0964 60.0055 23.8843C61.658 24.6721 62.1569 27.0307 61.1567 29.0464H61.1541Z"
      fill="#F6B596" />
    <path
      d="M57.8595 28.0613L49.0803 38.3524C48.0212 39.6596 46.1641 39.8949 44.9106 38.9331C43.6572 37.9712 43.3732 36.0911 44.3197 34.6969L51.9888 23.554C53.5083 21.3182 56.2198 20.4536 57.9286 21.7659C59.6348 23.0756 59.5607 25.9637 57.8595 28.0613Z"
      fill="#FFD6BC" />
    <path
      d="M53.2595 30.6655L53.5716 30.1283C53.7225 29.8674 53.6943 29.5783 53.5409 29.4427L54.4183 27.7851C54.4694 27.8337 54.5257 27.8797 54.5922 27.9155C54.9785 28.1202 55.462 27.9718 55.6666 27.5856L58.4651 22.3083C58.3117 22.1087 58.1326 21.9271 57.9254 21.7685C56.4878 20.666 54.3415 21.106 52.7914 22.605L50.1258 27.6342C49.9263 27.583 49.6705 27.7237 49.54 27.9923L49.0642 28.9771C48.6857 29.0564 48.3173 29.192 47.9745 29.3864L46.1199 32.0826C45.9946 32.8628 46.1071 33.6737 46.4499 34.3951L44.4648 38.5059C44.5953 38.662 44.7437 38.8078 44.91 38.9331C45.9485 39.7312 47.3989 39.7031 48.4682 38.928L49.3661 37.3804L49.6756 37.6541L54.6127 31.8652L53.2569 30.668L53.2595 30.6655Z"
      fill="#FDC7AE" />
    <path
      d="M65.4705 30.2309L55.5554 29.0849C53.4245 28.8828 51.836 26.9489 52.0227 24.7899C52.2095 22.6309 54.105 21.027 56.2359 21.2291L66.1509 22.3751C68.2818 22.5772 69.8704 24.5111 69.6836 26.6701C69.4969 28.8291 67.6014 30.433 65.4705 30.2309Z"
      fill="#FFD6BC" />
    <path
      d="M51.0291 31.3334C50.0903 30.8345 49.7296 29.6604 50.2284 28.7216L60.9826 8.44123C61.4814 7.50242 62.6555 7.14173 63.5943 7.64056C64.5332 8.13938 64.8938 9.31353 64.395 10.2523L53.6409 30.5327C53.1421 31.4715 51.9679 31.8322 51.0291 31.3334Z"
      fill="#5F3DC4" />
    <path
      d="M62.389 14.0276L64.085 10.83C64.7527 9.57399 64.5301 8.13636 63.5913 7.64009C62.6525 7.14127 61.3402 7.76288 60.6726 9.02145L58.9766 12.219L62.389 14.0276Z"
      fill="#4C6EF5" />
    <path
      d="M62.389 14.0276L64.085 10.83C64.7527 9.57399 64.5301 8.13636 63.5913 7.64009C62.6525 7.14127 61.3402 7.76288 60.6726 9.02145L58.9766 12.219L62.389 14.0276Z"
      fill="#7950F2" />
    <path
      d="M43.6864 45.1825C43.5022 45.0853 43.4306 44.8525 43.5278 44.6657L44.2978 43.2128C44.395 43.0286 44.6278 42.957 44.8145 43.0542C44.9987 43.1514 45.0703 43.3842 44.9731 43.5709L44.2031 45.0239C44.1059 45.2081 43.8731 45.2797 43.6864 45.1825Z"
      fill="#5F3DC4" />
    <path
      d="M44.3772 44.4514L43.8989 44.1982C43.7147 44.101 43.7096 43.7275 43.8912 43.3566L45.3416 40.3944C45.5974 39.87 46.0067 39.522 46.2369 39.6448L46.8406 39.9646C47.0709 40.0874 47.012 40.6195 46.7204 41.126L45.0807 43.9884C44.8735 44.3491 44.564 44.5512 44.3798 44.454L44.3772 44.4514Z"
      fill="#5F3DC4" />
    <path
      d="M45.1747 43.3742L44.3459 42.9342C44.0287 42.7654 43.9417 42.2666 44.1592 41.8061L45.8884 38.1455C46.1954 37.4983 46.7812 37.1172 47.1802 37.3295L48.2239 37.882C48.623 38.0944 48.6358 38.7927 48.2725 39.4092L46.2133 42.8933C45.9549 43.3307 45.4919 43.5379 45.1747 43.3717V43.3742Z"
      fill="#4C6EF5" />
    <path
      d="M45.1747 43.3742L44.3459 42.9342C44.0287 42.7654 43.9417 42.2666 44.1592 41.8061L45.8884 38.1455C46.1954 37.4983 46.7812 37.1172 47.1802 37.3295L48.2239 37.882C48.623 38.0944 48.6358 38.7927 48.2725 39.4092L46.2133 42.8933C45.9549 43.3307 45.4919 43.5379 45.1747 43.3717V43.3742Z"
      fill="#7950F2" />
    <path
      d="M45.8319 41.133C45.3817 40.8951 45.0875 40.4372 44.911 40.0611C44.755 39.7286 44.778 39.2784 44.975 38.8716L50.306 27.8285C50.4799 27.4703 50.8713 27.3399 51.0632 27.5803C51.3471 27.9333 51.7973 28.3887 52.4138 28.7161C53.0329 29.0435 53.6596 29.1612 54.1124 29.197C54.4193 29.2226 54.5319 29.6191 54.3324 29.9619L48.1828 40.5702C47.9551 40.9616 47.597 41.2327 47.2337 41.289C46.8244 41.353 46.2796 41.3657 45.8294 41.1278L45.8319 41.133Z"
      fill="#9775FA" />
    <path
      d="M62.3559 12.7536L60.0485 11.5299C59.573 11.2777 58.983 11.4587 58.7308 11.9343L57.6749 13.9252C57.4227 14.4008 57.6037 14.9907 58.0793 15.2429L60.3866 16.4667C60.8621 16.7189 61.4521 16.5378 61.7043 16.0623L62.7602 14.0713C63.0124 13.5958 62.8314 13.0058 62.3559 12.7536Z"
      fill="#9775FA" />
    <path
      d="M55.3126 26.1409C54.9878 25.967 54.8624 25.5602 55.0338 25.2328L55.2461 24.8312C55.4201 24.5063 55.8268 24.381 56.1542 24.5524C56.4791 24.7263 56.6045 25.133 56.4331 25.4605L56.2207 25.8621C56.0468 26.187 55.6401 26.3123 55.3126 26.1409Z"
      fill="#6741D9" />
    <path
      d="M55.3556 27.7545C54.9693 27.5499 54.8209 27.0664 55.0256 26.6801L61.6152 14.253C61.8198 13.8668 62.3033 13.7184 62.6896 13.9231C63.0758 14.1277 63.2242 14.6112 63.0195 14.9974L56.43 27.4245C56.2253 27.8108 55.7419 27.9592 55.3556 27.7545Z"
      fill="#4C6EF5" />
    <path
      d="M55.3556 27.7545C54.9693 27.5499 54.8209 27.0664 55.0256 26.6801L61.6152 14.253C61.8198 13.8668 62.3033 13.7184 62.6896 13.9231C63.0758 14.1277 63.2242 14.6112 63.0195 14.9974L56.43 27.4245C56.2253 27.8108 55.7419 27.9592 55.3556 27.7545Z"
      fill="#7950F2" />
    <path
      d="M63.592 7.64007C63.0343 7.34333 62.3437 7.44565 61.7348 7.84215C61.6734 8.6198 61.9548 9.32072 62.5381 9.63024C63.1213 9.93977 63.858 9.78117 64.4694 9.29258C64.4541 8.56608 64.1522 7.9368 63.5946 7.64262L63.592 7.64007Z"
      fill="#9775FA" />
    <path
      d="M63.0669 43.5684C61.706 45.1569 59.304 45.3207 57.7308 43.9316L48.1355 35.4593C46.5623 34.0703 46.3883 31.6324 47.7492 30.0413C49.1101 28.4528 51.5121 28.289 53.0853 29.6781L62.6806 38.1504C64.2538 39.5394 64.4278 41.9773 63.0669 43.5684Z"
      fill="#FFD6BC" />
    <path
      d="M52.9973 34.1426L51.9996 35.3091C51.2603 36.1737 49.9557 36.2607 49.0988 35.5061L48.5386 35.0124C47.3644 33.9764 47.2365 32.1601 48.2495 30.9757C49.2651 29.7914 51.0531 29.6686 52.2273 30.7046L52.7875 31.1983C53.6419 31.9529 53.7391 33.278 52.9973 34.1426Z"
      fill="#FFE2D4" />
    <path
      d="M53.4582 33.1621C52.7112 33.1928 51.9822 33.5202 51.4578 34.1316C50.9999 34.6663 50.7773 35.3314 50.7773 35.9939C51.2352 35.9197 51.6727 35.6895 51.9975 35.3109L52.9952 34.1444C53.2408 33.8553 53.3942 33.5177 53.4582 33.1647V33.1621Z"
      fill="#FFECDF" />
    <path d="M67.9766 46.9815L78.3418 55.7019L86.0749 44.4362L75.244 34.7539L67.9766 46.9815Z"
      fill="#FFD0B2" />
    <path
      d="M58.4732 34.4388C58.4732 34.4388 64.4693 39.7749 66.8893 35.4109C69.2094 31.2259 63.8145 30.0415 63.8145 30.0415L65.5182 22.3033C65.5182 22.3033 71.0717 21.9401 74.3384 26.6648C77.605 31.3896 83.2788 41.3098 79.8638 45.9578C76.4488 50.6058 67.4086 54.7166 57.1328 43.4023L58.4758 34.4388H58.4732Z"
      fill="#FFD6BC" />
  </g>
</svg>