<svg width="72" height="72" viewBox="0 0 72 72" fill="none" xmlns="http://www.w3.org/2000/svg">
  <mask id="mask0_5574_86888" style="mask-type:alpha" maskUnits="userSpaceOnUse" x="0" y="0"
    width="72" height="72">
    <circle cx="36" cy="36" r="36" fill="#D9D9D9" />
  </mask>
  <g mask="url(#mask0_5574_86888)">
    <circle cx="36" cy="36" r="36" fill="#F8F9FA" />
    <path
      d="M54.8547 47.6817C53.6262 47.5719 51.0464 47.5301 47.8837 48.5573C43.435 50.0001 35.2095 48.9075 35.2095 48.9075C35.2095 48.9075 29.0566 46.9341 26.4114 46.6518C23.7637 46.3696 20.8101 48.3038 22.7678 49.365C24.7229 50.4262 35.2983 54.3547 36.5948 54.6526C37.8912 54.9506 44.2113 55.0787 46.6056 54.9924C48.877 54.9114 51.9037 55.8001 53.3805 56.1582L54.8573 47.6843L54.8547 47.6817Z"
      fill="#D6A17A" />
    <path
      d="M50.5921 47.9144C49.2826 47.8961 46.5434 48.0607 43.2683 49.4277C38.6602 51.3515 29.8596 50.834 29.8596 50.834C29.8596 50.834 23.1918 49.1951 20.3637 49.1036C17.5382 49.0121 14.5506 51.3489 16.7044 52.3395C18.8555 53.3301 30.3588 56.7307 31.7546 56.9476C33.1503 57.1645 39.8599 56.7908 42.3901 56.5033C44.7921 56.2314 48.0646 56.9502 49.659 57.2168L50.5921 47.9144Z"
      fill="#E3AB80" />
    <path d="M22.5525 21.8398H18.8281V23.312H22.5525V21.8398Z" fill="#7048E8" />
    <path d="M22.5525 23.3125H18.8281V32.0175H22.5525V23.3125Z" fill="#D8EFFC" />
    <path
      d="M37.9586 34.9802L32.4888 28.5892L27.0455 22.207L21.6065 28.5892L16.1367 34.9802V51.7113H37.9586V34.9802Z"
      fill="#F3F0FF" />
    <path d="M56.8209 51.7119H37.9609V52.7257H56.8209V51.7119Z" fill="#ACB9BC" />
    <path d="M56.8209 34.9844H37.9609V51.7111H56.8209V34.9844Z" fill="#E5DBFF" />
    <path d="M27.1016 20.1826H48.324L60.0217 35.3799H38.9712L27.1016 20.1826Z" fill="#7048E8" />
    <path
      d="M27.1302 20.1699L14 35.451H16.2919L27.0376 22.8497L37.7568 35.4069L40.2207 35.3849L27.1302 20.1699Z"
      fill="#5F3DC4" />
    <path d="M19.2352 51.71H16.1367V52.7237H19.2352V51.71Z" fill="#8C9A9F" />
    <path d="M37.9623 51.71H25.793V52.7237H37.9623V51.71Z" fill="#8C9A9F" />
    <path d="M25.7884 39.999H19.2344V51.7144H25.7884V39.999Z" fill="#7048E8" />
    <path d="M25.7884 51.71H19.2344V52.7237H25.7884V51.71Z" fill="#6741D9" />
    <path d="M25.3323 40.3926H19.6289V51.7112H25.3323V40.3926Z" fill="#B197FC" />
    <path d="M25.5164 44.9355H19.3281V46.7955H25.5164V44.9355Z" fill="#9775FA" />
    <path
      d="M25.1554 45.9937C25.1554 46.1921 24.9968 46.3507 24.7984 46.3507C24.6001 46.3507 24.4414 46.1921 24.4414 45.9937C24.4414 45.7954 24.6001 45.6367 24.7984 45.6367C24.9968 45.6367 25.1554 45.7954 25.1554 45.9937Z"
      fill="#5F3DC4" />
    <path d="M34.854 40H30.4023V45.5624H34.854V40Z" fill="#B197FC" />
    <path d="M35.3024 44.7461H29.9648V45.5395H35.3024V44.7461Z" fill="#6741D9" />
    <path d="M34.4232 40.3652H30.8398V44.7155H34.4232V40.3652Z" fill="#A3DDF2" />
    <path d="M45.5142 39.9736H41.0625V45.536H45.5142V39.9736Z" fill="#B197FC" />
    <path d="M45.9587 44.7207H40.6211V45.5141H45.9587V44.7207Z" fill="#6741D9" />
    <path d="M45.0834 40.3438H41.5V44.694H45.0834V40.3438Z" fill="#A3DDF2" />
    <path d="M54.4282 39.9736H49.9766V45.536H54.4282V39.9736Z" fill="#B197FC" />
    <path d="M54.8688 44.7207H49.5312V45.5141H54.8688V44.7207Z" fill="#6741D9" />
    <path d="M53.9974 40.3447H50.4141V44.695H53.9974V40.3447Z" fill="#A3DDF2" />
    <path
      d="M72.0006 43.4925L61.2945 45.0686C61.2945 45.0686 54.4072 42 52.2508 42C50.0944 42 36.3172 44.24 33.8288 44.8203C31.3405 45.4005 31.6646 49.8074 34.8247 49.8832C38.3089 49.9668 47.0807 49.6506 47.0807 49.6506L51.4196 52.2905L71.5014 57.1025L71.998 43.4925H72.0006Z"
      fill="#F8BF98" />
    <path
      d="M71.501 57.1023L62.8702 56.1901C62.8702 56.1901 49.8431 58.7202 48.348 58.6366C46.8555 58.5529 43.2851 58.0563 40.7968 58.6366C38.3085 59.2168 31.6694 60.3382 30.258 60.2545C28.8465 60.1709 17.0636 57.7636 14.8236 56.935C12.5836 56.1064 15.3228 53.2809 18.1431 53.0744C20.966 52.8679 27.7618 53.9082 27.7618 53.9082C27.7618 53.9082 36.5703 53.5162 40.9615 50.9599C45.3526 48.4036 48.9283 48.5108 48.9283 48.5108L71.3337 47.2666L71.501 57.1023Z"
      fill="#F8BF98" />
    <circle cx="50" cy="20" r="8" fill="#14BC58" />
    <path d="M47 19.5L49.5 22L53.25 18.25" stroke="white" stroke-width="1.5" stroke-linejoin="round" />
  </g>
</svg>