<svg width="72" height="72" viewBox="0 0 72 72" fill="none" xmlns="http://www.w3.org/2000/svg">
<circle cx="36" cy="36" r="36" fill="#F8F9FA"/>
<mask id="mask0_5574_86883" style="mask-type:alpha" maskUnits="userSpaceOnUse" x="0" y="0" width="72" height="72">
<circle cx="36" cy="36" r="36" fill="#D9D9D9"/>
</mask>
<g mask="url(#mask0_5574_86883)">
<path d="M102 50.7441H-31V93.0617H102V50.7441Z" fill="#7F7F7F"/>
<path d="M-30.8945 48.7812V51.9373H19.4765L17.591 48.7812H-30.8945Z" fill="#ACADAD"/>
<path d="M17.5898 48.7822L19.4753 51.9383H53.9099L55.8394 48.7822H17.5898Z" fill="#B197FC"/>
<path d="M101.522 48.7822H55.8397L53.9102 51.9383H101.522V48.7822Z" fill="#ACADAD"/>
<path d="M4.3863 36.9446L0.777233 32.7296L-2.81418 28.5146L-6.40265 32.7296L-10.0117 36.9446V47.9865H4.3863V36.9446Z" fill="#CDD2D3"/>
<path d="M16.8317 47.9863H4.38672V48.654H16.8317V47.9863Z" fill="#ACB9BC"/>
<path d="M16.8317 36.9473H4.38672V47.9862H16.8317V36.9473Z" fill="#E0E2E2"/>
<path d="M-2.76953 27.1826H11.2343L18.9525 37.2098H5.06334L-2.76953 27.1826Z" fill="#CDD2D3"/>
<path d="M-2.75563 27.1709L-11.418 37.2539H-9.9061L-2.81446 28.9416L4.25954 37.2245L5.88612 37.2127L-2.75563 27.1709Z" fill="#7F7F7F"/>
<path d="M4.38541 47.9863H-3.64453V48.654H4.38541V47.9863Z" fill="#8C9A9F"/>
<path d="M2.34859 40.2568H-0.589844V43.9277H2.34859V40.2568Z" fill="#BBBEBF"/>
<path d="M2.63705 43.3896H-0.886719V43.9132H2.63705V43.3896Z" fill="#7F7F7F"/>
<path d="M2.06018 40.498H-0.304688V43.3688H2.06018V40.498Z" fill="#E0E2E2"/>
<path d="M9.37593 40.2393H6.4375V43.9101H9.37593V40.2393Z" fill="#BBBEBF"/>
<path d="M9.6683 43.3721H6.14453V43.8956H9.6683V43.3721Z" fill="#7F7F7F"/>
<path d="M9.08752 40.4834H6.72266V43.3542H9.08752V40.4834Z" fill="#E0E2E2"/>
<path d="M15.2548 40.2393H12.3164V43.9101H15.2548V40.2393Z" fill="#BBBEBF"/>
<path d="M15.5472 43.3721H12.0234V43.8956H15.5472V43.3721Z" fill="#7F7F7F"/>
<path d="M14.9664 40.4834H12.6016V43.3542H14.9664V40.4834Z" fill="#E0E2E2"/>
<path d="M59.6631 28.4355H57.207V29.4062H59.6631V28.4355Z" fill="#B5B4B4"/>
<path d="M59.6631 29.4062H57.207V35.1507H59.6631V29.4062Z" fill="#E0E2E2"/>
<path d="M69.8238 37.1048L66.2147 32.8898L62.6263 28.6748L59.0348 32.8898L55.4258 37.1048V48.1467H69.8238V37.1048Z" fill="#CDD2D3"/>
<path d="M82.2692 48.1465H69.8242V48.8142H82.2692V48.1465Z" fill="#ACB9BC"/>
<path d="M82.2692 37.1074H69.8242V48.1464H82.2692V37.1074Z" fill="#E0E2E2"/>
<path d="M62.668 27.3418H76.6718L84.39 37.3689H70.5008L62.668 27.3418Z" fill="#CDD2D3"/>
<path d="M62.6819 27.333L54.0195 37.416H55.5314L62.626 29.1008L69.697 37.3866L71.3236 37.3719L62.6819 27.333Z" fill="#7F7F7F"/>
<path d="M57.47 48.1455H55.4258V48.8132H57.47V48.1455Z" fill="#8C9A9F"/>
<path d="M69.8229 48.1455H61.793V48.8132H69.8229V48.1455Z" fill="#8C9A9F"/>
<path d="M61.7926 40.416H57.4688V48.1459H61.7926V40.416Z" fill="#BBBEBF"/>
<path d="M61.7926 48.1455H57.4688V48.8132H61.7926V48.1455Z" fill="#7F7F7F"/>
<path d="M61.4964 40.6748H57.7344V48.1429H61.4964V40.6748Z" fill="#E0E2E2"/>
<path d="M61.6217 43.6758H57.5391V44.9023H61.6217V43.6758Z" fill="#BBBEBF"/>
<path d="M61.3828 44.372C61.3828 44.5015 61.2769 44.6103 61.1445 44.6103C61.0121 44.6103 60.9062 44.5044 60.9062 44.372C60.9062 44.2397 61.0121 44.1338 61.1445 44.1338C61.2769 44.1338 61.3828 44.2397 61.3828 44.372Z" fill="#7F7F7F"/>
<path d="M67.7861 40.416H64.8477V44.0868H67.7861V40.416Z" fill="#BBBEBF"/>
<path d="M68.0745 43.5488H64.5508V44.0724H68.0745V43.5488Z" fill="#7F7F7F"/>
<path d="M67.4977 40.6602H65.1328V43.5309H67.4977V40.6602Z" fill="#E0E2E2"/>
<path d="M74.8134 40.4014H71.875V44.0722H74.8134V40.4014Z" fill="#BBBEBF"/>
<path d="M75.1058 43.5342H71.582V44.0577H75.1058V43.5342Z" fill="#7F7F7F"/>
<path d="M21.3228 10.091L18.5742 11.6895L23.4864 20.1362L26.235 18.5377L21.3228 10.091Z" fill="#575858"/>
<path d="M48.5245 59.2856C59.887 52.5969 63.6755 37.9636 56.9868 26.6011C50.2982 15.2356 35.6648 11.4471 24.3053 18.1358C12.9427 24.8245 9.15425 39.4607 15.8429 50.8203C22.5316 62.1799 37.1649 65.9713 48.5245 59.2856ZM19.3726 48.7437C13.834 39.3313 16.9695 27.207 26.3819 21.6684C35.7943 16.1298 47.9186 19.2653 53.4572 28.6777C58.9987 38.0901 55.8603 50.2114 46.4479 55.753C37.0326 61.2916 24.9112 58.1561 19.3726 48.7437Z" fill="#575858"/>
<path d="M16.4531 34.7512C18.5739 23.6799 29.304 16.4 40.3753 18.5178C51.4466 20.6385 58.7295 31.3686 56.6087 42.4399C54.488 53.5083 43.7579 60.7941 32.6866 58.6734C21.6152 56.5526 14.3324 45.8196 16.4531 34.7482V34.7512ZM55.6704 42.2605C57.6912 31.7069 50.7495 21.4738 40.1959 19.4561C29.6422 17.4353 19.4121 24.377 17.3914 34.9306C15.3707 45.4843 22.3123 55.7114 32.866 57.7321C43.4167 59.7528 53.6497 52.8141 55.6704 42.2605Z" fill="#09383C"/>
<g style="mix-blend-mode:multiply">
<path d="M45.9137 26.5604C40.8748 17.9973 29.8444 15.1447 21.2812 20.1835L39.5341 51.1928C48.0973 46.1513 50.9526 35.1236 45.911 26.5604H45.9137Z" fill="#DFF3F4"/>
</g>
<g style="mix-blend-mode:multiply">
<path d="M39.5342 51.1929L21.2813 20.1836C12.7182 25.2225 9.8629 36.2529 14.9045 44.816C19.9433 53.3792 30.9711 56.2318 39.5369 51.1929H39.5342Z" fill="#C8E8EA"/>
</g>
<path d="M26.7081 28.1396H24.2227V29.1221H26.7081V28.1396Z" fill="#7048E8"/>
<path d="M26.7081 29.1221H24.2227V34.9313H26.7081V29.1221Z" fill="#D8EFFC"/>
<path d="M36.9885 36.9079L33.3383 32.6429L29.7057 28.3838L26.076 32.6429L22.4258 36.9079V48.0733H36.9885V36.9079Z" fill="#F3F0FF"/>
<path d="M49.5744 48.0732H36.9883V48.7498H49.5744V48.0732Z" fill="#ACB9BC"/>
<path d="M49.5744 36.9111H36.9883V48.0736H49.5744V36.9111Z" fill="#E5DBFF"/>
<path d="M29.7422 27.0332H43.9049L51.7113 37.1751H37.6633L29.7422 27.0332Z" fill="#7048E8"/>
<path d="M29.7623 27.0244L21 37.2221H22.5295L29.7006 28.8128L36.854 37.1927L38.4982 37.178L29.7623 27.0244Z" fill="#5F3DC4"/>
<path d="M24.4936 48.0732H22.4258V48.7498H24.4936V48.0732Z" fill="#8C9A9F"/>
<path d="M36.9883 48.0732H28.8672V48.7498H36.9883V48.0732Z" fill="#8C9A9F"/>
<path d="M28.866 40.2578H24.4922V48.076H28.866V40.2578Z" fill="#7048E8"/>
<path d="M28.866 48.0732H24.4922V48.7498H28.866V48.0732Z" fill="#6741D9"/>
<path d="M28.5639 40.5195H24.7578V48.073H28.5639V40.5195Z" fill="#B197FC"/>
<path d="M28.6844 43.5518H24.5547V44.793H28.6844V43.5518Z" fill="#9775FA"/>
<path d="M28.4453 44.2578C28.4453 44.3901 28.3394 44.496 28.207 44.496C28.0746 44.496 27.9688 44.3901 27.9688 44.2578C27.9688 44.1254 28.0746 44.0195 28.207 44.0195C28.3394 44.0195 28.4453 44.1254 28.4453 44.2578Z" fill="#5F3DC4"/>
<path d="M34.9161 40.2578H31.9453V43.9698H34.9161V40.2578Z" fill="#B197FC"/>
<path d="M35.2183 43.4258H31.6562V43.9552H35.2183V43.4258Z" fill="#6741D9"/>
<path d="M34.6296 40.502H32.2383V43.4051H34.6296V40.502Z" fill="#A3DDF2"/>
<path d="M42.0255 40.2402H39.0547V43.9522H42.0255V40.2402Z" fill="#B197FC"/>
<path d="M42.3237 43.4082H38.7617V43.9377H42.3237V43.4082Z" fill="#6741D9"/>
<path d="M41.739 40.4873H39.3477V43.3904H41.739V40.4873Z" fill="#A3DDF2"/>
<path d="M47.9786 40.2402H45.0078V43.9522H47.9786V40.2402Z" fill="#B197FC"/>
<path d="M48.2729 43.4082H44.7109V43.9377H48.2729V43.4082Z" fill="#6741D9"/>
<path d="M47.6921 40.4873H45.3008V43.3904H47.6921V40.4873Z" fill="#A3DDF2"/>
<path d="M7.3301 -11.1074C9.36847 -12.2928 11.9098 -11.7281 13.004 -9.8456L22.9341 7.22613C24.0312 9.1086 23.2665 11.597 21.2281 12.7824C19.1897 13.9677 16.6484 13.403 15.5542 11.5176L5.6241 -5.55413C4.52991 -7.43661 5.29467 -9.92501 7.33304 -11.1104L7.3301 -11.1074Z" fill="#7048E8"/>
</g>
</svg>
