<svg width="72" height="72" viewBox="0 0 72 72" fill="none" xmlns="http://www.w3.org/2000/svg">
  <mask id="mask0_5574_86893" style="mask-type:alpha" maskUnits="userSpaceOnUse" x="0" y="0"
    width="72" height="72">
    <circle cx="36" cy="36" r="36" fill="#D9D9D9" />
  </mask>
  <g mask="url(#mask0_5574_86893)">
    <circle cx="36" cy="36" r="36" fill="#F8F9FA" />
    <path
      d="M85.2406 47.0771C85.1706 46.0977 84.3511 45.3281 83.3617 45.3281H72.4981C72.2583 45.3281 72.0684 45.518 72.0684 45.7579C72.0684 45.9977 72.2583 46.1876 72.4981 46.1876H73.1078C73.3076 46.1876 73.4676 46.3375 73.4875 46.5374L75.3464 72.9518C75.4364 74.261 74.407 75.3704 73.0978 75.3704H66.8615C66.4817 75.3704 66.1719 75.6802 66.1719 76.0599C66.1719 76.4397 66.4817 76.7495 66.8615 76.7495H85.3006C86.3899 76.7495 87.2494 75.8301 87.1794 74.7407L85.2306 47.0871L85.2406 47.0771Z"
      fill="#5144CA" />
    <path
      d="M100.495 63.8973H48.5659C46.3072 63.8973 44.6482 61.7986 45.1479 59.5999L53.503 23.4313C53.8728 21.8422 55.2819 20.7129 56.921 20.7129H108.85C111.109 20.7129 112.768 22.8116 112.268 25.0103L103.913 61.179C103.543 62.768 102.134 63.8973 100.495 63.8973Z"
      fill="#5144CA" />
    <path
      d="M98.4874 63.8973H46.5581C44.2994 63.8973 42.6404 61.7986 43.1401 59.5999L51.4952 23.4313C51.865 21.8422 53.2741 20.7129 54.9132 20.7129H106.842C109.101 20.7129 110.76 22.8116 110.26 25.0103L101.905 61.179C101.536 62.768 100.126 63.8973 98.4874 63.8973Z"
      fill="#000069" />
    <path
      d="M46.5565 62.1275C46.0268 62.1275 45.5371 61.8877 45.2073 61.4779C44.8775 61.0582 44.7576 60.5285 44.8775 60.0088L53.2325 23.8402C53.4124 23.0507 54.112 22.501 54.9215 22.501H106.851C107.381 22.501 107.87 22.7408 108.2 23.1506C108.53 23.5703 108.65 24.1 108.53 24.6197L100.175 60.7883C99.9949 61.5779 99.2953 62.1275 98.4858 62.1275H46.5565Z"
      fill="#E6EDFF" />
    <path
      d="M46.5565 62.1275C46.0268 62.1275 45.5371 61.8877 45.2073 61.4779C44.8775 61.0582 44.7576 60.5285 44.8775 60.0088L53.2325 23.8402C53.4124 23.0507 54.112 22.501 54.9215 22.501H106.851C107.381 22.501 107.87 22.7408 108.2 23.1506C108.53 23.5703 108.65 24.1 108.53 24.6197L100.175 60.7883C99.9949 61.5779 99.2953 62.1275 98.4858 62.1275H46.5565Z"
      fill="#E6EDFF" />
    <path
      d="M11.4307 39.2314C11.4307 39.2314 1.73646 41.1703 0.127413 50.2449C-1.61156 60.0491 5.10447 77.4688 5.10447 77.4688H17.5871L11.4307 39.2314Z"
      fill="#8D7BFF" />
    <path
      d="M19.6283 13.6865C19.6283 13.6865 18.7188 10.2885 20.4878 8.08984C20.4878 8.08984 19.4484 10.2386 20.4878 12.6272L19.6283 13.6865Z"
      fill="#000069" />
    <path
      d="M20.2266 12.6676C20.2266 12.6676 19.497 11.5383 17.5781 12.2478C17.5781 12.2478 19.1072 12.0679 19.527 12.9874L20.2266 12.6676Z"
      fill="#000069" />
    <path
      d="M18.9 27.2188C18.9 27.2188 17.7806 34.2446 14.9023 38.682C14.9023 38.682 24.8864 39.5714 26.6654 41.4203L26.9652 31.1364L18.91 27.2188H18.9Z"
      fill="#FFBBA4" />
    <path
      d="M34.7966 14.4963C35.3163 15.9754 37.0153 21.0824 36.5756 22.0418C36.1359 23.0012 36.7255 24.8501 37.0153 26.5491C37.3152 28.2481 36.0559 27.8084 35.906 28.6179C35.7561 29.4274 36.2758 34.3145 33.1676 35.6437C30.0595 36.973 25.8419 35.3439 22.8837 32.4656C19.9254 29.5773 16.0777 21.4421 21.9942 15.6756C27.9107 9.90897 34.7867 14.4963 34.7867 14.4963H34.7966Z"
      fill="#FFBBA4" />
    <path
      d="M26.6094 23.6307C26.6094 23.6307 27.3989 26.8488 29.6276 26.8288L27.279 22.1016L26.6094 23.6207V23.6307Z"
      fill="#FF9E7B" />
    <path
      d="M27.251 23.7106C27.251 23.7106 26.3315 29.907 20.9347 29.907C18.4961 29.907 17.3268 28.7077 16.2175 25.0099C15.298 21.9517 13.1193 19.2733 13.4091 16.8747C13.9288 12.5073 19.0158 12.0675 19.6355 12.5472C19.6355 12.5472 19.5955 8.40969 24.8524 7.19041C30.1093 5.97113 32.3579 11.0681 36.1657 9.47906C39.9734 7.89 40.0334 14.9158 35.2362 15.8053C30.4391 16.6948 34.2768 21.7518 30.469 22.6812C26.6613 23.6007 27.251 23.7206 27.251 23.7206V23.7106Z"
      fill="#000069" />
    <path
      d="M31.0822 23.2706C31.2721 25.1395 30.6125 26.7386 29.6131 26.8385C28.6137 26.9385 27.3944 25.3194 27.2045 23.4505C27.0146 21.5816 27.9441 20.1625 28.9335 20.0625C29.9329 19.9626 30.8924 21.4017 31.0722 23.2706H31.0822Z"
      fill="#FFBBA4" />
    <path
      d="M14.1289 38.1725L15.8179 35.554C16.2377 34.8944 16.9772 34.5146 17.7568 34.5446C18.7462 34.5846 20.2753 34.7245 22.2741 35.1343C25.3623 35.7739 27.0812 36.4635 27.9207 36.8732C28.3305 37.0731 28.6103 37.4629 28.6803 37.9126L29.4099 42.5999C29.4099 42.5999 27.1412 40.631 23.5233 39.5916C19.9155 38.5523 14.1289 38.1625 14.1289 38.1625V38.1725Z"
      fill="#9775FA" />
    <path
      d="M14.5085 37.6032C14.5085 37.6032 18.666 37.2034 22.7036 38.1829C26.7412 39.1623 34.6166 42.0806 36.5854 43.6596C38.5542 45.2387 36.5255 52.4344 37.3949 60.2698C38.2844 68.2551 43.3314 92.8905 39.9234 92.5007C39.9234 92.5007 34.9264 93.6001 23.5931 93.6001C12.2598 93.6001 6.83302 94.6894 7.22279 88.1733C7.61256 81.6671 0.296887 55.1728 1.57613 48.167C2.85537 41.1711 9.28157 39.4221 14.5085 37.5932V37.6032Z"
      fill="#D0BFFF" />
    <path
      d="M39.9128 92.5005C43.3208 92.8902 38.2738 68.2648 37.3843 60.2695C37.0545 57.3413 37.1345 54.5029 37.2644 52.0244H30.3984C30.3984 52.0244 32.4972 69.1243 34.9258 79.9179C36.165 85.4047 36.145 89.932 35.8252 93.0701C38.6136 92.7903 39.9228 92.5005 39.9228 92.5005H39.9128Z"
      fill="#B197FC" />
    <path
      d="M70.7773 70.9933L75.9243 72.3425L82.3405 69.9639L88.5168 71.1532L92.1547 75.8204C92.1547 75.8204 91.8349 76.9697 90.5756 76.2202C90.5756 76.2202 89.986 77.1296 88.8367 76.48C87.6873 75.8304 87.9272 74.3213 86.7379 74.1714C85.5486 74.0115 85.7485 76.7199 82.9002 76.7199H71.9367L70.7873 71.0033L70.7773 70.9933Z"
      fill="#FFBBA4" />
    <path
      d="M26.961 33.415L26.8711 35.214C26.8711 35.214 30.2091 36.913 32.8875 35.7736C32.8875 35.7736 28.9199 36.4932 26.961 33.425V33.415Z"
      fill="#FF9E7B" />
    <path
      d="M46.2123 62.1285C45.1729 61.8187 44.6732 60.8892 44.8831 60.0098L53.2381 23.8412C53.418 23.0516 54.1176 22.502 54.9271 22.502H107.206C108.256 22.8018 108.745 23.7412 108.545 24.6207L100.19 60.7893C100.01 61.5788 99.3109 62.1285 98.5013 62.1285H46.2223H46.2123Z"
      fill="#E6EDFF" />
    <path
      d="M59.8666 38.4928H57.2182C56.2088 38.4928 55.5792 37.6733 55.809 36.6639L56.4187 34.0154C56.6485 33.006 57.6579 32.1865 58.6674 32.1865H61.3158C62.3252 32.1865 62.9548 33.006 62.7249 34.0154L62.1153 36.6639C61.8854 37.6733 60.876 38.4928 59.8666 38.4928Z"
      fill="#B197FC" />
    <path
      d="M77.345 34.5942H66.2416C65.8118 34.5942 65.542 34.2444 65.6419 33.8147C65.7418 33.3849 66.1716 33.0352 66.6013 33.0352H77.7048C78.1345 33.0352 78.4044 33.3849 78.3044 33.8147C78.2045 34.2444 77.7747 34.5942 77.345 34.5942Z"
      fill="#D0D1F8" />
    <path
      d="M97.0444 37.6323H64.9134C64.8234 37.6323 64.7734 37.5624 64.7934 37.4724C64.8134 37.3825 64.9034 37.3125 64.9833 37.3125H97.1143C97.2043 37.3125 97.2542 37.3825 97.2342 37.4724C97.2143 37.5624 97.1243 37.6323 97.0444 37.6323Z"
      fill="#D0D1F8" />
    <path
      d="M57.7807 47.5074H55.1323C54.1229 47.5074 53.4932 46.6879 53.7231 45.6785L54.3327 43.0301C54.5626 42.0207 55.572 41.2012 56.5814 41.2012H59.2298C60.2393 41.2012 60.8689 42.0207 60.639 43.0301L60.0294 45.6785C59.7995 46.6879 58.7901 47.5074 57.7807 47.5074Z"
      fill="#7048E8" />
    <path
      d="M86.0926 43.6196H64.1556C63.7259 43.6196 63.456 43.2698 63.556 42.8401C63.6559 42.4103 64.0857 42.0605 64.5154 42.0605H86.4524C86.8822 42.0605 87.152 42.4103 87.0521 42.8401C86.9521 43.2698 86.5224 43.6196 86.0926 43.6196Z"
      fill="#D0D1F8" />
    <path
      d="M94.9662 46.6577H62.8352C62.7453 46.6577 62.6953 46.5877 62.7153 46.4978C62.7353 46.4078 62.8252 46.3379 62.9052 46.3379H95.0362C95.1261 46.3379 95.1761 46.4078 95.1561 46.4978C95.1361 46.5877 95.0462 46.6577 94.9662 46.6577Z"
      fill="#D0D1F8" />
    <path
      d="M55.7026 56.5319H53.0541C52.0447 56.5319 51.4151 55.7123 51.645 54.7029L52.2546 52.0545C52.4845 51.0451 53.4939 50.2256 54.5033 50.2256H57.1517C58.1611 50.2256 58.7908 51.0451 58.5609 52.0545L57.9512 54.7029C57.7214 55.7123 56.712 56.5319 55.7026 56.5319Z"
      fill="#B197FC" />
    <path
      d="M71.6518 52.644H62.0775C61.6477 52.644 61.3779 52.2942 61.4778 51.8645C61.5778 51.4348 62.0075 51.085 62.4373 51.085H72.0116C72.4414 51.085 72.7112 51.4348 72.6113 51.8645C72.5113 52.2942 72.0816 52.644 71.6518 52.644Z"
      fill="#D0D1F8" />
    <path
      d="M92.8803 55.6821H60.7493C60.6594 55.6821 60.6094 55.6122 60.6294 55.5222C60.6494 55.4323 60.7393 55.3623 60.8193 55.3623H92.9502C93.0402 55.3623 93.0902 55.4323 93.0702 55.5222C93.0502 55.6122 92.9602 55.6821 92.8803 55.6821Z"
      fill="#D0D1F8" />
    <path
      d="M80.8753 29.8576H58.2687C57.779 29.8576 57.4792 29.4678 57.5891 28.9781C57.699 28.4884 58.1887 28.0986 58.6784 28.0986H81.2851C81.7748 28.0986 82.0746 28.4884 81.9647 28.9781C81.8547 29.4678 81.365 29.8576 80.8753 29.8576Z"
      fill="#D0D1F8" />
    <path
      d="M60.1516 34.3254C60.0716 34.6852 59.7118 34.975 59.352 34.975C58.9922 34.975 58.7724 34.6852 58.8523 34.3254C58.9323 33.9656 59.2921 33.6758 59.6519 33.6758C60.0116 33.6758 60.2315 33.9656 60.1516 34.3254Z"
      fill="#E6EDFF" />
    <path
      d="M59.2612 35.3945C58.6815 35.3945 58.1019 35.7043 57.7121 36.1641C57.4023 36.5339 57.5622 37.0036 57.9919 37.0036H59.7809C60.2106 37.0036 60.5904 36.5239 60.4505 36.1641C60.2706 35.7043 59.8308 35.3945 59.2512 35.3945H59.2612Z"
      fill="#E6EDFF" />
    <path
      d="M58.0695 43.3498C57.9896 43.7096 57.6298 43.9994 57.27 43.9994C56.9102 43.9994 56.6903 43.7096 56.7703 43.3498C56.8503 42.99 57.21 42.7002 57.5698 42.7002C57.9296 42.7002 58.1495 42.99 58.0695 43.3498Z"
      fill="#E6EDFF" />
    <path
      d="M57.1713 44.4092C56.5917 44.4092 56.012 44.719 55.6222 45.1787C55.3124 45.5485 55.4723 46.0182 55.9021 46.0182H57.691C58.1208 46.0182 58.5006 45.5385 58.3606 45.1787C58.1807 44.719 57.741 44.4092 57.1613 44.4092H57.1713Z"
      fill="#E6EDFF" />
    <path
      d="M55.9797 52.3645C55.8997 52.7242 55.5399 53.0141 55.1802 53.0141C54.8204 53.0141 54.6005 52.7242 54.6805 52.3645C54.7604 52.0047 55.1202 51.7148 55.48 51.7148C55.8398 51.7148 56.0596 52.0047 55.9797 52.3645Z"
      fill="#E6EDFF" />
    <path
      d="M55.0893 53.4336C54.5096 53.4336 53.93 53.7434 53.5402 54.2031C53.2304 54.5729 53.3903 55.0426 53.8201 55.0426H55.609C56.0387 55.0426 56.4185 54.5629 56.2786 54.2031C56.0987 53.7434 55.659 53.4336 55.0793 53.4336H55.0893Z"
      fill="#E6EDFF" />
    <path
      d="M35.9849 43.2493C38.9931 44.9982 43.6004 51.1046 46.9584 55.2522C50.7062 59.8894 56.133 66.7853 56.4228 67.0851C56.7226 67.385 73.6826 71.2227 73.6826 71.2227C73.6826 71.2227 75.0618 73.3914 74.672 76.7394H50.6462C50.6462 76.7394 38.7133 68.1345 34.9355 64.2468C29.7586 58.92 27.7098 46.7872 35.9949 43.2393L35.9849 43.2493Z"
      fill="#9775FA" />
    <path
      d="M30.2001 22.9531C30.5898 21.7239 30.7997 20.3947 30.7997 18.9955C30.7997 13.2789 27.2418 8.56166 22.6445 7.87207"
      stroke="#E9ECEF" stroke-width="1.71" stroke-linecap="round" stroke-linejoin="round" />
    <path d="M29.7773 26.8809C29.7773 26.8809 30.6268 31.788 36.5633 32.4376" stroke="#5F3DC4"
      stroke-width="1.48" stroke-miterlimit="10" />
    <path
      d="M37.2407 32.5073C37.2107 33.047 36.6011 33.4367 35.8715 33.3968C35.1519 33.3568 34.5923 32.8771 34.6222 32.3474C34.6522 31.8077 35.2619 31.4179 35.9914 31.4579C36.711 31.4979 37.2707 31.9776 37.2407 32.5073Z"
      fill="#5F3DC4" />
    <path
      d="M30.6635 28.3794C32.6781 28.3794 34.3113 26.1556 34.3113 23.4124C34.3113 20.6691 32.6781 18.4453 30.6635 18.4453C28.6488 18.4453 27.0156 20.6691 27.0156 23.4124C27.0156 26.1556 28.6488 28.3794 30.6635 28.3794Z"
      fill="#9775FA" />
    <path
      d="M31.4835 26.9703C32.9241 26.9703 34.0919 25.3774 34.0919 23.4124C34.0919 21.4474 32.9241 19.8545 31.4835 19.8545C30.0428 19.8545 28.875 21.4474 28.875 23.4124C28.875 25.3774 30.0428 26.9703 31.4835 26.9703Z"
      fill="#E9ECEF" />
    <path
      d="M31.6304 26.7605C32.9882 26.7605 34.089 25.2615 34.089 23.4125C34.089 21.5634 32.9882 20.0645 31.6304 20.0645C30.2726 20.0645 29.1719 21.5634 29.1719 23.4125C29.1719 25.2615 30.2726 26.7605 31.6304 26.7605Z"
      fill="#D0BFFF" />
    <path opacity="0.56"
      d="M52.5614 74.072C49.823 73.0826 35.2317 66.6364 31.1641 57.5918C31.9436 60.1703 33.2728 62.5589 34.9218 64.2579C38.6996 68.1356 50.6325 76.7505 50.6325 76.7505H74.6583C74.6883 76.5006 74.7083 76.2607 74.7183 76.0309C68.7818 75.871 54.5402 74.7916 52.5714 74.082L52.5614 74.072Z"
      fill="#845EF7" />
  </g>
</svg>