<svg width="33" height="32" viewBox="0 0 33 32" fill="none" xmlns="http://www.w3.org/2000/svg">
  <g clip-path="url(#clip0_7096_3162)">
    <path
      d="M32.5 16C32.5 24.8366 25.3366 32 16.5 32C7.66345 32 0.5 24.8366 0.5 16C0.5 7.16345 7.66345 0 16.5 0C25.3366 0 32.5 7.16345 32.5 16Z"
      fill="#FFD600" />
    <path
      d="M16.5 7C11.2534 7 7 10.9159 7 15.7455C7 19.3136 8.50107 21.0158 10.5567 22.5684L10.5668 22.5724V26.7592C10.5668 26.9573 10.7943 27.0705 10.9527 26.9512L14.5561 24.2888L14.6333 24.3211C15.2366 24.4323 15.8622 24.491 16.5 24.491C21.7466 24.491 26 20.5751 26 15.7455C26 10.9159 21.7466 7 16.5 7ZM13.3151 17.9612C14.2453 17.9612 15.0436 17.4072 15.2833 16.5501H16.6605C16.3233 18.1997 15.0335 19.2813 13.3151 19.2813C11.3184 19.2813 9.73605 17.7994 9.73605 15.7354C9.73605 13.6713 11.3184 12.1895 13.3151 12.1895C15.0497 12.1895 16.3497 13.2933 16.6706 14.9712H15.2975C15.0883 14.0595 14.2657 13.4894 13.3171 13.4894C11.9744 13.4894 11.0807 14.4415 11.0807 15.7333C11.0807 17.0252 12.0963 17.9591 13.3171 17.9591M22.3926 19.1458H21.1312V16.3115C21.1312 15.6585 20.7493 15.3088 20.1623 15.3088C19.5062 15.3088 19.0857 15.7071 19.0857 16.5157V19.1458H17.8223V12.2137H19.0857V14.8216C19.3884 14.3647 19.8779 14.1403 20.5442 14.1403C21.0824 14.1403 21.5232 14.3162 21.8644 14.676C22.2179 15.0359 22.3926 15.5231 22.3926 16.1559V19.1458Z"
      fill="white" />
  </g>
  <defs>
    <clipPath id="clip0_7096_3162">
      <rect width="32" height="32" fill="white" transform="translate(0.5)" />
    </clipPath>
  </defs>
</svg>