<svg width="32" height="34" viewBox="0 0 32 34" fill="none" xmlns="http://www.w3.org/2000/svg">
<path d="M0.167539 15.0646L8.24293 14.2267V11.1937L3.53508 11.6629V0.418925H0.167539V15.0646ZM5.51204 7.95959H8.66178V15.5673H11.5937V0H8.66178V4.92656H5.51204V7.95959ZM12.2471 15.5673H15.2461V0H12.2471V15.5673Z" fill="#4263EB"/>
<path d="M0.167539 15.0646L8.24293 14.2267V11.1937L3.53508 11.6629V0.418925H0.167539V15.0646ZM5.51204 7.95959H8.66178V15.5673H11.5937V0H8.66178V4.92656H5.51204V7.95959ZM12.2471 15.5673H15.2461V0H12.2471V15.5673Z" fill="#7048E8"/>
<path d="M17.089 3.18383H27.6942L27.1749 11.8807H30.7937L31.4974 0.251355H17.089V3.18383ZM16.5864 15.3159H32V12.2997H24.8461V6.14983H21.2272V12.2997H16.5864V15.3159Z" fill="#4263EB"/>
<path d="M17.089 3.18383H27.6942L27.1749 11.8807H30.7937L31.4974 0.251355H17.089V3.18383ZM16.5864 15.3159H32V12.2997H24.8461V6.14983H21.2272V12.2997H16.5864V15.3159Z" fill="#7048E8"/>
<path d="M0 33.4973C2.1445 32.4248 3.95393 31.0005 5.16021 28.7383C6.36649 31.0005 8.19267 32.4248 10.3372 33.4973V29.5426C8.5445 28.3361 7.0199 26.6772 7.0199 21.7674V18.7679H3.31728V21.7674C3.31728 26.6772 1.79267 28.3361 0 29.5426V33.4973ZM11.2921 34H15.0618V18.4327H11.2921V34Z" fill="#4263EB"/>
<path d="M0 33.4973C2.1445 32.4248 3.95393 31.0005 5.16021 28.7383C6.36649 31.0005 8.19267 32.4248 10.3372 33.4973V29.5426C8.5445 28.3361 7.0199 26.6772 7.0199 21.7674V18.7679H3.31728V21.7674C3.31728 26.6772 1.79267 28.3361 0 29.5426V33.4973ZM11.2921 34H15.0618V18.4327H11.2921V34Z" fill="#7048E8"/>
<path d="M27.3592 27.5318C29.8387 27.5318 31.5812 25.5377 31.5812 23.0744C31.5812 20.5944 29.8387 18.6003 27.3592 18.6003H21.2105C18.7476 18.6003 17.0052 20.5944 17.0052 23.0744C17.0052 25.5377 18.7476 27.5318 21.2105 27.5318H27.3592ZM16.5864 33.7486H32V30.7324H26.1864V27.9842H22.4V30.7324H16.5864V33.7486ZM20.7749 23.0744C20.7749 22.1528 21.3948 21.4657 22.3162 21.4657H26.2869C27.2084 21.4657 27.8283 22.1528 27.8283 23.0744C27.8283 24.0128 27.2084 24.6999 26.2869 24.6999H22.3162C21.3948 24.6999 20.7749 24.0128 20.7749 23.0744Z" fill="#4263EB"/>
<path d="M27.3592 27.5318C29.8387 27.5318 31.5812 25.5377 31.5812 23.0744C31.5812 20.5944 29.8387 18.6003 27.3592 18.6003H21.2105C18.7476 18.6003 17.0052 20.5944 17.0052 23.0744C17.0052 25.5377 18.7476 27.5318 21.2105 27.5318H27.3592ZM16.5864 33.7486H32V30.7324H26.1864V27.9842H22.4V30.7324H16.5864V33.7486ZM20.7749 23.0744C20.7749 22.1528 21.3948 21.4657 22.3162 21.4657H26.2869C27.2084 21.4657 27.8283 22.1528 27.8283 23.0744C27.8283 24.0128 27.2084 24.6999 26.2869 24.6999H22.3162C21.3948 24.6999 20.7749 24.0128 20.7749 23.0744Z" fill="#7048E8"/>
</svg>
