<svg width="24" height="25" viewBox="0 0 24 25" fill="none" xmlns="http://www.w3.org/2000/svg">
  <path fill-rule="evenodd" clip-rule="evenodd"
    d="M12.4751 21.8902C14.2651 20.7655 20.5 16.4237 20.5 10.5101C20.5 5.90772 16.6944 2.17676 12 2.17676C7.30558 2.17676 3.5 5.90772 3.5 10.5101C3.5 16.4237 9.7349 20.7655 11.5249 21.8902C11.8196 22.0753 12.1804 22.0753 12.4751 21.8902ZM12 13.6768C13.6569 13.6768 15 12.3336 15 10.6768C15 9.0199 13.6569 7.67676 12 7.67676C10.3431 7.67676 9 9.0199 9 10.6768C9 12.3336 10.3431 13.6768 12 13.6768Z"
    fill="currentColor" />
</svg>