<svg width="16" height="16" viewBox="0 0 16 16" fill="none" xmlns="http://www.w3.org/2000/svg">
<g clip-path="url(#clip0_5773_160083)">
<path d="M15.158 0H11.7896C11.5662 0 11.352 0.0887216 11.1941 0.246647C11.0362 0.404572 10.9474 0.618765 10.9474 0.842105C10.9474 1.06545 11.0362 1.27964 11.1941 1.43756C11.352 1.59549 11.5662 1.68421 11.7896 1.68421H13.1243L10.3538 4.45895C10.1969 4.61673 10.1089 4.83016 10.1089 5.05263C10.1089 5.2751 10.1969 5.48854 10.3538 5.64632C10.5115 5.80316 10.725 5.89119 10.9474 5.89119C11.1699 5.89119 11.3834 5.80316 11.5411 5.64632L14.3159 2.87579V4.21053C14.3159 4.43387 14.4046 4.64806 14.5625 4.80598C14.7204 4.96391 14.9346 5.05263 15.158 5.05263C15.3813 5.05263 15.5955 4.96391 15.7534 4.80598C15.9114 4.64806 16.0001 4.43387 16.0001 4.21053V0.842105C16.0001 0.618765 15.9114 0.404572 15.7534 0.246647C15.5955 0.0887216 15.3813 0 15.158 0V0Z" fill="#767676"/>
<path d="M4.45895 10.3543L1.68421 13.1248V11.79C1.68421 11.5667 1.59549 11.3525 1.43756 11.1946C1.27964 11.0367 1.06545 10.9479 0.842105 10.9479C0.618765 10.9479 0.404572 11.0367 0.246647 11.1946C0.0887216 11.3525 0 11.5667 0 11.79L0 15.1585C0 15.3818 0.0887216 15.596 0.246647 15.7539C0.404572 15.9118 0.618765 16.0006 0.842105 16.0006H4.21053C4.43387 16.0006 4.64806 15.9118 4.80598 15.7539C4.96391 15.596 5.05263 15.3818 5.05263 15.1585C5.05263 14.9351 4.96391 14.7209 4.80598 14.563C4.64806 14.4051 4.43387 14.3164 4.21053 14.3164H2.87579L5.64632 11.5416C5.80316 11.3838 5.89119 11.1704 5.89119 10.9479C5.89119 10.7255 5.80316 10.512 5.64632 10.3543C5.48854 10.1974 5.2751 10.1094 5.05263 10.1094C4.83016 10.1094 4.61673 10.1974 4.45895 10.3543Z" fill="#767676"/>
<path d="M15.158 10.9479C14.9346 10.9479 14.7204 11.0367 14.5625 11.1946C14.4046 11.3525 14.3159 11.5667 14.3159 11.79V13.1248L11.5411 10.3543C11.3834 10.1974 11.1699 10.1094 10.9474 10.1094C10.725 10.1094 10.5115 10.1974 10.3538 10.3543C10.1969 10.512 10.1089 10.7255 10.1089 10.9479C10.1089 11.1704 10.1969 11.3838 10.3538 11.5416L13.1243 14.3164H11.7896C11.5662 14.3164 11.352 14.4051 11.1941 14.563C11.0362 14.7209 10.9474 14.9351 10.9474 15.1585C10.9474 15.3818 11.0362 15.596 11.1941 15.7539C11.352 15.9118 11.5662 16.0006 11.7896 16.0006H15.158C15.3813 16.0006 15.5955 15.9118 15.7534 15.7539C15.9114 15.596 16.0001 15.3818 16.0001 15.1585V11.79C16.0001 11.5667 15.9114 11.3525 15.7534 11.1946C15.5955 11.0367 15.3813 10.9479 15.158 10.9479Z" fill="#767676"/>
<path d="M0.842105 5.05263C1.06545 5.05263 1.27964 4.96391 1.43756 4.80598C1.59549 4.64806 1.68421 4.43387 1.68421 4.21053V2.87579L4.45895 5.64632C4.61673 5.80316 4.83016 5.89119 5.05263 5.89119C5.2751 5.89119 5.48854 5.80316 5.64632 5.64632C5.80316 5.48854 5.89119 5.2751 5.89119 5.05263C5.89119 4.83016 5.80316 4.61673 5.64632 4.45895L2.87579 1.68421H4.21053C4.43387 1.68421 4.64806 1.59549 4.80598 1.43756C4.96391 1.27964 5.05263 1.06545 5.05263 0.842105C5.05263 0.618765 4.96391 0.404572 4.80598 0.246647C4.64806 0.0887216 4.43387 0 4.21053 0L0.842105 0C0.618765 0 0.404572 0.0887216 0.246647 0.246647C0.0887216 0.404572 0 0.618765 0 0.842105L0 4.21053C0 4.43387 0.0887216 4.64806 0.246647 4.80598C0.404572 4.96391 0.618765 5.05263 0.842105 5.05263Z" fill="#767676"/>
</g>
<defs>
<clipPath id="clip0_5773_160083">
<rect width="16" height="16" fill="white"/>
</clipPath>
</defs>
</svg>
