<svg width="24" height="24" viewBox="0 0 24 24" fill="none" xmlns="http://www.w3.org/2000/svg">
<path fill-rule="evenodd" clip-rule="evenodd" d="M21 3.00003L11 3.0004H3C2.44772 3.0004 2 3.44812 2 4.0004V18.9198C2 19.7583 2.96993 20.2245 3.62469 19.7006L6.72609 17.2195C6.9034 17.0777 7.12371 17.0004 7.35078 17.0004H21C21.5523 17.0004 22 16.5527 22 16.0004V4.00003C22 3.44773 21.5523 3.00001 21 3.00003ZM8 8.99999C7.44772 8.99999 7 9.44771 7 9.99999C7 10.5523 7.44772 11 8 11C8.55228 11 9 10.5523 9 9.99999C9 9.44771 8.55228 8.99999 8 8.99999ZM11 9.99999C11 9.44771 11.4477 8.99999 12 8.99999C12.5523 8.99999 13 9.44771 13 9.99999C13 10.5523 12.5523 11 12 11C11.4477 11 11 10.5523 11 9.99999ZM16 8.99999C15.4477 8.99999 15 9.44771 15 9.99999C15 10.5523 15.4477 11 16 11C16.5523 11 17 10.5523 17 9.99999C17 9.44771 16.5523 8.99999 16 8.99999Z" fill="currentColor"/>
</svg>
