<svg width="40" height="40" viewBox="0 0 40 40" fill="none" xmlns="http://www.w3.org/2000/svg">
<path fill-rule="evenodd" clip-rule="evenodd" d="M19.6403 36.3862C22.103 34.8833 33.3333 27.4684 33.3333 17.2223C33.3333 9.55164 26.9907 3.33337 19.1667 3.33337C11.3426 3.33337 5 9.55164 5 17.2223C5 27.4684 16.2303 34.8833 18.6931 36.3862C18.9901 36.5675 19.3432 36.5675 19.6403 36.3862ZM19.1667 22.5C21.9281 22.5 24.1667 20.2615 24.1667 17.5C24.1667 14.7386 21.9281 12.5 19.1667 12.5C16.4052 12.5 14.1667 14.7386 14.1667 17.5C14.1667 20.2615 16.4052 22.5 19.1667 22.5Z" fill="#4263EB"/>
<path fill-rule="evenodd" clip-rule="evenodd" d="M19.6403 36.3862C22.103 34.8833 33.3333 27.4684 33.3333 17.2223C33.3333 9.55164 26.9907 3.33337 19.1667 3.33337C11.3426 3.33337 5 9.55164 5 17.2223C5 27.4684 16.2303 34.8833 18.6931 36.3862C18.9901 36.5675 19.3432 36.5675 19.6403 36.3862ZM19.1667 22.5C21.9281 22.5 24.1667 20.2615 24.1667 17.5C24.1667 14.7386 21.9281 12.5 19.1667 12.5C16.4052 12.5 14.1667 14.7386 14.1667 17.5C14.1667 20.2615 16.4052 22.5 19.1667 22.5Z" fill="#7048E8"/>
</svg>
