<svg width="24" height="24" viewBox="0 0 24 24" fill="none" xmlns="http://www.w3.org/2000/svg">
<path fill-rule="evenodd" clip-rule="evenodd" d="M12.4751 21.7134C14.2651 20.5888 20.5 16.247 20.5 10.3333C20.5 5.73096 16.6944 2 12 2C7.30558 2 3.5 5.73096 3.5 10.3333C3.5 16.247 9.7349 20.5888 11.5249 21.7134C11.8196 21.8986 12.1804 21.8986 12.4751 21.7134ZM12 13.5C13.6569 13.5 15 12.1569 15 10.5C15 8.84315 13.6569 7.5 12 7.5C10.3431 7.5 9 8.84315 9 10.5C9 12.1569 10.3431 13.5 12 13.5Z" fill="currentColor"/>
</svg>