<svg width="24" height="24" viewBox="0 0 24 24" fill="none" xmlns="http://www.w3.org/2000/svg">
<path d="M9.47274 3.12009C9.76721 2.95997 10.122 2.95997 10.4164 3.12008L16.9582 7.69328C16.9671 7.69956 16.9609 7.7138 16.9502 7.71148C16.6126 7.63851 16.2623 7.6001 15.903 7.6001C15.4226 7.6001 14.958 7.66881 14.5186 7.79702C14.5039 7.80132 14.4879 7.79869 14.4754 7.78978L9.94461 4.56824L3.48961 9.15825V19.5H8V21H2.99307C2.44461 21 2 20.5523 2 20V8.86001C2 8.49255 2.20013 8.1547 2.52122 7.9801L9.47274 3.12009Z" fill="#212529"/>
<path d="M19.6001 13.1998C19.6001 14.601 18.7995 15.8153 17.6308 16.4101C19.3129 16.8514 20.7706 17.9647 21.6313 19.5295L21.9609 20.1288C21.9865 20.1754 22 20.2278 22 20.2811V20.3634C22 20.7149 21.715 20.9999 21.3635 20.9999H10.6365C10.285 20.9999 10 20.7149 10 20.3634V20.2811C10 20.2278 10.0135 20.1754 10.0391 20.1288L10.3687 19.5295C11.2294 17.9647 12.6871 16.8514 14.3693 16.4101C13.2006 15.8152 12.4001 14.601 12.4001 13.1998C12.4001 11.2116 14.0119 9.59977 16.0001 9.59977C17.9883 9.59977 19.6001 11.2116 19.6001 13.1998Z" fill="#212529"/>
</svg>
