<svg width="54" height="61" viewBox="0 0 54 61" fill="none" xmlns="http://www.w3.org/2000/svg">
  <path d="M27 47L0.153209 0.500005L53.8468 0.5L27 47Z" fill="url(#paint0_linear_1538_19951)" />
  <path fill-rule="evenodd" clip-rule="evenodd"
    d="M27 61C38.0457 61 47 52.0457 47 41C47 29.9543 38.0457 21 27 21C15.9543 21 7 29.9543 7 41C7 52.0457 15.9543 61 27 61Z"
    fill="#FF4216" fill-opacity="0.1" />
  <path fill-rule="evenodd" clip-rule="evenodd"
    d="M27 49C31.4183 49 35 45.4183 35 41C35 36.5817 31.4183 33 27 33C22.5817 33 19 36.5817 19 41C19 45.4183 22.5817 49 27 49Z"
    fill="white" />
  <g filter="url(#filter0_d_1538_19951)">
    <path fill-rule="evenodd" clip-rule="evenodd"
      d="M27 47C30.3137 47 33 44.3137 33 41C33 37.6863 30.3137 35 27 35C23.6863 35 21 37.6863 21 41C21 44.3137 23.6863 47 27 47Z"
      fill="#FF4216" />
  </g>
  <defs>
    <filter id="filter0_d_1538_19951" x="20" y="34" width="16" height="16" filterUnits="userSpaceOnUse"
      color-interpolation-filters="sRGB">
      <feFlood flood-opacity="0" result="BackgroundImageFix" />
      <feColorMatrix in="SourceAlpha" type="matrix" values="0 0 0 0 0 0 0 0 0 0 0 0 0 0 0 0 0 0 127 0"
        result="hardAlpha" />
      <feOffset dx="1" dy="1" />
      <feGaussianBlur stdDeviation="1" />
      <feComposite in2="hardAlpha" operator="out" />
      <feColorMatrix type="matrix" values="0 0 0 0 0 0 0 0 0 0 0 0 0 0 0 0 0 0 0.25 0" />
      <feBlend mode="normal" in2="BackgroundImageFix" result="effect1_dropShadow_1538_19951" />
      <feBlend mode="normal" in="SourceGraphic" in2="effect1_dropShadow_1538_19951" result="shape" />
    </filter>
    <linearGradient id="paint0_linear_1538_19951" x1="27" y1="47" x2="27" y2="2" gradientUnits="userSpaceOnUse">
      <stop stop-color="#FF4216" />
      <stop offset="0.213542" stop-color="#FF4216" stop-opacity="0.73" />
      <stop offset="1" stop-color="#FF4216" stop-opacity="0" />
    </linearGradient>
  </defs>
</svg>