<svg width="24" height="24" viewBox="0 0 24 24" fill="none" xmlns="http://www.w3.org/2000/svg">
<path fill-rule="evenodd" clip-rule="evenodd" d="M21.4751 8.11622L12.4751 3.25656C12.1786 3.09644 11.8214 3.09645 11.5249 3.25657L2.52485 8.11658C2.20153 8.29117 2 8.62903 2 8.99648V20C2 20.5523 2.44772 21 3 21H14.3923H21C21.5523 21 22 20.5523 22 20V8.99613C22 8.62867 21.7985 8.29081 21.4751 8.11622ZM12.883 9.5H11.1192V10.3559C10.8236 10.4517 10.5605 10.5943 10.341 10.7786C9.90689 11.1435 9.65252 11.6646 9.65466 12.284C9.65466 12.7861 9.82012 13.1904 10.1268 13.5012C10.4301 13.8086 10.8613 14.0142 11.3756 14.1428L11.984 14.2975L11.9858 14.2979C12.3023 14.3744 12.513 14.4551 12.6439 14.5493C12.764 14.6358 12.8161 14.7325 12.8197 14.8648C12.8158 15.0203 12.7487 15.146 12.6264 15.2365C12.4997 15.3301 12.3037 15.3928 12.0373 15.3928C11.7506 15.3928 11.5273 15.3213 11.3742 15.1962C11.2235 15.0731 11.1246 14.8848 11.1103 14.6164L11.1031 14.481H9.5L9.50244 14.6261C9.51498 15.3734 9.76623 15.9477 10.2214 16.3336C10.4696 16.5441 10.7728 16.6935 11.1192 16.7858V17.5H12.883V16.8101C13.2596 16.7225 13.5814 16.5716 13.8377 16.3601C14.269 16.0042 14.4979 15.4891 14.5 14.8641C14.4979 14.3325 14.3226 13.8972 13.9914 13.561C13.6634 13.2282 13.1932 13.0033 12.6181 12.8681L12.1147 12.7394L12.1114 12.7386C11.8566 12.6797 11.6621 12.6077 11.5344 12.5148C11.4146 12.4277 11.356 12.325 11.3589 12.1837L11.3589 12.1824C11.3605 12.0461 11.4145 11.9351 11.5182 11.855C11.6252 11.7724 11.7987 11.7129 12.0533 11.7129C12.3082 11.7129 12.4885 11.7748 12.6068 11.8714C12.7234 11.9665 12.7966 12.1086 12.8122 12.3037L12.8227 12.4355H14.4214L14.4199 12.2912C14.4135 11.679 14.1805 11.156 13.7633 10.787C13.5231 10.5745 13.2258 10.4165 12.883 10.3209V9.5Z" fill="#14BC58"/>
</svg>
