<svg width="24" height="24" viewBox="0 0 24 24" fill="none" xmlns="http://www.w3.org/2000/svg">
<path d="M18.4648 6.78933L11.4648 3.11459C11.1738 2.9618 10.8262 2.9618 10.5352 3.1146L3.53517 6.78961C3.20611 6.96237 3 7.30336 3 7.67501V16C3 16.5522 3.44772 17 4 17H10.0189C10.0064 16.835 10 16.6682 10 16.5C10 12.9101 12.9101 10 16.5 10C17.3859 10 18.2304 10.1772 19 10.4982V7.67474C19 7.30308 18.7939 6.96208 18.4648 6.78933Z" fill="#14BC58"/>
<path fill-rule="evenodd" clip-rule="evenodd" d="M19.1074 20.1681C18.3718 20.6919 17.4719 21 16.5 21C14.0147 21 12 18.9853 12 16.5C12 14.0147 14.0147 12 16.5 12C18.9853 12 21 14.0147 21 16.5C21 17.4719 20.6919 18.3718 20.1681 19.1074L22.5303 21.4697L21.4697 22.5303L19.1074 20.1681ZM19.5 16.5C19.5 18.1569 18.1569 19.5 16.5 19.5C14.8431 19.5 13.5 18.1569 13.5 16.5C13.5 14.8431 14.8431 13.5 16.5 13.5C18.1569 13.5 19.5 14.8431 19.5 16.5Z" fill="#14BC58"/>
</svg>
