<svg width="24" height="24" viewBox="0 0 24 24" fill="none" xmlns="http://www.w3.org/2000/svg">
<path fill-rule="evenodd" clip-rule="evenodd" d="M11 18C14.866 18 18 14.866 18 11C18 7.13401 14.866 4 11 4C7.13401 4 4 7.13401 4 11C4 14.866 7.13401 18 11 18ZM11 20C13.125 20 15.078 19.2635 16.6177 18.0319L21.2929 22.7071L22.7071 21.2929L18.0319 16.6177C19.2635 15.078 20 13.125 20 11C20 6.02944 15.9706 2 11 2C6.02944 2 2 6.02944 2 11C2 15.9706 6.02944 20 11 20ZM10.25 7V10.25H7V11.75H10.25V15H11.75V11.75H15V10.25H11.75V7H10.25Z" fill="#7048E8"/>
</svg>
