<svg width="16" height="16" viewBox="0 0 16 16" fill="none" xmlns="http://www.w3.org/2000/svg">
  <path
    d="M14.25 6.66667C14.25 8.72173 13.1496 10.5691 11.7697 12.0686C10.3978 13.5593 8.82883 14.6188 8.07352 15.0857C8.02657 15.1147 7.97343 15.1147 7.92648 15.0857C7.17117 14.6188 5.60216 13.5593 4.23033 12.0686C2.85035 10.5691 1.75 8.72173 1.75 6.66667C1.75 3.44719 4.51446 0.75 8 0.75C11.4855 0.75 14.25 3.44719 14.25 6.66667Z"
    stroke="#495057" stroke-width="1.5" />
  <path
    d="M6.99879 4.43703C6.90389 4.31879 6.76047 4.25 6.60886 4.25H5.75C5.47386 4.25 5.25 4.47386 5.25 4.75V9.75H6.91536V6.8375L8.93491 9.54869C9.02927 9.67536 9.17794 9.75 9.33589 9.75H10.25C10.5261 9.75 10.75 9.52614 10.75 9.25V4.25H9.0699V7.00937C8.81261 6.68996 8.55673 6.3719 8.30231 6.05537C7.91271 5.57099 7.51874 5.08235 7.12268 4.59139L6.99879 4.43703Z"
    fill="#495057" />
</svg>