<svg width="32" height="32" viewBox="0 0 32 32" fill="none" xmlns="http://www.w3.org/2000/svg">
  <rect width="32" height="32" rx="16" fill="#868E96" />
  <path
    d="M10.3449 13.9908C10.1261 13.9908 9.93876 14.0709 9.78405 14.2287C9.62813 14.3877 9.55078 14.5806 9.55078 14.8064C9.55078 15.0321 9.62813 15.2251 9.78405 15.3841C9.93996 15.5431 10.1261 15.6232 10.3449 15.6232C10.5636 15.6232 10.757 15.5431 10.9153 15.3841C11.0737 15.2251 11.1522 15.0334 11.1522 14.8064C11.1522 14.5794 11.0737 14.3877 10.9153 14.2287C10.757 14.0697 10.5672 13.9908 10.3449 13.9908Z"
    fill="white" />
  <path
    d="M17.129 13.9833C16.9103 13.9833 16.7229 14.0622 16.5682 14.2212C16.4123 14.3802 16.335 14.5732 16.335 14.799C16.335 15.0247 16.4135 15.2177 16.5682 15.3767C16.7229 15.5357 16.9103 15.6146 17.129 15.6146C17.3478 15.6146 17.5412 15.5345 17.6995 15.3767C17.8578 15.2177 17.9364 15.0247 17.9364 14.799C17.9364 14.5732 17.8578 14.3802 17.6995 14.2212C17.5412 14.0622 17.3514 13.9833 17.129 13.9833Z"
    fill="white" />
  <path
    d="M21.6532 13.9908C21.4344 13.9908 21.2471 14.0709 21.0912 14.2287C20.9365 14.3877 20.8579 14.5806 20.8579 14.8064C20.8579 15.0321 20.9365 15.2251 21.0912 15.3841C21.2471 15.5431 21.4344 15.6232 21.6532 15.6232C21.872 15.6232 22.0653 15.5431 22.2237 15.3841C22.382 15.2251 22.4606 15.0334 22.4606 14.8064C22.4606 14.5794 22.3808 14.3877 22.2237 14.2287C22.0653 14.0697 21.8756 13.9908 21.6532 13.9908Z"
    fill="white" />
  <path
    d="M23.6643 8H8.33512C7.16032 8 6.19824 8.96611 6.19824 10.1458V18.8518C6.19824 20.0315 7.16032 20.9976 8.33512 20.9976H14.3542C14.3542 20.9976 15.5169 24.1848 15.9399 24.1848C16.3629 24.1848 17.6211 20.9976 17.6211 20.9976H23.6643C24.8403 20.9976 25.8012 20.0315 25.8012 18.8518V10.1458C25.8012 8.96611 24.8391 8 23.6643 8ZM11.8958 16.0372C11.5924 16.3807 11.1271 16.5251 10.6195 16.5251C10.1614 16.5251 9.82658 16.3867 9.57881 16.1974H9.56431V16.4426H8.41368V11.402H9.56431V13.3294H9.57881C9.89064 13.0624 10.304 12.9714 10.7911 12.9556C11.2081 12.941 11.642 13.2032 11.9018 13.5054C12.1605 13.8064 12.3502 14.2785 12.3502 14.8004C12.3502 15.3684 12.2004 15.6937 11.8958 16.0372ZM14.3662 16.4802H13.1926V13.361C13.1926 12.6412 12.6258 12.5466 12.6258 12.5466V11.2989C12.6258 11.2989 14.2708 11.3996 14.3662 13.401V16.4802ZM18.9712 15.5238C18.8721 15.7495 18.7294 15.951 18.5397 16.1282C18.3535 16.303 18.1396 16.4377 17.8967 16.5312C17.655 16.6246 17.3987 16.672 17.1292 16.672C16.8597 16.672 16.6131 16.6246 16.3738 16.5312C16.1333 16.4377 15.9193 16.303 15.7308 16.1282C15.5362 15.9437 15.39 15.7398 15.2896 15.5165C15.1905 15.2932 15.1398 15.0565 15.1398 14.8053C15.1398 14.554 15.1893 14.3174 15.2896 14.094C15.39 13.8707 15.5362 13.6668 15.7308 13.4823C15.9206 13.3063 16.1345 13.1728 16.3738 13.0794C16.6131 12.9859 16.8645 12.9398 17.1292 12.9398C17.3939 12.9398 17.6537 12.9859 17.8967 13.0794C18.1384 13.1728 18.3523 13.3076 18.5397 13.4823C18.7294 13.6595 18.8721 13.861 18.9712 14.0868C19.0691 14.3125 19.1186 14.5516 19.1186 14.8053C19.1186 15.0589 19.0691 15.2968 18.9712 15.5226V15.5238ZM23.587 16.0238C23.587 16.9086 23.4202 17.4487 23.0261 17.8238C22.5584 18.2692 21.8924 18.3008 21.3316 18.2207V17.3055C21.7994 17.3528 22.4436 17.0434 22.4424 16.4341V16.1998H22.4279C22.1656 16.5639 21.7825 16.6962 21.2724 16.6962C20.7998 16.6962 20.3901 16.5215 20.1133 16.195C19.8353 15.8685 19.6976 15.4315 19.6976 14.883C19.6976 14.2688 19.8523 13.7797 20.1617 13.4192C20.4699 13.0575 20.911 12.8888 21.415 12.8888C21.8671 12.8888 22.1511 12.9981 22.4291 13.2529H22.4436V12.9762H23.587V16.0251V16.0238Z"
    fill="white" />
</svg>