<svg width="48" height="48" viewBox="0 0 48 48" fill="none" xmlns="http://www.w3.org/2000/svg">
<path d="M25.3945 3.34377L46.3944 14.3679C47.3816 14.8862 48 15.9092 48 17.0242V41.6116C48 43.2684 46.6569 44.6115 45 44.6115H3C1.34315 44.6115 0 43.2684 0 41.6115V17.025C0 15.91 0.618324 14.887 1.6055 14.3688L22.6055 3.3438C23.4787 2.88541 24.5213 2.8854 25.3945 3.34377Z" fill="#F1F3F5"/>
<path fill-rule="evenodd" clip-rule="evenodd" d="M21.75 14V29H26.25V14H21.75ZM24 38C25.6569 38 27 36.6569 27 35C27 33.3431 25.6569 32 24 32C22.3431 32 21 33.3431 21 35C21 36.6569 22.3431 38 24 38Z" fill="#ADB5BD"/>
</svg>
