<svg width="50" height="12" viewBox="0 0 50 12" fill="none" xmlns="http://www.w3.org/2000/svg">
<path fill-rule="evenodd" clip-rule="evenodd" d="M39.9301 1.63436H41.6376V0H39.9301V1.63436ZM6.83075 1.24764H5.77607H5.49322H5.47177V1.52093V6.58305C4.88763 5.74498 4.30885 4.91264 3.73509 4.08636C3.17709 3.28334 2.61306 2.47357 2.04567 1.65943L2.04634 1.65909L1.76014 1.24764H1.66931H1.56106H1.30066H0.304304H0V1.55934V9.23711V9.53803H0.304304H1.35362H1.66931V9.23138V3.92663C2.26787 4.8075 2.86575 5.68533 3.4633 6.56115C4.01292 7.36788 4.5659 8.17528 5.12021 8.98336H5.11854L5.49322 9.53197V9.53803H5.49724H5.65576H6.62799H6.84181H7.1622V9.24857V1.55395V1.24764H6.83075ZM28.9753 4.04917C28.7387 3.9346 28.4786 3.87697 28.2015 3.87697C27.9173 3.87697 27.6515 3.93494 27.4122 4.04917C27.1709 4.16442 26.9598 4.3201 26.7839 4.51252C26.6076 4.70561 26.4688 4.9324 26.3703 5.18817C26.2711 5.44292 26.2218 5.71419 26.2218 5.99456C26.2218 6.27864 26.2711 6.55092 26.3703 6.80365C26.4688 7.05706 26.6072 7.28014 26.7835 7.46717C26.9591 7.6552 27.1703 7.80549 27.4109 7.91468C27.6512 8.02386 27.9173 8.07946 28.2015 8.07946C28.479 8.07946 28.739 8.02386 28.9763 7.91468C29.2129 7.80549 29.4204 7.6552 29.5923 7.46784C29.7646 7.28082 29.901 7.0574 29.9975 6.80433C30.095 6.55092 30.1443 6.27864 30.1443 5.99456C30.1443 5.71419 30.095 5.44259 29.9975 5.18783C29.9006 4.93206 29.7642 4.70494 29.592 4.51218C29.42 4.31977 29.2123 4.16408 28.9753 4.04917ZM30.7778 3.39039C31 3.61178 31.192 3.86115 31.3506 4.13174C31.5087 4.40268 31.6337 4.69888 31.7205 5.01261C31.807 5.32668 31.8512 5.65725 31.8512 5.99457C31.8512 6.33189 31.807 6.66112 31.7205 6.97384C31.6337 7.28521 31.5087 7.57973 31.3506 7.84931C31.192 8.11789 31 8.36759 30.7781 8.59C30.5566 8.81308 30.3086 9.00583 30.0415 9.16354C29.7741 9.32124 29.4815 9.44525 29.1718 9.53253C28.8608 9.61981 28.5354 9.66429 28.2043 9.66429C27.8698 9.66429 27.5431 9.61981 27.2341 9.53253C26.9268 9.44559 26.6335 9.32124 26.3647 9.16354C26.0953 9.00583 25.8469 8.81308 25.6251 8.59C25.4032 8.36759 25.2112 8.11789 25.0527 7.84931C24.8942 7.58074 24.7698 7.28588 24.6827 6.97384C24.5962 6.66112 24.5523 6.33189 24.5523 5.99457C24.5523 5.65725 24.5962 5.32668 24.6827 5.01295C24.7702 4.69821 24.8945 4.40166 25.0527 4.13174C25.2109 3.86115 25.4032 3.61178 25.6251 3.39039C25.8469 3.17 26.0953 2.97792 26.3647 2.82021C26.6328 2.66251 26.9254 2.5385 27.2337 2.45122C27.8484 2.27734 28.5481 2.27599 29.1718 2.45088C29.4822 2.5385 29.7747 2.66284 30.0415 2.82021C30.3089 2.97758 30.5566 3.16933 30.7778 3.39039ZM47.1243 4.04917C46.8877 3.9346 46.6277 3.87697 46.3505 3.87697C46.067 3.87697 45.8009 3.93494 45.5613 4.04917C45.3203 4.16442 45.1088 4.3201 44.9332 4.51252C44.7569 4.70561 44.6175 4.9324 44.519 5.18817C44.4201 5.44292 44.3709 5.71419 44.3709 5.99456C44.3709 6.27864 44.4201 6.55092 44.519 6.80365C44.6175 7.05706 44.7566 7.28014 44.9325 7.46717C45.1082 7.6552 45.3196 7.80549 45.5603 7.91468C45.8002 8.02386 46.0666 8.07946 46.3505 8.07946C46.6277 8.07946 46.8884 8.02386 47.1253 7.91468C47.3619 7.80549 47.5694 7.6552 47.7417 7.46784C47.9139 7.28082 48.0503 7.0574 48.1465 6.80433C48.244 6.55092 48.2933 6.27864 48.2933 5.99456C48.2933 5.71419 48.244 5.44259 48.1465 5.18783C48.05 4.93206 47.9132 4.70494 47.7407 4.51218C47.5691 4.31977 47.3616 4.16408 47.1243 4.04917ZM49.5 4.13174C49.6581 4.40268 49.7828 4.69888 49.8693 5.01261C49.9561 5.32668 50.0003 5.65725 50.0003 5.99457C50.0003 6.33189 49.9561 6.66112 49.8693 6.97384C49.7828 7.28521 49.6581 7.57973 49.5 7.84931C49.3414 8.11789 49.1491 8.36759 48.9279 8.59C48.7053 8.81308 48.4577 9.00583 48.1906 9.16354C47.9231 9.32124 47.6306 9.44525 47.3209 9.53253C47.0102 9.61981 46.6841 9.66429 46.3537 9.66429C46.0192 9.66429 45.6921 9.61981 45.3828 9.53253C45.0758 9.44559 44.7829 9.32124 44.5138 9.16354C44.2444 9.00583 43.996 8.81308 43.7745 8.59C43.5526 8.36759 43.3603 8.11789 43.2017 7.84931C43.0432 7.58074 42.9189 7.28588 42.8321 6.97384C42.7453 6.66112 42.701 6.33189 42.701 5.99457C42.701 5.65725 42.7453 5.32668 42.8321 5.01295C42.9192 4.69821 43.0436 4.40166 43.2017 4.13174C43.3603 3.86115 43.5526 3.61178 43.7745 3.39039C43.996 3.17 44.2444 2.97792 44.5138 2.82021C44.7819 2.66251 45.0745 2.5385 45.3825 2.45122C45.9974 2.27734 46.6972 2.27599 47.3209 2.45088C47.6312 2.5385 47.9238 2.66284 48.1906 2.82021C48.458 2.97758 48.7057 3.16933 48.9279 3.39039C49.1491 3.61178 49.3418 3.86115 49.5 4.13174ZM10.6748 4.2362C10.5112 4.36762 10.3664 4.52398 10.2451 4.70089C10.1402 4.85388 10.0581 5.019 10.0018 5.19423H13.7017C13.6461 5.00923 13.5673 4.83636 13.4671 4.68C13.3532 4.50207 13.2138 4.34673 13.0522 4.21766C12.8914 4.08894 12.705 3.98818 12.4976 3.91708C12.1108 3.78565 11.6423 3.76072 11.218 3.92483C11.0213 4.00098 10.8383 4.10578 10.6748 4.2362ZM13.3565 7.59279L13.3984 7.55403L14.3237 8.72572C14.319 8.72962 14.3147 8.73353 14.3104 8.73742C14.3036 8.74359 14.2969 8.74971 14.2889 8.75571C13.9678 9.03102 13.6079 9.25242 13.2228 9.41181C12.8357 9.57187 12.4054 9.65309 11.9439 9.65309C11.4459 9.65309 10.9666 9.55705 10.5202 9.36766C10.0738 9.17862 9.67671 8.9151 9.34157 8.5852C9.0061 8.25529 8.73531 7.86305 8.53825 7.41958C8.34018 6.97544 8.24031 6.49052 8.24031 5.97798C8.24031 5.64807 8.2812 5.32423 8.36264 5.01623C8.44341 4.70823 8.5607 4.41607 8.71017 4.14649C8.85965 3.87791 9.04364 3.6272 9.25779 3.40277C9.4716 3.178 9.71424 2.98323 9.979 2.8235C10.2424 2.66377 10.5333 2.53842 10.842 2.45114C11.4037 2.29208 12.0518 2.27052 12.6591 2.42317C12.9326 2.49158 13.1953 2.59031 13.441 2.71668C13.6866 2.84305 13.9189 2.99806 14.1337 3.178C14.3472 3.35795 14.5382 3.56418 14.7017 3.79165C14.9239 4.10436 15.0885 4.44573 15.192 4.80596C15.2949 5.16585 15.3476 5.56922 15.3476 6.00561C15.3476 6.11412 15.3429 6.20645 15.3335 6.28025C15.3228 6.36348 15.2949 6.43256 15.251 6.48581C15.2058 6.54006 15.1398 6.57982 15.055 6.60308C14.9755 6.62498 14.87 6.63576 14.7319 6.63576H9.9609C10.0098 6.85952 10.0923 7.06171 10.2069 7.23694C10.3359 7.43373 10.4904 7.60222 10.6657 7.73836C10.8416 7.87417 11.0354 7.97796 11.2431 8.04704C11.6088 8.16869 11.9898 8.1761 12.327 8.10264C12.4731 8.07096 12.6118 8.02749 12.7392 7.97425C12.8655 7.92168 12.9845 7.85934 13.0934 7.78992C13.1916 7.72657 13.2798 7.66052 13.3565 7.59279ZM21.9487 6.01485C21.9416 6.29151 21.8836 6.55672 21.7761 6.8044C21.6685 7.05208 21.5214 7.27213 21.338 7.45814C21.1557 7.64382 20.9376 7.79377 20.6909 7.90363C20.4452 8.01315 20.1798 8.06841 19.9027 8.06841C19.6218 8.06841 19.3597 8.01213 19.1228 7.90127C18.8859 7.79006 18.6764 7.6364 18.5011 7.44601C18.3248 7.25494 18.1854 7.03017 18.0869 6.77643C17.9887 6.52369 17.9381 6.25107 17.9381 5.967C17.9381 5.68663 17.9887 5.41637 18.0869 5.1633C18.1854 4.90989 18.3248 4.68479 18.5011 4.49372C18.6767 4.30232 18.8862 4.14933 19.1228 4.03846C19.3591 3.92759 19.6211 3.87132 19.9027 3.87132C20.1798 3.87132 20.4452 3.92658 20.6909 4.0361C20.9376 4.14629 21.1557 4.29659 21.338 4.48395C21.5214 4.67165 21.6685 4.89271 21.7761 5.14072C21.8836 5.3884 21.9416 5.65361 21.9487 5.92858V6.01485ZM22.5168 2.41356L22.515 2.41354C22.4858 2.41321 22.4572 2.41289 22.4277 2.41289L22.4242 2.41304L22.4222 2.41325C22.4207 2.41341 22.4192 2.41356 22.4176 2.41356H21.9732V3.24253C21.8653 3.13099 21.7484 3.02518 21.6254 2.92678C21.4658 2.79974 21.2919 2.68854 21.1086 2.59587C20.9239 2.50185 20.7245 2.42906 20.5157 2.37885C20.3063 2.32864 20.0794 2.30303 19.8421 2.30303C19.5103 2.30303 19.1872 2.34751 18.8819 2.43445C18.5776 2.52173 18.2901 2.64608 18.0273 2.80412C17.7646 2.96217 17.5233 3.15526 17.3088 3.37766C17.0953 3.60041 16.909 3.85011 16.7558 4.11902C16.6027 4.38793 16.4827 4.68245 16.3996 4.9945C16.3171 5.30553 16.2742 5.63274 16.2742 5.96702C16.2742 6.30468 16.3171 6.63222 16.3996 6.94022C16.4827 7.24822 16.6027 7.53836 16.7558 7.80222C16.9093 8.06574 17.0957 8.30836 17.3101 8.52403C17.5243 8.7397 17.7663 8.92639 18.0283 9.07836C18.2914 9.23102 18.5786 9.34963 18.8833 9.43085C19.1876 9.51273 19.5103 9.55418 19.8421 9.55418C20.0794 9.55418 20.3039 9.52756 20.5087 9.47533C20.7131 9.42276 20.9052 9.34963 21.0791 9.25831C21.2544 9.16699 21.4186 9.05814 21.5687 8.93481C21.6736 8.84922 21.7755 8.75789 21.8727 8.66152L21.8723 8.68809L21.8718 8.72466L21.8717 8.74543C21.8717 8.82866 21.8633 8.90145 21.8445 8.97289C21.8238 9.19226 21.7547 9.3931 21.6388 9.57002C21.5218 9.74895 21.3693 9.9043 21.1863 10.0307C21.0013 10.158 20.7869 10.2568 20.5489 10.3242C20.31 10.3919 20.0556 10.4259 19.7928 10.4259C19.6856 10.4259 19.5619 10.4189 19.4245 10.4044C19.2888 10.3906 19.15 10.366 19.0126 10.3319C18.8752 10.2979 18.7425 10.2541 18.6175 10.2029C18.4952 10.1527 18.392 10.0907 18.3085 10.0175L17.4817 11.2347C17.6322 11.353 17.8025 11.4612 17.9878 11.5558C18.1714 11.6502 18.3678 11.7311 18.5713 11.7961C18.772 11.8608 18.9821 11.911 19.1946 11.9471C19.4081 11.9821 19.6223 12 19.831 12C20.3274 12 20.8043 11.9265 21.2473 11.783C21.6927 11.6371 22.0892 11.4136 22.4257 11.1184C22.7628 10.8226 23.0326 10.4452 23.2293 9.99664C23.425 9.54946 23.5246 9.01434 23.5246 8.40744V7.87669V2.80143V2.41356H22.5168ZM35.6452 7.97832C36.1063 8.19769 36.662 8.20612 37.1603 8.00696C37.4006 7.91092 37.6138 7.78523 37.7944 7.6319L38.6286 8.91883C38.6225 8.92449 38.6165 8.92958 38.6106 8.93466L38.6105 8.93469C38.6019 8.94201 38.5934 8.94931 38.5847 8.95826L38.5783 8.95219L38.5837 8.9586C38.2991 9.17393 37.9693 9.34747 37.6034 9.47384C37.2377 9.59987 36.8446 9.66423 36.4351 9.66423C36.107 9.66423 35.7843 9.61975 35.4753 9.53247C35.1669 9.4452 34.875 9.32085 34.6079 9.16314C34.3405 9.00611 34.0928 8.81437 33.8706 8.59297C33.6488 8.37225 33.4554 8.12288 33.2949 7.85195C33.1343 7.58102 33.0087 7.28549 32.9219 6.97378C32.8354 6.66207 32.7915 6.33284 32.7915 5.99451C32.7915 5.65619 32.8354 5.32662 32.9219 5.01525C33.0087 4.70354 33.1343 4.40801 33.2949 4.13708C33.4554 3.86614 33.6488 3.61712 33.8706 3.39606C34.0928 3.17466 34.3405 2.98292 34.6079 2.82589C34.875 2.66818 35.1669 2.54383 35.4753 2.45655C35.7843 2.36928 36.107 2.3248 36.4351 2.3248C36.8446 2.3248 37.2377 2.38916 37.6034 2.51553C37.9693 2.64189 38.2991 2.8151 38.5837 3.03043L38.5783 3.03717L38.5847 3.03077C38.5928 3.03892 38.6008 3.04584 38.6088 3.05277C38.6153 3.05846 38.6219 3.06416 38.6286 3.07053L37.7944 4.35713C37.6138 4.2038 37.4006 4.07811 37.1603 3.98207C36.662 3.78291 36.1063 3.79133 35.6452 4.01071C35.4045 4.12562 35.1891 4.28366 35.0061 4.48012C34.8228 4.67658 34.6763 4.90876 34.5697 5.16992C34.4645 5.42973 34.4112 5.70741 34.4112 5.99451C34.4112 6.28162 34.4645 6.55929 34.5697 6.81911C34.6763 7.0806 34.8228 7.31244 35.0061 7.5089C35.1891 7.70536 35.4045 7.86341 35.6452 7.97832ZM41.6376 9.5379H39.9301V2.42929H41.6376V9.5379Z" fill="#CED4DA"/>
</svg>
