<svg width="20" height="20" viewBox="0 0 20 20" fill="none" xmlns="http://www.w3.org/2000/svg">
<path d="M2.80397 13.3542C2.86232 13.2452 2.89286 13.1236 2.89286 13V8.5C2.89286 4.80671 6.04381 1.75 10 1.75C13.9562 1.75 17.1071 4.80671 17.1071 8.5V13C17.1071 13.1236 17.1377 13.2452 17.196 13.3542L18.5502 15.8819C18.6394 16.0485 18.5188 16.25 18.3298 16.25H1.67017C1.48124 16.25 1.36058 16.0485 1.4498 15.8819L2.80397 13.3542Z" stroke="white" stroke-width="1.5" stroke-miterlimit="10" stroke-linejoin="round"/>
<rect x="9.25" width="1.5" height="2" fill="white"/>
<path d="M8.23743 18.75H11.7626C11.37 19.0321 10.7556 19.25 10 19.25C9.24438 19.25 8.62998 19.0321 8.23743 18.75Z" fill="white" stroke="white" stroke-width="1.5"/>
</svg>
