<svg width="16" height="16" viewBox="0 0 16 16" fill="none" xmlns="http://www.w3.org/2000/svg">
<path fill-rule="evenodd" clip-rule="evenodd" d="M9.6988 9.29428C10.9162 8.67465 11.7501 7.40981 11.7501 5.9502C11.7501 3.87913 10.0712 2.2002 8.00009 2.2002C5.92903 2.2002 4.25009 3.87913 4.25009 5.9502C4.25009 7.40978 5.08398 8.67461 6.30133 9.29425C4.54911 9.75397 3.0306 10.9136 2.13407 12.5437L1.79074 13.1679C1.76401 13.2165 1.75 13.2711 1.75 13.3265V13.4123C1.75 13.7785 2.04685 14.0753 2.41303 14.0753H13.587C13.9532 14.0753 14.25 13.7785 14.25 13.4123V13.3265C14.25 13.2711 14.236 13.2165 14.2093 13.1679L13.8659 12.5437C12.9694 10.9137 11.451 9.75402 9.6988 9.29428Z" fill="#868E96"/>
</svg>
