<svg width="21" height="20" viewBox="0 0 21 20" fill="none" xmlns="http://www.w3.org/2000/svg">
<path d="M8.57003 13.2502L8.52157 13.0806C8.52157 13.0806 8.52158 13.0806 8.52158 13.0806L8.57003 13.2502ZM8.57003 13.2502L8.63476 13.2802H8.63476L8.57003 13.2502ZM10.2883 8.85275C10.2882 8.85274 10.2882 8.85274 10.2882 8.85274L10.47 8.7502L10.2883 8.85275ZM13.1279 11.9509C13.1279 11.9509 13.1279 11.9509 13.1279 11.9509L13.15 12.1502L13.1279 11.9509Z" fill="#212529" stroke="white"/>
<path d="M15.5 17.75H6.5C5.39 17.75 4.5 16.85 4.5 15.75V4.75C4.5 3.65 5.4 2.75 6.5 2.75H12.5L17.5 7.75V15.75C17.5 16.86 16.6 17.75 15.5 17.75Z" stroke="white" stroke-width="1.5" stroke-linejoin="round"/>
</svg>
