<svg width="24" height="24" viewBox="0 0 24 24" fill="none" xmlns="http://www.w3.org/2000/svg">
<path fill-rule="evenodd" clip-rule="evenodd" d="M3.5 20.5V3.5H20.5V20.5H3.5ZM2 3C2 2.44772 2.44772 2 3 2H21C21.5523 2 22 2.44772 22 3V21C22 21.5523 21.5523 22 21 22H3C2.44772 22 2 21.5523 2 21V3ZM14.0995 12.532C14.2995 12.2654 14.6995 12.2654 14.8995 12.532L18.3995 17.1987C18.6467 17.5283 18.4115 17.9987 17.9995 17.9987H5.95985C5.55534 17.9987 5.31827 17.5434 5.55024 17.212L8.08991 13.5839C8.28896 13.2995 8.71009 13.2995 8.90914 13.5839L11.034 16.6194L14.0995 12.532Z" fill="#212529"/>
</svg>
