<svg width="16" height="16" viewBox="0 0 16 16" fill="none" xmlns="http://www.w3.org/2000/svg">
  <path fill-rule="evenodd" clip-rule="evenodd"
    d="M14.5 8C14.5 11.5899 11.5899 14.5 8 14.5C4.41015 14.5 1.5 11.5899 1.5 8C1.5 4.41015 4.41015 1.5 8 1.5C11.5899 1.5 14.5 4.41015 14.5 8ZM16 8C16 12.4183 12.4183 16 8 16C3.58172 16 0 12.4183 0 8C0 3.58172 3.58172 0 8 0C12.4183 0 16 3.58172 16 8ZM6.10543 4.35168C6.61048 3.94942 7.28562 3.75 8.01147 3.75C8.80249 3.75 9.48533 3.97355 9.97516 4.38311C10.4686 4.79572 10.75 5.38459 10.75 6.07287C10.75 6.55261 10.6273 6.96282 10.397 7.31231C10.1684 7.65919 9.84267 7.93313 9.45541 8.15705L9.45452 8.15756C9.12703 8.34512 8.9291 8.51492 8.80506 8.7194C8.6815 8.92311 8.61387 9.19016 8.6055 9.60571V9.66802C8.6055 9.80609 8.49358 9.91802 8.3555 9.91802H7.18578C7.04771 9.91802 6.93578 9.80609 6.93578 9.66802V9.6002C6.94466 8.87013 7.06298 8.35797 7.30269 7.96442C7.54292 7.57001 7.88693 7.32569 8.27517 7.09864L8.27731 7.09738C8.72201 6.8432 9 6.51113 9 6.07287C9 5.57175 8.59995 5.22166 8.01147 5.22166C7.74732 5.22166 7.50069 5.29785 7.31903 5.4443C7.1425 5.5866 7.00959 5.80893 6.98801 6.14297C6.97952 6.27451 6.87035 6.37686 6.73853 6.37686H5.5C5.43225 6.37686 5.3674 6.34936 5.3203 6.30066C5.2732 6.25197 5.24788 6.18624 5.25014 6.11853C5.27545 5.35896 5.59516 4.7581 6.10543 4.35168ZM6.75228 11.2335C6.74642 10.6564 7.25003 10.2169 7.81651 10.2169C8.38371 10.2169 8.87297 10.6615 8.88071 11.2301L8.8808 11.2369C8.87302 11.8081 8.38155 12.2431 7.81957 12.25L7.8135 12.2501C7.25224 12.2433 6.74638 11.813 6.75228 11.2335Z"
    fill="#868E96" />
</svg>