<svg width="16" height="16" viewBox="0 0 16 16" fill="none" xmlns="http://www.w3.org/2000/svg">
<path fill-rule="evenodd" clip-rule="evenodd" d="M15 1L7.3 1.00024H1C0.447715 1.00024 0 1.44796 0 2.00024V14.9904C0 15.4042 0.473891 15.6389 0.803017 15.3882L3.23151 13.5379C3.40568 13.4052 3.61858 13.3334 3.83754 13.3334H15C15.5523 13.3334 16 12.8856 16 12.3334V2C16 1.4477 15.5523 0.999983 15 1ZM8.01352 3.5C7.42435 3.5 6.87296 3.66473 6.45895 4.00026C6.04001 4.33978 5.77927 4.84074 5.75866 5.46987L5.75021 5.72807H7.23123L7.24609 5.49394C7.26263 5.23352 7.36369 5.06517 7.49339 4.95879C7.62791 4.84845 7.81259 4.78947 8.01352 4.78947C8.4597 4.78947 8.75298 5.05627 8.75298 5.43421C8.75298 5.76814 8.54633 6.0251 8.19959 6.22676L8.19744 6.22804C7.88519 6.41385 7.602 6.61747 7.40404 6.94818C7.20684 7.27761 7.11179 7.70264 7.10466 8.29964V8.60526H8.53778V8.30508C8.54442 7.97154 8.59778 7.76335 8.69078 7.60736C8.784 7.45098 8.93415 7.31816 9.19208 7.16786L9.19298 7.16733C9.50703 6.98257 9.77352 6.75515 9.96104 6.46556C10.1501 6.17354 10.2502 5.83167 10.2502 5.43421C10.2502 4.86275 10.0203 4.37133 9.61504 4.02655C9.21313 3.68461 8.65521 3.5 8.01352 3.5ZM8.59982 10C8.59982 10.4142 8.26403 10.75 7.84981 10.75C7.4356 10.75 7.09981 10.4142 7.09981 10C7.09981 9.58579 7.4356 9.25 7.84981 9.25C8.26403 9.25 8.59982 9.58579 8.59982 10Z" fill="#4263EB"/>
<path fill-rule="evenodd" clip-rule="evenodd" d="M15 1L7.3 1.00024H1C0.447715 1.00024 0 1.44796 0 2.00024V14.9904C0 15.4042 0.473891 15.6389 0.803017 15.3882L3.23151 13.5379C3.40568 13.4052 3.61858 13.3334 3.83754 13.3334H15C15.5523 13.3334 16 12.8856 16 12.3334V2C16 1.4477 15.5523 0.999983 15 1ZM8.01352 3.5C7.42435 3.5 6.87296 3.66473 6.45895 4.00026C6.04001 4.33978 5.77927 4.84074 5.75866 5.46987L5.75021 5.72807H7.23123L7.24609 5.49394C7.26263 5.23352 7.36369 5.06517 7.49339 4.95879C7.62791 4.84845 7.81259 4.78947 8.01352 4.78947C8.4597 4.78947 8.75298 5.05627 8.75298 5.43421C8.75298 5.76814 8.54633 6.0251 8.19959 6.22676L8.19744 6.22804C7.88519 6.41385 7.602 6.61747 7.40404 6.94818C7.20684 7.27761 7.11179 7.70264 7.10466 8.29964V8.60526H8.53778V8.30508C8.54442 7.97154 8.59778 7.76335 8.69078 7.60736C8.784 7.45098 8.93415 7.31816 9.19208 7.16786L9.19298 7.16733C9.50703 6.98257 9.77352 6.75515 9.96104 6.46556C10.1501 6.17354 10.2502 5.83167 10.2502 5.43421C10.2502 4.86275 10.0203 4.37133 9.61504 4.02655C9.21313 3.68461 8.65521 3.5 8.01352 3.5ZM8.59982 10C8.59982 10.4142 8.26403 10.75 7.84981 10.75C7.4356 10.75 7.09981 10.4142 7.09981 10C7.09981 9.58579 7.4356 9.25 7.84981 9.25C8.26403 9.25 8.59982 9.58579 8.59982 10Z" fill="#7048E8"/>
</svg>
