<svg width="16" height="16" viewBox="0 0 16 16" fill="none" xmlns="http://www.w3.org/2000/svg">
  <path fill-rule="evenodd" clip-rule="evenodd"
    d="M3 8C3 5.21238 5.19128 3 7.83665 3C9.12149 3 10.2966 3.51904 11.1675 4.3744L9.12657 4.37871L9.13079 6.37871L13.3824 6.36973C13.933 6.36857 14.3791 5.92248 14.3803 5.37185L14.3892 1.15609L12.3892 1.15186L12.3858 2.77479C11.1807 1.67397 9.58891 1 7.83665 1C4.03503 1 1 4.16021 1 8C1 11.8398 4.03503 15 7.83665 15C10.0272 15 11.9701 13.945 13.2161 12.3205L11.6291 11.1033C10.7374 12.2659 9.36651 13 7.83665 13C5.19128 13 3 10.7876 3 8Z"
    fill="#FF542D" />
</svg>