<svg width="25" height="24" viewBox="0 0 25 24" fill="none" xmlns="http://www.w3.org/2000/svg">
  <path
    d="M9.97274 3.12009C10.2672 2.95997 10.622 2.95997 10.9164 3.12008L17.4582 7.69328C17.4671 7.69956 17.4609 7.7138 17.4502 7.71148C17.1126 7.63851 16.7623 7.6001 16.403 7.6001C15.9226 7.6001 15.458 7.66881 15.0186 7.79702C15.0039 7.80132 14.9879 7.79869 14.9754 7.78978L10.4446 4.56824L3.98961 9.15825V19.5H8.5V21H3.49307C2.94461 21 2.5 20.5523 2.5 20V8.86001C2.5 8.49255 2.70013 8.1547 3.02122 7.9801L9.97274 3.12009Z"
    fill="#212529" />
  <path
    d="M20.1001 13.1998C20.1001 14.601 19.2995 15.8153 18.1308 16.4101C19.8129 16.8514 21.2706 17.9647 22.1313 19.5295L22.4609 20.1288C22.4865 20.1754 22.5 20.2278 22.5 20.2811V20.3634C22.5 20.7149 22.215 20.9999 21.8635 20.9999H11.1365C10.785 20.9999 10.5 20.7149 10.5 20.3634V20.2811C10.5 20.2278 10.5135 20.1754 10.5391 20.1288L10.8687 19.5295C11.7294 17.9647 13.1871 16.8514 14.8693 16.4101C13.7006 15.8152 12.9001 14.601 12.9001 13.1998C12.9001 11.2116 14.5119 9.59977 16.5001 9.59977C18.4883 9.59977 20.1001 11.2116 20.1001 13.1998Z"
    fill="#212529" />
</svg>