<svg width="14" height="14" viewBox="0 0 14 14" fill="none" xmlns="http://www.w3.org/2000/svg">
<path fill-rule="evenodd" clip-rule="evenodd" d="M8.13026 5.12867L12.3819 5.11969C12.7949 5.11882 13.1294 4.78425 13.1303 4.37128L13.1392 0.155519L11.6392 0.152344L11.6345 2.37554C10.4362 1.07039 8.73313 0.249957 6.83665 0.249957C3.17956 0.249957 0.25 3.29168 0.25 6.99996C0.25 10.7082 3.17956 13.75 6.83665 13.75C8.94459 13.75 10.816 12.735 12.0177 11.1683L10.8275 10.2554C9.89153 11.4757 8.44909 12.25 6.83665 12.25C4.04675 12.25 1.75 9.9191 1.75 6.99996C1.75 4.08081 4.04675 1.74996 6.83665 1.74996C8.39418 1.74996 9.79538 2.47358 10.7318 3.62317L8.1271 3.62867L8.13026 5.12867Z" fill="#495057"/>
</svg>
