<svg width="25" height="24" viewBox="0 0 25 24" fill="none" xmlns="http://www.w3.org/2000/svg">
  <path fill-rule="evenodd" clip-rule="evenodd"
    d="M0.5 1C0.5 0.447716 0.947715 0 1.5 0H7.5C8.05228 0 8.5 0.447715 8.5 1V15.291L0.533476 23.2575C0.511638 23.1754 0.5 23.089 0.5 23V17V1ZM1.2395 23.9657C1.32255 23.9881 1.40989 24 1.5 24H7.5L7.50168 24L23.5 24C24.0523 24 24.5 23.5523 24.5 23V17C24.5 16.4477 24.0523 16 23.5 16L9.20523 16L1.2395 23.9657Z"
    fill="#748FFC" />
  <path d="M20 21C20.2761 21 20.5 21.2239 20.5 21.5L20.5 24L19.5 24L19.5 21.5C19.5 21.2239 19.7239 21 20 21Z"
    fill="#4C6EF5" />
  <path d="M14 21C14.2761 21 14.5 21.2239 14.5 21.5L14.5 24L13.5 24L13.5 21.5C13.5 21.2239 13.7239 21 14 21Z"
    fill="#4C6EF5" />
  <path d="M17 21C17.2761 21 17.5 21.2239 17.5 21.5L17.5 24L16.5 24L16.5 21.5C16.5 21.2239 16.7239 21 17 21Z"
    fill="#4C6EF5" />
  <path d="M11 21C11.2761 21 11.5 21.2239 11.5 21.5L11.5 24L10.5 24L10.5 21.5C10.5 21.2239 10.7239 21 11 21Z"
    fill="#4C6EF5" />
  <path d="M0.5 4H3C3.27614 4 3.5 4.22386 3.5 4.5C3.5 4.77614 3.27614 5 3 5H0.5V4Z" fill="#4C6EF5" />
  <path d="M0.5 10H3C3.27614 10 3.5 10.2239 3.5 10.5C3.5 10.7761 3.27614 11 3 11H0.5V10Z" fill="#4C6EF5" />
  <path d="M0.5 7H3C3.27614 7 3.5 7.22386 3.5 7.5C3.5 7.77614 3.27614 8 3 8H0.5V7Z" fill="#4C6EF5" />
  <path d="M0.5 13H3C3.27614 13 3.5 13.2239 3.5 13.5C3.5 13.7761 3.27614 14 3 14H0.5V13Z" fill="#4C6EF5" />
</svg>