<svg width="24" height="24" viewBox="0 0 24 24" fill="none" xmlns="http://www.w3.org/2000/svg">
  <mask id="path-1-inside-1_41_34358" fill="white">
    <path fill-rule="evenodd" clip-rule="evenodd"
      d="M18.5 9C20.433 9 22 7.433 22 5.5C22 3.567 20.433 2 18.5 2C16.567 2 15 3.567 15 5.5C15 5.88806 15.0632 6.26136 15.1797 6.6102L8.62955 10.4312C8.05431 9.28591 6.86894 8.5 5.5 8.5C3.567 8.5 2 10.067 2 12C2 13.933 3.567 15.5 5.5 15.5C6.86894 15.5 8.05431 14.7141 8.62955 13.5688L15.1797 17.3898C15.0632 17.7386 15 18.1119 15 18.5C15 20.433 16.567 22 18.5 22C20.433 22 22 20.433 22 18.5C22 16.567 20.433 15 18.5 15C17.4947 15 16.5884 15.4238 15.95 16.1026L8.99967 12.0482C8.99989 12.0322 9 12.0161 9 12C9 11.9839 8.99989 11.9678 8.99967 11.9518L15.95 7.89743C16.5884 8.57616 17.4947 9 18.5 9Z" />
  </mask>
  <path
    d="M15.1797 6.6102L15.9356 7.90587L16.989 7.29138L16.6024 6.13472L15.1797 6.6102ZM8.62955 10.4312L7.28913 11.1044L8.00592 12.5315L9.38535 11.7268L8.62955 10.4312ZM8.62955 13.5688L9.38535 12.2732L8.00592 11.4685L7.28913 12.8956L8.62955 13.5688ZM15.1797 17.3898L16.6024 17.8653L16.989 16.7086L15.9356 16.0941L15.1797 17.3898ZM15.95 16.1026L15.1942 17.3982L16.225 17.9996L17.0427 17.1302L15.95 16.1026ZM8.99967 12.0482L7.49981 12.028L7.488 12.9029L8.24387 13.3439L8.99967 12.0482ZM8.99967 11.9518L8.24387 10.6561L7.488 11.0971L7.49981 11.972L8.99967 11.9518ZM15.95 7.89743L17.0427 6.86976L16.225 6.00044L15.1942 6.60176L15.95 7.89743ZM20.5 5.5C20.5 6.60457 19.6046 7.5 18.5 7.5V10.5C21.2614 10.5 23.5 8.26142 23.5 5.5H20.5ZM18.5 3.5C19.6046 3.5 20.5 4.39543 20.5 5.5H23.5C23.5 2.73858 21.2614 0.5 18.5 0.5V3.5ZM16.5 5.5C16.5 4.39543 17.3954 3.5 18.5 3.5V0.5C15.7386 0.5 13.5 2.73858 13.5 5.5H16.5ZM16.6024 6.13472C16.5364 5.93722 16.5 5.72438 16.5 5.5H13.5C13.5 6.05174 13.5899 6.58552 13.7571 7.08569L16.6024 6.13472ZM9.38535 11.7268L15.9356 7.90587L14.4239 5.31454L7.87374 9.13549L9.38535 11.7268ZM5.5 10C6.28007 10 6.95858 10.4463 7.28913 11.1044L9.96996 9.75789C9.15004 8.1255 7.4578 7 5.5 7V10ZM3.5 12C3.5 10.8954 4.39543 10 5.5 10V7C2.73858 7 0.5 9.23858 0.5 12H3.5ZM5.5 14C4.39543 14 3.5 13.1046 3.5 12H0.5C0.5 14.7614 2.73858 17 5.5 17V14ZM7.28913 12.8956C6.95858 13.5537 6.28007 14 5.5 14V17C7.4578 17 9.15004 15.8745 9.96996 14.2421L7.28913 12.8956ZM15.9356 16.0941L9.38535 12.2732L7.87374 14.8645L14.4239 18.6855L15.9356 16.0941ZM16.5 18.5C16.5 18.2756 16.5364 18.0628 16.6024 17.8653L13.7571 16.9143C13.5899 17.4145 13.5 17.9483 13.5 18.5H16.5ZM18.5 20.5C17.3954 20.5 16.5 19.6046 16.5 18.5H13.5C13.5 21.2614 15.7386 23.5 18.5 23.5V20.5ZM20.5 18.5C20.5 19.6046 19.6046 20.5 18.5 20.5V23.5C21.2614 23.5 23.5 21.2614 23.5 18.5H20.5ZM18.5 16.5C19.6046 16.5 20.5 17.3954 20.5 18.5H23.5C23.5 15.7386 21.2614 13.5 18.5 13.5V16.5ZM17.0427 17.1302C17.4094 16.7403 17.9254 16.5 18.5 16.5V13.5C17.064 13.5 15.7674 14.1073 14.8574 15.0749L17.0427 17.1302ZM8.24387 13.3439L15.1942 17.3982L16.7058 14.8069L9.75548 10.7525L8.24387 13.3439ZM7.5 12C7.5 12.0093 7.49994 12.0187 7.49981 12.028L10.4995 12.0684C10.4998 12.0457 10.5 12.0228 10.5 12H7.5ZM7.49981 11.972C7.49994 11.9813 7.5 11.9907 7.5 12H10.5C10.5 11.9772 10.4998 11.9543 10.4995 11.9316L7.49981 11.972ZM15.1942 6.60176L8.24387 10.6561L9.75548 13.2475L16.7058 9.1931L15.1942 6.60176ZM18.5 7.5C17.9254 7.5 17.4094 7.25967 17.0427 6.86976L14.8574 8.92511C15.7674 9.89266 17.064 10.5 18.5 10.5V7.5Z"
    fill="currentColor" mask="url(#path-1-inside-1_41_34358)" />
</svg>