<svg width="25" height="24" viewBox="0 0 25 24" fill="none" xmlns="http://www.w3.org/2000/svg">
<mask id="path-1-inside-1_36_6021" fill="white">
<path fill-rule="evenodd" clip-rule="evenodd" d="M19 9C20.933 9 22.5 7.433 22.5 5.5C22.5 3.567 20.933 2 19 2C17.067 2 15.5 3.567 15.5 5.5C15.5 5.88806 15.5632 6.26136 15.6797 6.6102L9.12955 10.4312C8.55431 9.28591 7.36894 8.5 6 8.5C4.067 8.5 2.5 10.067 2.5 12C2.5 13.933 4.067 15.5 6 15.5C7.36894 15.5 8.55431 14.7141 9.12955 13.5688L15.6797 17.3898C15.5632 17.7386 15.5 18.1119 15.5 18.5C15.5 20.433 17.067 22 19 22C20.933 22 22.5 20.433 22.5 18.5C22.5 16.567 20.933 15 19 15C17.9947 15 17.0884 15.4238 16.45 16.1026L9.49967 12.0482C9.49989 12.0322 9.5 12.0161 9.5 12C9.5 11.9839 9.49989 11.9678 9.49967 11.9518L16.45 7.89743C17.0884 8.57616 17.9947 9 19 9Z"/>
</mask>
<path d="M15.6797 6.6102L16.4356 7.90587L17.489 7.29138L17.1024 6.13472L15.6797 6.6102ZM9.12955 10.4312L7.78913 11.1044L8.50592 12.5315L9.88535 11.7268L9.12955 10.4312ZM9.12955 13.5688L9.88535 12.2732L8.50592 11.4685L7.78913 12.8956L9.12955 13.5688ZM15.6797 17.3898L17.1024 17.8653L17.489 16.7086L16.4356 16.0941L15.6797 17.3898ZM16.45 16.1026L15.6942 17.3982L16.725 17.9996L17.5427 17.1302L16.45 16.1026ZM9.49967 12.0482L7.99981 12.028L7.988 12.9029L8.74387 13.3439L9.49967 12.0482ZM9.49967 11.9518L8.74387 10.6561L7.988 11.0971L7.99981 11.972L9.49967 11.9518ZM16.45 7.89743L17.5427 6.86976L16.725 6.00044L15.6942 6.60176L16.45 7.89743ZM21 5.5C21 6.60457 20.1046 7.5 19 7.5V10.5C21.7614 10.5 24 8.26142 24 5.5H21ZM19 3.5C20.1046 3.5 21 4.39543 21 5.5H24C24 2.73858 21.7614 0.5 19 0.5V3.5ZM17 5.5C17 4.39543 17.8954 3.5 19 3.5V0.5C16.2386 0.5 14 2.73858 14 5.5H17ZM17.1024 6.13472C17.0364 5.93722 17 5.72438 17 5.5H14C14 6.05174 14.0899 6.58552 14.2571 7.08569L17.1024 6.13472ZM9.88535 11.7268L16.4356 7.90587L14.9239 5.31454L8.37374 9.13549L9.88535 11.7268ZM6 10C6.78007 10 7.45858 10.4463 7.78913 11.1044L10.47 9.75789C9.65004 8.1255 7.9578 7 6 7V10ZM4 12C4 10.8954 4.89543 10 6 10V7C3.23858 7 1 9.23858 1 12H4ZM6 14C4.89543 14 4 13.1046 4 12H1C1 14.7614 3.23858 17 6 17V14ZM7.78913 12.8956C7.45858 13.5537 6.78007 14 6 14V17C7.9578 17 9.65004 15.8745 10.47 14.2421L7.78913 12.8956ZM16.4356 16.0941L9.88535 12.2732L8.37374 14.8645L14.9239 18.6855L16.4356 16.0941ZM17 18.5C17 18.2756 17.0364 18.0628 17.1024 17.8653L14.2571 16.9143C14.0899 17.4145 14 17.9483 14 18.5H17ZM19 20.5C17.8954 20.5 17 19.6046 17 18.5H14C14 21.2614 16.2386 23.5 19 23.5V20.5ZM21 18.5C21 19.6046 20.1046 20.5 19 20.5V23.5C21.7614 23.5 24 21.2614 24 18.5H21ZM19 16.5C20.1046 16.5 21 17.3954 21 18.5H24C24 15.7386 21.7614 13.5 19 13.5V16.5ZM17.5427 17.1302C17.9094 16.7403 18.4254 16.5 19 16.5V13.5C17.564 13.5 16.2674 14.1073 15.3574 15.0749L17.5427 17.1302ZM8.74387 13.3439L15.6942 17.3982L17.2058 14.8069L10.2555 10.7525L8.74387 13.3439ZM8 12C8 12.0093 7.99994 12.0187 7.99981 12.028L10.9995 12.0684C10.9998 12.0457 11 12.0228 11 12H8ZM7.99981 11.972C7.99994 11.9813 8 11.9907 8 12H11C11 11.9772 10.9998 11.9543 10.9995 11.9316L7.99981 11.972ZM15.6942 6.60176L8.74387 10.6561L10.2555 13.2475L17.2058 9.1931L15.6942 6.60176ZM19 7.5C18.4254 7.5 17.9094 7.25967 17.5427 6.86976L15.3574 8.92511C16.2674 9.89266 17.564 10.5 19 10.5V7.5Z" fill="#868E96" mask="url(#path-1-inside-1_36_6021)"/>
</svg>
