<svg width="16" height="16" viewBox="0 0 16 16" fill="none" xmlns="http://www.w3.org/2000/svg">
  <path
    d="M14.9983 8.16233L8.1118 11.6056C8.04142 11.6408 7.95858 11.6408 7.8882 11.6056L1.00171 8.16233C0.823366 8.07316 0.816061 7.82132 0.988941 7.72197L3.2588 6.41745C3.3314 6.37573 3.42006 6.37312 3.49498 6.4105L7.21872 8.26837C7.71066 8.51381 8.28934 8.51381 8.78128 8.26837L12.505 6.4105C12.5799 6.37312 12.6686 6.37573 12.7412 6.41745L13.1149 5.76719L12.7412 6.41745L15.0111 7.72197C15.1839 7.82132 15.1766 8.07316 14.9983 8.16233Z"
    stroke="#495057" stroke-width="1.5" stroke-linejoin="round" />
  <path
    d="M14.9983 11.1623L8.1118 14.6056C8.04142 14.6408 7.95858 14.6408 7.8882 14.6056L1.00171 11.1623C0.823366 11.0732 0.816061 10.8213 0.988941 10.722L3.2588 9.41745C3.3314 9.37573 3.42006 9.37312 3.49498 9.4105L7.21872 11.2684C7.71066 11.5138 8.28934 11.5138 8.78128 11.2684L12.505 9.4105C12.5799 9.37312 12.6686 9.37573 12.7412 9.41745L13.1149 8.76719L12.7412 9.41745L15.0111 10.722C15.1839 10.8213 15.1766 11.0732 14.9983 11.1623Z"
    stroke="#495057" stroke-width="1.5" stroke-linejoin="round" />
  <path
    d="M1.12426 4.77639L7.8882 1.39443C7.95858 1.35924 8.04142 1.35924 8.1118 1.39443L14.8757 4.77639C15.06 4.86852 15.06 5.13147 14.8757 5.22361L8.1118 8.60557C8.04142 8.64076 7.95858 8.64076 7.8882 8.60557L1.12426 5.22361C0.940003 5.13148 0.94 4.86853 1.12426 4.77639Z"
    stroke="#495057" stroke-width="1.5" stroke-linejoin="round" />
</svg>