<svg width="20" height="20" viewBox="0 0 20 20" fill="none" xmlns="http://www.w3.org/2000/svg">
  <path
    d="M9.91 13.0275C9.76 13.1775 9.57 13.2475 9.38 13.2475C9.19 13.2475 9 13.1775 8.85 13.0275L6.35 10.5275L7.41 9.4675L9.38 11.4375L12.6 8.2175L13.66 9.2775L9.91 13.0275ZM10.49 3.1275C10.19 2.9575 9.81 2.9575 9.51 3.1275L2.51 7.0675C2.2 7.2475 2 7.5775 2 7.9375V15.9975C2 16.5475 2.45 16.9975 3 16.9975H17C17.55 16.9975 18 16.5475 18 15.9975V7.9375C18 7.5775 17.81 7.2475 17.49 7.0675L10.49 3.1275Z"
    fill="currentColor" />
</svg>