<svg width="21" height="20" viewBox="0 0 21 20" fill="none" xmlns="http://www.w3.org/2000/svg">
<path d="M13.11 12.8575H12.34V13.9375H10.91V12.8575H7.82001V11.6775L10.46 7.5175H12.35V11.6675H13.12V12.8575H13.11ZM10.99 3.1275C10.69 2.9575 10.31 2.9575 10.01 3.1275L3.01001 7.0675C2.70001 7.2475 2.5 7.5775 2.5 7.9375V15.9975C2.5 16.5475 2.95 16.9975 3.5 16.9975H17.5C18.05 16.9975 18.5 16.5475 18.5 15.9975V7.9375C18.5 7.5775 18.31 7.2475 17.99 7.0675L10.99 3.1275Z" fill="currentColor"/>
<path d="M9.2998 11.6174V11.6674H10.9298V9.12744H10.8798L9.2998 11.6174Z" fill="currentColor"/>
</svg>
