<svg width="20" height="20" viewBox="0 0 20 20" fill="none" xmlns="http://www.w3.org/2000/svg">
  <path
    d="M9.93001 14.0275C8.48001 14.0275 7.45001 13.2175 7.43001 12.0675H8.94C8.94 12.4975 9.37001 12.7975 9.93001 12.7975C10.49 12.7975 10.9 12.4675 10.89 12.0075C10.89 11.5475 10.47 11.2075 9.8 11.2075H9.18001V10.1275H9.8C10.38 10.1275 10.78 9.8175 10.78 9.3575C10.78 8.9275 10.44 8.6075 9.93001 8.6075C9.42001 8.6075 9.00001 8.9075 8.99001 9.3575H7.55C7.57 8.2175 8.57 7.4275 9.94 7.4275C11.31 7.4275 12.23 8.2175 12.23 9.2675C12.23 9.9875 11.71 10.4875 10.98 10.5975V10.6375C11.96 10.7575 12.47 11.3175 12.47 12.1175C12.47 13.2275 11.42 14.0275 9.93001 14.0275ZM10.49 3.1275C10.19 2.9575 9.81001 2.9575 9.51001 3.1275L2.51001 7.0675C2.20001 7.2475 2 7.5775 2 7.9375V15.9975C2 16.5475 2.45 16.9975 3 16.9975H17C17.55 16.9975 18 16.5475 18 15.9975V7.9375C18 7.5775 17.81 7.2475 17.49 7.0675L10.49 3.1275Z"
    fill="currentColor" />
</svg>