<svg width="20" height="20" viewBox="0 0 20 20" fill="none" xmlns="http://www.w3.org/2000/svg">
  <path
    d="M12.35 13.9375H7.65V12.8475L9.97 10.7875C10.51 10.2875 10.81 9.9575 10.82 9.4775C10.82 8.9475 10.42 8.6075 9.89 8.6075C9.36 8.6075 8.98 8.9575 8.98 9.5375H7.56C7.56 8.2375 8.5 7.4275 9.9 7.4275C11.3 7.4275 12.27 8.2075 12.27 9.3575C12.27 10.0975 11.91 10.7075 10.53 11.9175L9.73 12.6675V12.7075H12.35V13.9275V13.9375ZM10.49 3.1275C10.19 2.9575 9.81 2.9575 9.51 3.1275L2.51 7.0675C2.2 7.2475 2 7.5775 2 7.9375V15.9975C2 16.5475 2.45 16.9975 3 16.9975H17C17.55 16.9975 18 16.5475 18 15.9975V7.9375C18 7.5775 17.81 7.2475 17.49 7.0675L10.49 3.1275Z"
    fill="currentColor" />
</svg>