<svg width="21" height="20" viewBox="0 0 21 20" fill="none" xmlns="http://www.w3.org/2000/svg">
<path d="M10.49 14.0275C9.10001 14.0275 8.09001 13.2075 8.07001 12.0675H9.53C9.55 12.5475 9.97001 12.8575 10.49 12.8575C11.09 12.8575 11.52 12.4275 11.51 11.8075C11.51 11.1775 11.08 10.7475 10.47 10.7475C10.01 10.7475 9.71001 10.9275 9.54001 11.2675H8.2L8.52 7.5075H12.59V8.7275H9.75L9.60001 10.2575H9.64C9.86 9.9075 10.35 9.6575 10.95 9.6575C12.11 9.6575 12.96 10.5275 12.96 11.7475C12.96 13.0675 11.97 14.0075 10.49 14.0075V14.0275ZM10.99 3.1275C10.69 2.9575 10.31 2.9575 10.01 3.1275L3.01001 7.0675C2.70001 7.2475 2.5 7.5775 2.5 7.9375V15.9975C2.5 16.5475 2.95 16.9975 3.5 16.9975H17.5C18.05 16.9975 18.5 16.5475 18.5 15.9975V7.9375C18.5 7.5775 18.31 7.2475 17.99 7.0675L10.99 3.1275Z" fill="currentColor"/>
</svg>
