<svg width="20" height="20" viewBox="0 0 20 20" fill="none" xmlns="http://www.w3.org/2000/svg">
  <path
    d="M12.61 12.8575H11.84V13.9375H10.41V12.8575H7.32001V11.6775L9.96001 7.5175H11.85V11.6675H12.62V12.8575H12.61ZM10.49 3.1275C10.19 2.9575 9.81001 2.9575 9.51001 3.1275L2.51001 7.0675C2.20001 7.2475 2 7.5775 2 7.9375V15.9975C2 16.5475 2.45 16.9975 3 16.9975H17C17.55 16.9975 18 16.5475 18 15.9975V7.9375C18 7.5775 17.81 7.2475 17.49 7.0675L10.49 3.1275Z"
    fill="currentColor" />
  <path d="M8.7998 11.6175V11.6675H10.4298V9.1275H10.3798L8.7998 11.6175Z" fill="currentColor" />
</svg>