<svg width="21" height="20" viewBox="0 0 21 20" fill="none" xmlns="http://www.w3.org/2000/svg">
<path d="M10.43 14.0275C8.98001 14.0275 7.95001 13.2175 7.93001 12.0675H9.44C9.44 12.4975 9.87001 12.7975 10.43 12.7975C10.99 12.7975 11.4 12.4675 11.39 12.0075C11.39 11.5475 10.97 11.2075 10.3 11.2075H9.68001V10.1275H10.3C10.88 10.1275 11.28 9.8175 11.28 9.3575C11.28 8.9275 10.94 8.6075 10.43 8.6075C9.92001 8.6075 9.50001 8.9075 9.49001 9.3575H8.05C8.07 8.2175 9.07 7.4275 10.44 7.4275C11.81 7.4275 12.73 8.2175 12.73 9.2675C12.73 9.9875 12.21 10.4875 11.48 10.5975V10.6375C12.46 10.7575 12.97 11.3175 12.97 12.1175C12.97 13.2275 11.92 14.0275 10.43 14.0275ZM10.99 3.1275C10.69 2.9575 10.31 2.9575 10.01 3.1275L3.01001 7.0675C2.70001 7.2475 2.5 7.5775 2.5 7.9375V15.9975C2.5 16.5475 2.95 16.9975 3.5 16.9975H17.5C18.05 16.9975 18.5 16.5475 18.5 15.9975V7.9375C18.5 7.5775 18.31 7.2475 17.99 7.0675L10.99 3.1275Z" fill="currentColor"/>
</svg>
