<svg width="20" height="20" viewBox="0 0 20 20" fill="none" xmlns="http://www.w3.org/2000/svg">
  <path
    d="M9.99001 14.0275C8.60001 14.0275 7.59001 13.2075 7.57001 12.0675H9.03C9.05 12.5475 9.47001 12.8575 9.99001 12.8575C10.59 12.8575 11.02 12.4275 11.01 11.8075C11.01 11.1775 10.58 10.7475 9.97 10.7475C9.51 10.7475 9.21001 10.9275 9.04001 11.2675H7.7L8.02 7.5075H12.09V8.7275H9.25L9.10001 10.2575H9.14C9.36 9.9075 9.85 9.6575 10.45 9.6575C11.61 9.6575 12.46 10.5275 12.46 11.7475C12.46 13.0675 11.47 14.0075 9.99001 14.0075V14.0275ZM10.49 3.1275C10.19 2.9575 9.81001 2.9575 9.51001 3.1275L2.51001 7.0675C2.20001 7.2475 2 7.5775 2 7.9375V15.9975C2 16.5475 2.45 16.9975 3 16.9975H17C17.55 16.9975 18 16.5475 18 15.9975V7.9375C18 7.5775 17.81 7.2475 17.49 7.0675L10.49 3.1275Z"
    fill="currentColor" />
</svg>