<svg width="21" height="20" viewBox="0 0 21 20" fill="none" xmlns="http://www.w3.org/2000/svg">
<path d="M12.85 13.9375H8.15V12.8475L10.47 10.7875C11.01 10.2875 11.31 9.9575 11.32 9.4775C11.32 8.9475 10.92 8.6075 10.39 8.6075C9.86 8.6075 9.48 8.9575 9.48 9.5375H8.06C8.06 8.2375 9 7.4275 10.4 7.4275C11.8 7.4275 12.77 8.2075 12.77 9.3575C12.77 10.0975 12.41 10.7075 11.03 11.9175L10.23 12.6675V12.7075H12.85V13.9275V13.9375ZM10.99 3.1275C10.69 2.9575 10.31 2.9575 10.01 3.1275L3.01 7.0675C2.7 7.2475 2.5 7.5775 2.5 7.9375V15.9975C2.5 16.5475 2.95 16.9975 3.5 16.9975H17.5C18.05 16.9975 18.5 16.5475 18.5 15.9975V7.9375C18.5 7.5775 18.31 7.2475 17.99 7.0675L10.99 3.1275Z" fill="currentColor"/>
</svg>
