<svg width="21" height="20" viewBox="0 0 21 20" fill="none" xmlns="http://www.w3.org/2000/svg">
<path d="M10.41 13.0275C10.26 13.1775 10.07 13.2475 9.88 13.2475C9.69 13.2475 9.5 13.1775 9.35 13.0275L6.85 10.5275L7.91 9.4675L9.88 11.4375L13.1 8.2175L14.16 9.2775L10.41 13.0275ZM10.99 3.1275C10.69 2.9575 10.31 2.9575 10.01 3.1275L3.01 7.0675C2.7 7.2475 2.5 7.5775 2.5 7.9375V15.9975C2.5 16.5475 2.95 16.9975 3.5 16.9975H17.5C18.05 16.9975 18.5 16.5475 18.5 15.9975V7.9375C18.5 7.5775 18.31 7.2475 17.99 7.0675L10.99 3.1275Z" fill="#7048E8"/>
</svg>
