<svg width="80" height="80" viewBox="0 0 80 80" fill="none" xmlns="http://www.w3.org/2000/svg">
  <path fill-rule="evenodd" clip-rule="evenodd"
    d="M77.3241 23.9466L42.3241 5.57294C40.8689 4.809 39.1311 4.80902 37.6759 5.57301L2.67583 23.948C1.03054 24.8117 0 26.5167 0 28.3749V69.3526C0 72.114 2.23858 74.3526 5 74.3526H49.5694H75C77.7614 74.3526 80 72.114 80 69.3526V28.3736C80 26.5153 78.9694 24.8103 77.3241 23.9466ZM21.7233 42.3169L34.2234 54.8168C35.6878 56.2813 38.0622 56.2813 39.5266 54.8168L58.2766 36.0669L52.9733 30.7636L36.875 46.8619L27.0266 37.0136L21.7233 42.3169Z"
    fill="#7048E8" />
</svg>