<svg width="25" height="24" viewBox="0 0 25 24" fill="none" xmlns="http://www.w3.org/2000/svg">
<path fill-rule="evenodd" clip-rule="evenodd" d="M16.2886 4.95893C16.4651 3.30695 14.4446 2.35129 13.2468 3.51115L13.2077 3.54861L7.30317 9.36682H7.25V21H18.2373C18.9466 21 19.5894 20.5883 19.8775 19.9496L19.8878 19.9267L22.6069 13.6344C22.7013 13.4156 22.75 13.1802 22.75 12.9423V11.1355C22.75 10.1587 21.9464 9.36682 20.9551 9.36682H14.9695L16.2812 5.02874L16.2886 4.95893ZM5.75 21V9.36682H4.54487C3.55359 9.36682 2.75 10.1587 2.75 11.1355V19.2313C2.75 20.2081 3.55359 21 4.54487 21H5.75Z" fill="#7048E8"/>
</svg>
