<svg width="16" height="16" viewBox="0 0 16 16" fill="none" xmlns="http://www.w3.org/2000/svg">
<path fill-rule="evenodd" clip-rule="evenodd" d="M9.5 5.55453L10.2674 2.22908C10.489 1.26884 9.33472 0.600861 8.61257 1.27143L4 5.55469V14.0547L12.2996 14.0545C12.7201 14.0545 13.0957 13.7915 13.2394 13.3963C13.3592 13.0667 14.5034 9.92019 14.8803 8.88376C14.9599 8.66469 15 8.43528 15 8.20218V6.55453C15 6.00224 14.5523 5.55453 14 5.55453H9.5ZM3 14.0547V5.55469H2C1.44772 5.55469 1 6.00241 1 6.55469V13.0547C1 13.607 1.44772 14.0547 2 14.0547L3 14.0547Z" fill="#7048E8"/>
</svg>
