<svg width="16" height="16" viewBox="0 0 16 16" fill="none" xmlns="http://www.w3.org/2000/svg">
<mask id="mask0_36_5666" style="mask-type:alpha" maskUnits="userSpaceOnUse" x="0" y="0" width="16" height="16">
<rect width="16" height="16" fill="red"/>
</mask>
<g mask="url(#mask0_36_5666)">
<path d="M4.66671 13.9997V5.33307L8.66671 1.36641C8.83337 1.19974 9.0306 1.10252 9.25837 1.07474C9.48615 1.04696 9.7056 1.08863 9.91671 1.19974C10.1278 1.31085 10.2834 1.46641 10.3834 1.66641C10.4834 1.86641 10.5056 2.07196 10.45 2.28307L9.70004 5.33307H14C14.3556 5.33307 14.6667 5.46641 14.9334 5.73307C15.2 5.99974 15.3334 6.31085 15.3334 6.66641V7.99974C15.3334 8.07752 15.3223 8.16085 15.3 8.24974C15.2778 8.33863 15.2556 8.42196 15.2334 8.49974L13.2334 13.1997C13.1334 13.422 12.9667 13.6109 12.7334 13.7664C12.5 13.922 12.2556 13.9997 12 13.9997H4.66671ZM6.00004 5.89974V12.6664H11.6703C11.8704 12.6664 12.0511 12.5472 12.1299 12.3634L13.9596 8.09407C13.9863 8.03183 14 7.96482 14 7.89711V7.16641C14 6.89026 13.7762 6.66641 13.5 6.66641H8.63761C8.31321 6.66641 8.07469 6.36227 8.15202 6.04722L8.90004 2.99974L6.00004 5.89974ZM2.66671 13.9997C2.30004 13.9997 1.98615 13.8692 1.72504 13.6081C1.46393 13.347 1.33337 13.0331 1.33337 12.6664V6.66641C1.33337 6.29974 1.46393 5.98585 1.72504 5.72474C1.98615 5.46363 2.30004 5.33307 2.66671 5.33307H4.66671V6.66641H2.66671V12.6664H4.66671V13.9997H2.66671Z" fill="red"/>
</g>
</svg>
