<svg width="25" height="24" viewBox="0 0 25 24" fill="none" xmlns="http://www.w3.org/2000/svg">
<mask id="mask0_36_6006" style="mask-type:alpha" maskUnits="userSpaceOnUse" x="0" y="0" width="25" height="24">
<rect x="0.5" width="24" height="24" fill="#D9D9D9"/>
</mask>
<g mask="url(#mask0_36_6006)">
<path d="M7.5 21V8.00001L13.5 2.05001C13.75 1.80001 14.0458 1.65417 14.3875 1.61251C14.7292 1.57084 15.0583 1.63334 15.375 1.80001C15.6917 1.96667 15.925 2.20001 16.075 2.50001C16.225 2.80001 16.2583 3.10834 16.175 3.42501L15.05 8.00001H21.5C22.0333 8.00001 22.5 8.20001 22.9 8.60001C23.3 9.00001 23.5 9.46667 23.5 10V12C23.5 12.1167 23.4833 12.2417 23.45 12.375C23.4167 12.5083 23.3833 12.6333 23.35 12.75L20.35 19.8C20.2 20.1333 19.95 20.4167 19.6 20.65C19.25 20.8833 18.8833 21 18.5 21H7.5ZM9.5 8.85001V19H18.1703C18.3703 19 18.5511 18.8808 18.6299 18.697L21.4596 12.0943C21.4862 12.0321 21.5 11.9651 21.5 11.8974V10.5C21.5 10.2239 21.2761 10 21 10H13.1376C12.8132 10 12.5747 9.69587 12.652 9.38082L13.85 4.50001L9.5 8.85001ZM4.5 21C3.95 21 3.47917 20.8042 3.0875 20.4125C2.69583 20.0208 2.5 19.55 2.5 19V10C2.5 9.45001 2.69583 8.97917 3.0875 8.58751C3.47917 8.19584 3.95 8.00001 4.5 8.00001H7.5V10H4.5V19H7.5V21H4.5Z" fill="#868E96"/>
</g>
</svg>
