<svg width="17" height="16" viewBox="0 0 17 16" fill="none" xmlns="http://www.w3.org/2000/svg">
<path d="M7.68578 9.60324V9.66802H8.8555V9.60324C8.87271 8.72335 9.1422 8.33468 9.83028 7.94062C10.5585 7.51957 11 6.94197 11 6.07287C11 4.84211 10.0023 4 8.51147 4C7.14679 4 6.04587 4.75034 6 6.12686H7.23853C7.29014 5.32794 7.8922 4.97166 8.51147 4.97166C9.19954 4.97166 9.75 5.39811 9.75 6.07287C9.75 6.63968 9.38303 7.03914 8.90138 7.31444C8.1445 7.75709 7.70298 8.18893 7.68578 9.60324ZM7.50229 11.2335C7.49656 11.6545 7.86927 11.9946 8.31651 12C8.75803 11.9946 9.125 11.6545 9.13073 11.2335C9.125 10.8124 8.75803 10.4669 8.31651 10.4669C7.86927 10.4669 7.49656 10.8124 7.50229 11.2335Z" fill="#868E96" stroke="#868E96" stroke-width="0.5" stroke-linejoin="round"/>
<circle cx="8.5" cy="8" r="7.25" stroke="#868E96" stroke-width="1.5"/>
</svg>
