<svg width="16" height="16" viewBox="0 0 16 16" fill="none" xmlns="http://www.w3.org/2000/svg">
<path fill-rule="evenodd" clip-rule="evenodd" d="M9.25 3.25C9.25 3.94036 8.69036 4.5 8 4.5C7.30964 4.5 6.75 3.94036 6.75 3.25C6.75 2.55964 7.30964 2 8 2C8.69036 2 9.25 2.55964 9.25 3.25ZM9.25 8C9.25 8.69036 8.69036 9.25 8 9.25C7.30964 9.25 6.75 8.69036 6.75 8C6.75 7.30964 7.30964 6.75 8 6.75C8.69036 6.75 9.25 7.30964 9.25 8ZM8 14C8.69036 14 9.25 13.4404 9.25 12.75C9.25 12.0596 8.69036 11.5 8 11.5C7.30964 11.5 6.75 12.0596 6.75 12.75C6.75 13.4404 7.30964 14 8 14Z" fill="#868E96"/>
</svg>
