<svg width="16" height="16" viewBox="0 0 16 16" fill="none" xmlns="http://www.w3.org/2000/svg">
<path fill-rule="evenodd" clip-rule="evenodd" d="M13.8679 6.52164C13.0604 5.20646 11.2237 3 7.99976 3C4.77585 3 2.93913 5.20646 2.13182 6.52164C1.62273 7.34507 1.62273 8.3857 2.13182 9.20912C2.93938 10.5243 4.7761 12.7308 8 12.7308C11.2239 12.7308 13.0606 10.5243 13.8682 9.20912C14.3773 8.3857 14.377 7.34507 13.8679 6.52164ZM5.39634 7.8654C5.39634 6.4277 6.56192 5.26212 7.99962 5.26212C9.43659 5.26382 10.6012 6.42843 10.6029 7.8654C10.6029 9.3031 9.43732 10.4687 7.99962 10.4687C6.56192 10.4687 5.39634 9.3031 5.39634 7.8654ZM6.4377 7.8654C6.4377 8.72811 7.13691 9.42732 7.99962 9.42732C8.86234 9.42732 9.56154 8.72811 9.56154 7.8654C9.56154 7.00268 8.86234 6.30348 7.99962 6.30348C7.13691 6.30348 6.4377 7.00268 6.4377 7.8654Z" fill="#868E96"/>
</svg>
