<svg width="25" height="24" viewBox="0 0 25 24" fill="none" xmlns="http://www.w3.org/2000/svg">
<rect x="3.5" width="18" height="7" rx="0.5" fill="#F1F3F5"/>
<path d="M3.5 0.5C3.5 0.223858 3.72386 0 4 0H7.5V7H4C3.72386 7 3.5 6.77614 3.5 6.5V0.5Z" fill="#DEE2E6"/>
<path d="M3.5 1.5C3.5 1.22386 3.72386 1 4 1H21.5V7H4C3.72386 7 3.5 6.77614 3.5 6.5V1.5Z" fill="#DEE2E6"/>
<path d="M2.5 5H22.5V23.5C22.5 23.7761 22.2761 24 22 24H3C2.72386 24 2.5 23.7761 2.5 23.5V5Z" fill="#F1F3F5"/>
<path d="M2.5 5H7.5V24H3C2.72386 24 2.5 23.7761 2.5 23.5V5Z" fill="#DEE2E6"/>
<path d="M12.5 19.5C12.5 19.2239 12.7239 19 13 19H17C17.2761 19 17.5 19.2239 17.5 19.5V24H12.5V19.5Z" fill="#BAC8FF"/>
<rect x="14.75" y="19" width="0.5" height="5" fill="#F1F3F5"/>
<rect x="10.5" y="15" width="4" height="2" rx="0.5" fill="#BAC8FF"/>
<rect x="10.5" y="11" width="4" height="2" rx="0.5" fill="#BAC8FF"/>
<rect x="10.5" y="7" width="4" height="2" rx="0.5" fill="#BAC8FF"/>
<rect x="15.5" y="15" width="4" height="2" rx="0.5" fill="#BAC8FF"/>
<rect x="15.5" y="11" width="4" height="2" rx="0.5" fill="#BAC8FF"/>
<rect x="15.5" y="7" width="4" height="2" rx="0.5" fill="#BAC8FF"/>
<path d="M3.18711 2.23927C3.27794 2.09065 3.43957 2 3.61375 2H21.3863C21.5604 2 21.7221 2.09065 21.8129 2.23927L23.0351 4.23928C23.2387 4.57245 22.9989 5 22.6085 5H2.39153C2.00106 5 1.76128 4.57245 1.96489 4.23927L3.18711 2.23927Z" fill="#FFCD4E"/>
<path d="M3.18711 2.23927C3.27794 2.09065 3.43957 2 3.61375 2H7.5V5H2.39153C2.00106 5 1.76128 4.57245 1.96489 4.23927L3.18711 2.23927Z" fill="#E9AC11"/>
</svg>
