<svg width="36" height="36" viewBox="0 0 36 36" fill="none" xmlns="http://www.w3.org/2000/svg">
<rect width="36" height="36" rx="18" fill="#343A40"/>
<path d="M23.9492 17.0189C24.1174 17.1216 24.2564 17.2658 24.3529 17.4377C24.4493 17.6096 24.5 17.8035 24.5 18.0006C24.5 18.1977 24.4493 18.3915 24.3529 18.5634C24.2564 18.7353 24.1174 18.8796 23.9492 18.9823L16.0127 23.8316C15.8384 23.938 15.6389 23.996 15.4347 23.9998C15.2305 24.0036 15.029 23.9529 14.8508 23.853C14.6727 23.7531 14.5244 23.6076 14.4211 23.4314C14.3179 23.2552 14.2634 23.0547 14.2632 22.8504V13.1496C14.2634 12.9453 14.3179 12.7448 14.4211 12.5686C14.5244 12.3924 14.6727 12.2469 14.8508 12.147C15.029 12.0471 15.2305 11.9964 15.4347 12.0002C15.6389 12.004 15.8384 12.062 16.0127 12.1684L23.9492 17.0189Z" fill="#E9ECEF"/>
</svg>
