<svg width="32" height="32" viewBox="0 0 32 32" fill="none" xmlns="http://www.w3.org/2000/svg">
  <rect width="32" height="32" rx="16" fill="#868E96" />
  <path
    d="M20.5211 15.3634C20.6674 15.4527 20.7882 15.5781 20.8721 15.7276C20.956 15.8771 21 16.0456 21 16.2169C21 16.3883 20.956 16.5568 20.8721 16.7063C20.7882 16.8557 20.6674 16.9811 20.5211 17.0704L13.6211 21.2864C13.4695 21.379 13.2961 21.4294 13.1185 21.4327C12.941 21.436 12.7658 21.3919 12.6109 21.3051C12.4561 21.2182 12.3271 21.0917 12.2373 20.9385C12.1476 20.7853 12.1002 20.611 12.1001 20.4334V11.9994C12.1002 11.8219 12.1476 11.6476 12.2373 11.4944C12.3271 11.3412 12.4561 11.2147 12.6109 11.1278C12.7658 11.0409 12.941 10.9969 13.1185 11.0002C13.2961 11.0034 13.4695 11.0539 13.6211 11.1464L20.5211 15.3634Z"
    fill="white" />
</svg>