<svg width="20" height="20" viewBox="0 0 20 20" fill="none" xmlns="http://www.w3.org/2000/svg">
<rect width="20" height="20" rx="10" fill="#D18F1D"/>
<path d="M10.0831 14.14C11.3931 14.14 12.4431 13.35 12.4431 12.05C12.4431 11.04 11.7431 10.39 10.8831 10.18V10.14C11.6631 9.86 12.1831 9.27 12.1831 8.38C12.1831 7.21 11.2831 6.54 10.0531 6.54C9.21313 6.54 8.56313 6.91 8.01313 7.41L8.50313 8C8.91313 7.58 9.43313 7.28 10.0231 7.28C10.7831 7.28 11.2531 7.74 11.2531 8.44C11.2531 9.24 10.7431 9.84 9.23313 9.84V10.55C10.9231 10.55 11.5131 11.13 11.5131 12.01C11.5131 12.85 10.8931 13.38 10.0231 13.38C9.18313 13.38 8.63313 12.98 8.20313 12.53L7.74313 13.13C8.22313 13.66 8.93313 14.14 10.0831 14.14Z" fill="white"/>
</svg>
