<svg width="26" height="20" viewBox="0 0 26 20" fill="none" xmlns="http://www.w3.org/2000/svg">
<rect width="26" height="20" rx="10" fill="#005BAC"/>
<path d="M4.98156 6.3V6.98H8.98156V6.3H4.98156ZM6.34156 8.26V10.42H7.16156V8.26H6.34156ZM8.65156 6.3V6.79C8.65156 7.36 8.65156 8.11 8.42156 9.17L9.23156 9.24C9.46156 8.17 9.46156 7.36 9.46156 6.79V6.3H8.65156ZM10.7016 5.74V11.38H11.5316V5.74H10.7016ZM11.1516 8.2V8.9H12.8216V8.2H11.1516ZM4.53156 10.76C6.14156 10.76 8.28156 10.72 10.1516 10.41L10.0916 9.8C8.26156 10.04 6.07156 10.07 4.43156 10.07L4.53156 10.76ZM8.61156 11.49C6.75156 11.49 5.62156 12.09 5.62156 13.12C5.62156 14.16 6.75156 14.76 8.61156 14.76C10.4716 14.76 11.6216 14.16 11.6216 13.12C11.6216 12.09 10.4716 11.49 8.61156 11.49ZM8.61156 12.14C9.96156 12.14 10.7716 12.5 10.7716 13.12C10.7716 13.74 9.96156 14.1 8.61156 14.1C7.27156 14.1 6.45156 13.74 6.45156 13.12C6.45156 12.5 7.27156 12.14 8.61156 12.14ZM17.4108 7.07V7.75H20.1708V7.07H17.4108ZM17.4108 9.09V9.78H20.1708V9.09H17.4108ZM14.7008 11.57V12.24H19.9008V14.78H20.7308V11.57H14.7008ZM19.9008 5.74V11.07H20.7308V5.74H19.9008ZM15.7608 6.24C14.4208 6.24 13.4308 7.14 13.4308 8.42C13.4308 9.7 14.4208 10.59 15.7608 10.59C17.0908 10.59 18.0908 9.7 18.0908 8.42C18.0908 7.14 17.0908 6.24 15.7608 6.24ZM15.7608 6.95C16.6408 6.95 17.3008 7.56 17.3008 8.42C17.3008 9.28 16.6408 9.88 15.7608 9.88C14.8808 9.88 14.2308 9.28 14.2308 8.42C14.2308 7.56 14.8808 6.95 15.7608 6.95Z" fill="white"/>
</svg>
