<svg width="26" height="20" viewBox="0 0 26 20" fill="none" xmlns="http://www.w3.org/2000/svg">
<rect width="26" height="20" rx="10" fill="#005BAC"/>
<path d="M4.50156 10.19V10.87H12.6716V10.19H4.50156ZM8.17156 8.74V10.47H8.99156V8.74H8.17156ZM5.53156 8.48V9.16H11.7216V8.48H5.53156ZM5.53156 6.15V8.88H6.35156V6.82H11.6516V6.15H5.53156ZM8.57156 11.52C6.64156 11.52 5.47156 12.11 5.47156 13.14C5.47156 14.19 6.64156 14.77 8.57156 14.77C10.5016 14.77 11.6716 14.19 11.6716 13.14C11.6716 12.11 10.5016 11.52 8.57156 11.52ZM8.57156 12.16C9.99156 12.16 10.8316 12.52 10.8316 13.14C10.8316 13.77 9.99156 14.12 8.57156 14.12C7.16156 14.12 6.31156 13.77 6.31156 13.14C6.31156 12.52 7.16156 12.16 8.57156 12.16ZM13.2808 7.28V7.96H17.7608V7.28H13.2808ZM15.5208 8.56C14.4008 8.56 13.5808 9.41 13.5808 10.63C13.5808 11.84 14.4008 12.69 15.5208 12.69C16.6508 12.69 17.4708 11.84 17.4708 10.63C17.4708 9.41 16.6508 8.56 15.5208 8.56ZM15.5208 9.27C16.2208 9.27 16.7308 9.83 16.7308 10.63C16.7308 11.43 16.2208 11.99 15.5208 11.99C14.8308 11.99 14.3308 11.43 14.3308 10.63C14.3308 9.83 14.8308 9.27 15.5208 9.27ZM20.1508 5.74V14.78H20.9508V5.74H20.1508ZM18.7108 9.54V10.23H20.4208V9.54H18.7108ZM18.2208 5.94V14.34H19.0008V5.94H18.2208ZM15.1208 6V7.7H15.9408V6H15.1208Z" fill="white"/>
</svg>
