<svg width="26" height="20" viewBox="0 0 26 20" fill="none" xmlns="http://www.w3.org/2000/svg">
<rect width="26" height="20" rx="10" fill="#B21E36"/>
<path d="M4.50156 10.19V10.87H12.6716V10.19H4.50156ZM8.17156 8.74V10.47H8.99156V8.74H8.17156ZM5.53156 8.48V9.16H11.7216V8.48H5.53156ZM5.53156 6.15V8.88H6.35156V6.82H11.6516V6.15H5.53156ZM8.57156 11.52C6.64156 11.52 5.47156 12.11 5.47156 13.14C5.47156 14.19 6.64156 14.77 8.57156 14.77C10.5016 14.77 11.6716 14.19 11.6716 13.14C11.6716 12.11 10.5016 11.52 8.57156 11.52ZM8.57156 12.16C9.99156 12.16 10.8316 12.52 10.8316 13.14C10.8316 13.77 9.99156 14.12 8.57156 14.12C7.16156 14.12 6.31156 13.77 6.31156 13.14C6.31156 12.52 7.16156 12.16 8.57156 12.16ZM16.9608 10.61V12.17H17.7808V10.61H16.9608ZM13.2908 10.16V10.84H21.4608V10.16H13.2908ZM14.2008 11.89V12.56H19.6208V14.78H20.4508V11.89H14.2008ZM14.3808 5.95V9.33H20.4008V5.95H19.5708V6.97H15.2008V5.95H14.3808ZM15.2008 7.62H19.5708V8.67H15.2008V7.62Z" fill="white"/>
</svg>
