<svg width="20" height="20" viewBox="0 0 20 20" fill="none" xmlns="http://www.w3.org/2000/svg">
<rect width="20" height="20" rx="10" fill="#E31C79"/>
<path d="M10.2431 14.14C11.6131 14.14 12.5431 13.31 12.5431 12.24C12.5431 11.24 11.9431 10.68 11.3031 10.31V10.26C11.7431 9.92 12.2831 9.27 12.2831 8.49C12.2831 7.37 11.5231 6.57 10.2731 6.57C9.12313 6.57 8.25313 7.31 8.25313 8.42C8.25313 9.19 8.71313 9.75 9.25313 10.12V10.16C8.58313 10.52 7.90313 11.2 7.90313 12.19C7.90313 13.32 8.89313 14.14 10.2431 14.14ZM10.7431 10.03C9.88313 9.69 9.09313 9.3 9.09313 8.42C9.09313 7.72 9.58313 7.24 10.2531 7.24C11.0431 7.24 11.5031 7.82 11.5031 8.54C11.5031 9.09 11.2431 9.59 10.7431 10.03ZM10.2631 13.45C9.38313 13.45 8.72313 12.88 8.72313 12.1C8.72313 11.4 9.13313 10.82 9.73313 10.44C10.7631 10.86 11.6631 11.23 11.6631 12.21C11.6631 12.94 11.1031 13.45 10.2631 13.45Z" fill="white"/>
</svg>
