<svg width="35" height="20" viewBox="0 0 35 20" fill="none" xmlns="http://www.w3.org/2000/svg">
<rect width="35" height="20" rx="10" fill="#FFA100"/>
<path d="M7.63234 6.39C6.22234 6.39 5.20234 7.26 5.20234 8.52C5.20234 9.79 6.22234 10.66 7.63234 10.66C9.04234 10.66 10.0523 9.79 10.0523 8.52C10.0523 7.26 9.04234 6.39 7.63234 6.39ZM7.63234 7.11C8.56234 7.11 9.24234 7.68 9.24234 8.52C9.24234 9.36 8.56234 9.94 7.63234 9.94C6.69234 9.94 6.01234 9.36 6.01234 8.52C6.01234 7.68 6.69234 7.11 7.63234 7.11ZM11.2323 5.73V14.79H12.0623V5.73H11.2323ZM4.86234 12.81C6.47234 12.81 8.68234 12.8 10.7123 12.41L10.6423 11.8C8.67234 12.11 6.39234 12.12 4.74234 12.12L4.86234 12.81ZM18.3216 8.08V8.77H20.3616V8.08H18.3216ZM20.1016 5.74V11.13H20.9316V5.74H20.1016ZM17.9616 11.4C16.0916 11.4 14.9416 12.03 14.9416 13.09C14.9416 14.16 16.0916 14.77 17.9616 14.77C19.8216 14.77 20.9716 14.16 20.9716 13.09C20.9716 12.03 19.8216 11.4 17.9616 11.4ZM17.9616 12.05C19.3216 12.05 20.1516 12.43 20.1516 13.09C20.1516 13.74 19.3216 14.12 17.9616 14.12C16.6016 14.12 15.7716 13.74 15.7716 13.09C15.7716 12.43 16.6016 12.05 17.9616 12.05ZM15.8016 6.65V7.38C15.8016 8.68 14.8716 9.89 13.5316 10.38L13.9616 11.04C15.4616 10.48 16.4816 9.05 16.4816 7.38V6.65H15.8016ZM15.9616 6.65V7.38C15.9616 8.9 16.9316 10.26 18.4016 10.79L18.8216 10.13C17.5116 9.67 16.6316 8.55 16.6316 7.38V6.65H15.9616ZM13.7816 6.4V7.08H18.6116V6.4H13.7816ZM22.2908 11.09V11.77H30.4908V11.09H22.2908ZM25.9508 11.41V14.78H26.7708V11.41H25.9508ZM23.3208 6.1V10.01H29.4408V6.1H28.6208V7.34H24.1508V6.1H23.3208ZM24.1508 8.01H28.6208V9.34H24.1508V8.01Z" fill="white"/>
</svg>
