<svg width="35" height="20" viewBox="0 0 35 20" fill="none" xmlns="http://www.w3.org/2000/svg">
<rect width="35" height="20" rx="10" fill="#74B501"/>
<path d="M8.63234 8.12V8.81H10.1423V8.12H8.63234ZM11.5223 5.74V11.14H12.3123V5.74H11.5223ZM9.81234 5.91V11.08H10.6023V5.91H9.81234ZM6.25234 11.58V12.24H11.4923V14.79H12.3123V11.58H6.25234ZM6.84234 6.31C5.64234 6.31 4.78234 7.19 4.78234 8.46C4.78234 9.73 5.64234 10.61 6.84234 10.61C8.02234 10.61 8.89234 9.73 8.89234 8.46C8.89234 7.19 8.02234 6.31 6.84234 6.31ZM6.84234 7.01C7.59234 7.01 8.14234 7.61 8.14234 8.46C8.14234 9.3 7.59234 9.9 6.84234 9.9C6.08234 9.9 5.53234 9.3 5.53234 8.46C5.53234 7.61 6.08234 7.01 6.84234 7.01ZM17.1216 6.36V7.05C17.1216 8.59 15.4216 9.97 13.8316 10.27L14.2016 10.96C16.0116 10.55 17.8416 9.02 17.8416 7.05V6.36H17.1216ZM17.2716 6.36V7.05C17.2716 9.03 19.1116 10.55 20.9116 10.96L21.2816 10.27C19.7016 9.97 17.9916 8.6 17.9916 7.05V6.36H17.2716ZM13.5016 12.88V13.56H21.6916V12.88H13.5016ZM23.2708 6.62V7.3H29.0108V6.62H23.2708ZM22.2908 12.87V13.55H30.4608V12.87H22.2908ZM28.6708 6.62V7.48C28.6708 8.55 28.6708 9.82 28.2808 11.57L29.1108 11.67C29.4808 9.82 29.4808 8.58 29.4808 7.48V6.62H28.6708ZM28.8508 8.79L23.0208 9.02L23.1508 9.74L28.8508 9.42V8.79ZM25.4708 10.53V13.12H26.3008V10.53H25.4708Z" fill="white"/>
</svg>
