<svg width="20" height="20" viewBox="0 0 20 20" fill="none" xmlns="http://www.w3.org/2000/svg">
<rect width="20" height="20" rx="10" fill="#A05EB5"/>
<path d="M10.0631 14.14C11.2931 14.14 12.4631 13.22 12.4631 11.62C12.4631 10 11.4731 9.28 10.2531 9.28C9.81313 9.28 9.48313 9.39 9.15313 9.57L9.34313 7.45H12.1131V6.67H8.54313L8.31313 10.1L8.80313 10.41C9.22313 10.13 9.53313 9.97 10.0231 9.97C10.9331 9.97 11.5331 10.6 11.5331 11.65C11.5331 12.71 10.8431 13.38 9.97313 13.38C9.13313 13.38 8.59313 12.99 8.18313 12.56L7.72313 13.16C8.22313 13.66 8.92312 14.14 10.0631 14.14Z" fill="white"/>
</svg>
