<svg width="44" height="20" viewBox="0 0 44 20" fill="none" xmlns="http://www.w3.org/2000/svg">
<rect width="44" height="20" rx="10" fill="#8652A1"/>
<path d="M4.89313 11.09V11.77H13.0931V11.09H4.89313ZM8.55313 11.41V14.78H9.37313V11.41H8.55313ZM5.92313 6.1V10.01H12.0431V6.1H11.2231V7.34H6.75313V6.1H5.92313ZM6.75313 8.01H11.2231V9.34H6.75313V8.01ZM15.9223 6.29V7.4C15.9223 8.8 15.0423 10.02 13.6623 10.51L14.1023 11.17C15.6223 10.58 16.6023 9.17 16.6023 7.4V6.29H15.9223ZM16.0623 6.29V7.43C16.0623 9.02 17.0623 10.4 18.5523 10.94L18.9623 10.29C17.6423 9.82 16.7423 8.66 16.7423 7.43V6.29H16.0623ZM19.8823 5.73V12.41H20.7123V5.73H19.8823ZM20.4523 8.51V9.2H22.0523V8.51H20.4523ZM15.1023 13.9V14.58H21.1123V13.9H15.1023ZM15.1023 11.78V14.23H15.9323V11.78H15.1023ZM26.3616 6.32V6.69C26.3616 8.36 24.9516 9.67 22.6016 10.29L22.9216 10.95C25.5816 10.24 27.2316 8.62 27.2316 6.32H26.3616ZM23.0716 6.32V6.99H26.8416V6.32H23.0716ZM29.0716 5.74V10.84H29.9116V5.74H29.0716ZM24.0616 11.28V14.66H29.9116V11.28H24.0616ZM29.0916 11.95V13.98H24.8816V11.95H29.0916ZM31.2808 7.28V7.96H35.7608V7.28H31.2808ZM33.5208 8.56C32.4008 8.56 31.5808 9.41 31.5808 10.63C31.5808 11.84 32.4008 12.69 33.5208 12.69C34.6508 12.69 35.4708 11.84 35.4708 10.63C35.4708 9.41 34.6508 8.56 33.5208 8.56ZM33.5208 9.27C34.2208 9.27 34.7308 9.83 34.7308 10.63C34.7308 11.43 34.2208 11.99 33.5208 11.99C32.8308 11.99 32.3308 11.43 32.3308 10.63C32.3308 9.83 32.8308 9.27 33.5208 9.27ZM38.1508 5.74V14.78H38.9508V5.74H38.1508ZM36.7108 9.54V10.23H38.4208V9.54H36.7108ZM36.2208 5.94V14.34H37.0008V5.94H36.2208ZM33.1208 6V7.7H33.9408V6H33.1208Z" fill="white"/>
</svg>
