<svg width="26" height="20" viewBox="0 0 26 20" fill="none" xmlns="http://www.w3.org/2000/svg">
<rect width="26" height="20" rx="10" fill="#AD8605"/>
<path d="M8.36156 6.32V6.69C8.36156 8.36 6.95156 9.67 4.60156 10.29L4.92156 10.95C7.58156 10.24 9.23156 8.62 9.23156 6.32H8.36156ZM5.07156 6.32V6.99H8.84156V6.32H5.07156ZM11.0716 5.74V10.84H11.9116V5.74H11.0716ZM6.06156 11.28V14.66H11.9116V11.28H6.06156ZM11.0916 11.95V13.98H6.88156V11.95H11.0916ZM13.3008 12.97V13.66H21.4908V12.97H13.3008ZM16.9508 10.63V13.28H17.7808V10.63H16.9508ZM14.0108 6.6V7.28H20.7208V6.6H14.0108ZM14.0308 10.24V10.91H20.7108V10.24H14.0308ZM15.4208 7.15V10.36H16.2508V7.15H15.4208ZM18.5008 7.15V10.36H19.3208V7.15H18.5008Z" fill="white"/>
</svg>
