<svg width="26" height="20" viewBox="0 0 26 20" fill="none" xmlns="http://www.w3.org/2000/svg">
<rect width="26" height="20" rx="10" fill="#33BAFF"/>
<path d="M8.55156 11.44C6.62156 11.44 5.40156 12.07 5.40156 13.11C5.40156 14.14 6.62156 14.76 8.55156 14.76C10.4716 14.76 11.7016 14.14 11.7016 13.11C11.7016 12.07 10.4716 11.44 8.55156 11.44ZM8.55156 12.09C9.97156 12.09 10.8716 12.48 10.8716 13.11C10.8716 13.73 9.97156 14.12 8.55156 14.12C7.13156 14.12 6.22156 13.73 6.22156 13.11C6.22156 12.48 7.13156 12.09 8.55156 12.09ZM5.47156 6.19V6.87H11.2916V6.19H5.47156ZM4.50156 9.95V10.62H12.6616V9.95H4.50156ZM7.85156 8.21V10.14H8.67156V8.21H7.85156ZM10.8116 6.19V6.96C10.8116 7.67 10.8116 8.33 10.5616 9.26L11.3816 9.36C11.6216 8.42 11.6216 7.69 11.6216 6.96V6.19H10.8116ZM19.4808 5.74V11.56H20.3108V5.74H19.4808ZM20.0808 8.25V8.94H21.6508V8.25H20.0808ZM17.4708 11.64C15.6508 11.64 14.5308 12.21 14.5308 13.2C14.5308 14.19 15.6508 14.76 17.4708 14.76C19.3008 14.76 20.4108 14.19 20.4108 13.2C20.4108 12.21 19.3008 11.64 17.4708 11.64ZM17.4708 12.28C18.8008 12.28 19.6008 12.62 19.6008 13.2C19.6008 13.79 18.8008 14.12 17.4708 14.12C16.1508 14.12 15.3508 13.79 15.3508 13.2C15.3508 12.62 16.1508 12.28 17.4708 12.28ZM13.3208 6.76V7.42H18.6608V6.76H13.3208ZM15.9908 7.88C14.6908 7.88 13.8208 8.5 13.8208 9.47C13.8208 10.45 14.6908 11.07 15.9908 11.07C17.2808 11.07 18.1508 10.45 18.1508 9.47C18.1508 8.5 17.2808 7.88 15.9908 7.88ZM15.9908 8.51C16.8008 8.51 17.3608 8.89 17.3608 9.47C17.3608 10.06 16.8008 10.44 15.9908 10.44C15.1608 10.44 14.6108 10.06 14.6108 9.47C14.6108 8.89 15.1608 8.51 15.9908 8.51ZM15.5708 5.66V7.13H16.4008V5.66H15.5708Z" fill="white"/>
</svg>
