<svg width="44" height="20" viewBox="0 0 44 20" fill="none" xmlns="http://www.w3.org/2000/svg">
<rect width="44" height="20" rx="10" fill="#F68A1E"/>
<path d="M8.95313 11.44C7.02313 11.44 5.80313 12.07 5.80313 13.11C5.80313 14.14 7.02313 14.76 8.95313 14.76C10.8731 14.76 12.1031 14.14 12.1031 13.11C12.1031 12.07 10.8731 11.44 8.95313 11.44ZM8.95313 12.09C10.3731 12.09 11.2731 12.48 11.2731 13.11C11.2731 13.73 10.3731 14.12 8.95313 14.12C7.53313 14.12 6.62313 13.73 6.62313 13.11C6.62313 12.48 7.53313 12.09 8.95313 12.09ZM5.87313 6.19V6.87H11.6931V6.19H5.87313ZM4.90313 9.95V10.62H13.0631V9.95H4.90313ZM8.25313 8.21V10.14H9.07313V8.21H8.25313ZM11.2131 6.19V6.96C11.2131 7.67 11.2131 8.33 10.9631 9.26L11.7831 9.36C12.0231 8.42 12.0231 7.69 12.0231 6.96V6.19H11.2131ZM19.8823 5.74V11.56H20.7123V5.74H19.8823ZM20.4823 8.25V8.94H22.0523V8.25H20.4823ZM17.8723 11.64C16.0523 11.64 14.9323 12.21 14.9323 13.2C14.9323 14.19 16.0523 14.76 17.8723 14.76C19.7023 14.76 20.8123 14.19 20.8123 13.2C20.8123 12.21 19.7023 11.64 17.8723 11.64ZM17.8723 12.28C19.2023 12.28 20.0023 12.62 20.0023 13.2C20.0023 13.79 19.2023 14.12 17.8723 14.12C16.5523 14.12 15.7523 13.79 15.7523 13.2C15.7523 12.62 16.5523 12.28 17.8723 12.28ZM13.7223 6.76V7.42H19.0623V6.76H13.7223ZM16.3923 7.88C15.0923 7.88 14.2223 8.5 14.2223 9.47C14.2223 10.45 15.0923 11.07 16.3923 11.07C17.6823 11.07 18.5523 10.45 18.5523 9.47C18.5523 8.5 17.6823 7.88 16.3923 7.88ZM16.3923 8.51C17.2023 8.51 17.7623 8.89 17.7623 9.47C17.7623 10.06 17.2023 10.44 16.3923 10.44C15.5623 10.44 15.0123 10.06 15.0123 9.47C15.0123 8.89 15.5623 8.51 16.3923 8.51ZM15.9723 5.66V7.13H16.8023V5.66H15.9723ZM24.9016 6.67V7.39C24.9016 8.67 23.9816 9.85 22.6216 10.33L23.0516 10.98C24.5716 10.44 25.5916 9.05 25.5916 7.39V6.67H24.9016ZM25.0616 6.67V7.39C25.0616 8.97 26.1016 10.3 27.6016 10.81L28.0316 10.16C26.6916 9.71 25.7516 8.61 25.7516 7.39V6.67H25.0616ZM29.0716 5.74V11.21H29.9116V5.74H29.0716ZM23.8716 11.69V12.37H29.0716V14.78H29.9116V11.69H23.8716ZM22.8416 6.37V7.04H27.7916V6.37H22.8416ZM31.2908 10.53V11.2H39.4608V10.53H31.2908ZM34.9608 9.36V10.81H35.7808V9.36H34.9608ZM32.3708 8.99V9.64H38.5008V8.99H32.3708ZM32.3708 6V9.34H33.1908V6.65H38.4608V6H32.3708ZM32.9508 7.48V8.12H38.2208V7.48H32.9508ZM35.3708 11.87C33.4008 11.87 32.2708 12.37 32.2708 13.32C32.2708 14.26 33.4008 14.76 35.3708 14.76C37.3408 14.76 38.4708 14.26 38.4708 13.32C38.4708 12.37 37.3408 11.87 35.3708 11.87ZM35.3708 12.5C36.8208 12.5 37.6308 12.79 37.6308 13.32C37.6308 13.86 36.8208 14.14 35.3708 14.14C33.9208 14.14 33.1108 13.86 33.1108 13.32C33.1108 12.79 33.9208 12.5 35.3708 12.5Z" fill="white"/>
</svg>
