<svg width="32" height="20" viewBox="0 0 32 20" fill="none" xmlns="http://www.w3.org/2000/svg">
<rect width="32" height="20" rx="10" fill="#234699"/>
<path d="M8.40227 14.14C9.39227 14.14 10.1923 13.78 10.6723 13.29V10.21H8.26227V10.98H9.81227V12.9C9.53227 13.16 9.02227 13.32 8.49227 13.32C6.92227 13.32 6.05227 12.17 6.05227 10.32C6.05227 8.49 7.00227 7.35 8.48227 7.35C9.22227 7.35 9.69227 7.66 10.0623 8.04L10.5723 7.44C10.1423 7 9.47227 6.54 8.46227 6.54C6.52227 6.54 5.10227 7.98 5.10227 10.34C5.10227 12.72 6.48227 14.14 8.40227 14.14ZM13.2829 14H14.2229V7.45H16.4329V6.67H11.0729V7.45H13.2829V14ZM16.2653 14H17.2353L18.2953 12.02C18.4753 11.66 18.6653 11.29 18.8753 10.84H18.9153C19.1653 11.29 19.3653 11.66 19.5553 12.02L20.6353 14H21.6553L19.5153 10.26L21.5153 6.67H20.5453L19.5553 8.55C19.3753 8.89 19.2353 9.19 19.0353 9.62H18.9953C18.7653 9.19 18.6053 8.89 18.4153 8.55L17.4253 6.67H16.3953L18.4053 10.22L16.2653 14ZM22.4277 14H24.7677C26.3977 14 27.5377 13.29 27.5377 11.86C27.5377 10.86 26.9277 10.27 26.0477 10.1V10.06C26.7377 9.83 27.1177 9.19 27.1177 8.47C27.1177 7.18 26.0877 6.67 24.5977 6.67H22.4277V14ZM23.3577 9.79V7.4H24.4877C25.6277 7.4 26.2077 7.72 26.2077 8.58C26.2077 9.33 25.6977 9.79 24.4377 9.79H23.3577ZM23.3577 13.27V10.5H24.6377C25.9177 10.5 26.6377 10.92 26.6377 11.83C26.6377 12.82 25.8877 13.27 24.6377 13.27H23.3577Z" fill="white"/>
</svg>
