<svg width="32" height="20" viewBox="0 0 32 20" fill="none" xmlns="http://www.w3.org/2000/svg">
<rect width="32" height="20" rx="10" fill="#306E5B"/>
<path d="M8.81242 14.14C9.80242 14.14 10.6024 13.78 11.0824 13.29V10.21H8.67242V10.98H10.2224V12.9C9.94242 13.16 9.43242 13.32 8.90242 13.32C7.33242 13.32 6.46242 12.17 6.46242 10.32C6.46242 8.49 7.41242 7.35 8.89242 7.35C9.63242 7.35 10.1024 7.66 10.4724 8.04L10.9824 7.44C10.5524 7 9.88242 6.54 8.87242 6.54C6.93242 6.54 5.51242 7.98 5.51242 10.34C5.51242 12.72 6.89242 14.14 8.81242 14.14ZM13.693 14H14.633V7.45H16.843V6.67H11.483V7.45H13.693V14ZM16.6755 14H17.6455L18.7055 12.02C18.8855 11.66 19.0755 11.29 19.2855 10.84H19.3255C19.5755 11.29 19.7755 11.66 19.9655 12.02L21.0455 14H22.0655L19.9255 10.26L21.9255 6.67H20.9555L19.9655 8.55C19.7855 8.89 19.6455 9.19 19.4455 9.62H19.4055C19.1755 9.19 19.0155 8.89 18.8255 8.55L17.8355 6.67H16.8055L18.8155 10.22L16.6755 14ZM25.393 14.14C26.343 14.14 27.053 13.76 27.633 13.08L27.133 12.5C26.663 13.02 26.123 13.32 25.433 13.32C24.033 13.32 23.153 12.17 23.153 10.32C23.153 8.49 24.073 7.35 25.463 7.35C26.083 7.35 26.573 7.63 26.953 8.04L27.463 7.44C27.033 6.97 26.343 6.54 25.453 6.54C23.593 6.54 22.203 7.98 22.203 10.34C22.203 12.72 23.563 14.14 25.393 14.14Z" fill="white"/>
</svg>
