<svg width="31" height="20" viewBox="0 0 31 20" fill="none" xmlns="http://www.w3.org/2000/svg">
<rect width="31" height="20" rx="10" fill="#BB0088"/>
<path d="M7.89055 14.14C8.88055 14.14 9.68055 13.78 10.1605 13.29V10.21H7.75055V10.98H9.30055V12.9C9.02055 13.16 8.51055 13.32 7.98055 13.32C6.41055 13.32 5.54055 12.17 5.54055 10.32C5.54055 8.49 6.49055 7.35 7.97055 7.35C8.71055 7.35 9.18055 7.66 9.55055 8.04L10.0605 7.44C9.63055 7 8.96055 6.54 7.95055 6.54C6.01055 6.54 4.59055 7.98 4.59055 10.34C4.59055 12.72 5.97055 14.14 7.89055 14.14ZM12.7712 14H13.7112V7.45H15.9212V6.67H10.5612V7.45H12.7712V14ZM15.7536 14H16.7236L17.7836 12.02C17.9636 11.66 18.1536 11.29 18.3636 10.84H18.4036C18.6536 11.29 18.8536 11.66 19.0436 12.02L20.1236 14H21.1436L19.0036 10.26L21.0036 6.67H20.0336L19.0436 8.55C18.8636 8.89 18.7236 9.19 18.5236 9.62H18.4836C18.2536 9.19 18.0936 8.89 17.9036 8.55L16.9136 6.67H15.8836L17.8936 10.22L15.7536 14ZM20.946 14H21.886L23.176 9.9C23.446 9.08 23.676 8.28 23.916 7.43H23.956C24.196 8.28 24.426 9.08 24.686 9.9L25.976 14H26.946L24.466 6.67H23.426L20.946 14ZM22.246 11.76H25.626V11.03H22.246V11.76Z" fill="white"/>
</svg>
