<svg width="44" height="20" viewBox="0 0 44 20" fill="none" xmlns="http://www.w3.org/2000/svg">
<rect width="44" height="20" rx="10" fill="#72C6A6"/>
<path d="M9.22313 7.4V8.08H11.6431V7.4H9.22313ZM9.14313 9.28V9.96H11.5831V9.28H9.14313ZM11.5031 5.74V11.16H12.3331V5.74H11.5031ZM8.67313 6.42V6.78C8.67313 8.49 7.32313 9.82 5.01313 10.49L5.35313 11.16C7.95313 10.38 9.56313 8.75 9.56313 6.42H8.67313ZM5.48313 6.42V7.1H9.24313V6.42H5.48313ZM9.39313 11.26C7.56313 11.26 6.40313 11.91 6.40313 13C6.40313 14.09 7.56313 14.74 9.39313 14.74C11.2231 14.74 12.3831 14.09 12.3831 13C12.3831 11.91 11.2231 11.26 9.39313 11.26ZM9.39313 11.91C10.7231 11.91 11.5731 12.32 11.5731 13C11.5731 13.68 10.7231 14.08 9.39313 14.08C8.07313 14.08 7.22313 13.68 7.22313 13C7.22313 12.32 8.07313 11.91 9.39313 11.91ZM16.6323 6.39C15.2223 6.39 14.2023 7.26 14.2023 8.52C14.2023 9.79 15.2223 10.66 16.6323 10.66C18.0423 10.66 19.0523 9.79 19.0523 8.52C19.0523 7.26 18.0423 6.39 16.6323 6.39ZM16.6323 7.11C17.5623 7.11 18.2423 7.68 18.2423 8.52C18.2423 9.36 17.5623 9.94 16.6323 9.94C15.6923 9.94 15.0123 9.36 15.0123 8.52C15.0123 7.68 15.6923 7.11 16.6323 7.11ZM20.2323 5.73V14.79H21.0623V5.73H20.2323ZM13.8623 12.81C15.4723 12.81 17.6823 12.8 19.7123 12.41L19.6423 11.8C17.6723 12.11 15.3923 12.12 13.7423 12.12L13.8623 12.81ZM26.1616 10.26V11.84H26.9916V10.26H26.1616ZM22.4916 9.97V10.64H30.6616V9.97H22.4916ZM26.5716 11.59C24.6316 11.59 23.4716 12.16 23.4716 13.18C23.4716 14.19 24.6316 14.76 26.5716 14.76C28.5116 14.76 29.6716 14.19 29.6716 13.18C29.6716 12.16 28.5116 11.59 26.5716 11.59ZM26.5716 12.23C27.9916 12.23 28.8316 12.57 28.8316 13.18C28.8316 13.78 27.9916 14.12 26.5716 14.12C25.1616 14.12 24.3116 13.78 24.3116 13.18C24.3116 12.57 25.1616 12.23 26.5716 12.23ZM26.0416 6.48V6.75C26.0416 7.78 24.5716 8.59 22.9516 8.76L23.2516 9.42C25.1216 9.19 26.7816 8.21 26.7816 6.75V6.48H26.0416ZM26.3916 6.48V6.75C26.3916 8.21 28.0416 9.19 29.9116 9.42L30.2116 8.76C28.5916 8.59 27.1216 7.78 27.1216 6.75V6.48H26.3916ZM23.2416 6.15V6.82H29.9316V6.15H23.2416ZM33.8208 6.27C32.4608 6.27 31.4608 7.15 31.4608 8.41C31.4608 9.66 32.4608 10.53 33.8208 10.53C35.1808 10.53 36.1808 9.66 36.1808 8.41C36.1808 7.15 35.1808 6.27 33.8208 6.27ZM33.8208 6.97C34.7208 6.97 35.3708 7.56 35.3708 8.41C35.3708 9.26 34.7208 9.84 33.8208 9.84C32.9208 9.84 32.2708 9.26 32.2708 8.41C32.2708 7.56 32.9208 6.97 33.8208 6.97ZM37.4808 5.74V11.09H38.3108V5.74H37.4808ZM38.0808 7.99V8.69H39.6508V7.99H38.0808ZM35.4308 11.38C33.5908 11.38 32.4608 12.01 32.4608 13.07C32.4608 14.14 33.5908 14.76 35.4308 14.76C37.2708 14.76 38.4008 14.14 38.4008 13.07C38.4008 12.01 37.2708 11.38 35.4308 11.38ZM35.4308 12.05C36.7708 12.05 37.5908 12.42 37.5908 13.07C37.5908 13.72 36.7708 14.1 35.4308 14.1C34.0908 14.1 33.2708 13.72 33.2708 13.07C33.2708 12.42 34.0908 12.05 35.4308 12.05Z" fill="white"/>
</svg>
