<svg width="26" height="20" viewBox="0 0 26 20" fill="none" xmlns="http://www.w3.org/2000/svg">
<rect width="26" height="20" rx="10" fill="#005BAC"/>
<path d="M8.82156 7.4V8.08H11.2416V7.4H8.82156ZM8.74156 9.28V9.96H11.1816V9.28H8.74156ZM11.1016 5.74V11.16H11.9316V5.74H11.1016ZM8.27156 6.42V6.78C8.27156 8.49 6.92156 9.82 4.61156 10.49L4.95156 11.16C7.55156 10.38 9.16156 8.75 9.16156 6.42H8.27156ZM5.08156 6.42V7.1H8.84156V6.42H5.08156ZM8.99156 11.26C7.16156 11.26 6.00156 11.91 6.00156 13C6.00156 14.09 7.16156 14.74 8.99156 14.74C10.8216 14.74 11.9816 14.09 11.9816 13C11.9816 11.91 10.8216 11.26 8.99156 11.26ZM8.99156 11.91C10.3216 11.91 11.1716 12.32 11.1716 13C11.1716 13.68 10.3216 14.08 8.99156 14.08C7.67156 14.08 6.82156 13.68 6.82156 13C6.82156 12.32 7.67156 11.91 8.99156 11.91ZM18.0908 8.23V8.91H20.3708V8.23H18.0908ZM19.9008 5.75V12.37H20.7308V5.75H19.9008ZM14.9608 13.9V14.58H20.9808V13.9H14.9608ZM14.9608 11.79V14.25H15.7908V11.79H14.9608ZM15.6008 6.87V7.6C15.6008 8.88 14.6708 10.08 13.3208 10.56L13.7508 11.22C15.2608 10.66 16.2808 9.24 16.2808 7.6V6.87H15.6008ZM15.7608 6.87V7.59C15.7608 9.12 16.7308 10.48 18.2008 11.01L18.6208 10.36C17.3108 9.9 16.4308 8.76 16.4308 7.59V6.87H15.7608ZM13.5808 6.48V7.15H18.4108V6.48H13.5808Z" fill="white"/>
</svg>
