<svg width="26" height="20" viewBox="0 0 26 20" fill="none" xmlns="http://www.w3.org/2000/svg">
<rect width="26" height="20" rx="10" fill="#0066FF"/>
<path d="M8.82156 7.4V8.08H11.2416V7.4H8.82156ZM8.74156 9.28V9.96H11.1816V9.28H8.74156ZM11.1016 5.74V11.16H11.9316V5.74H11.1016ZM8.27156 6.42V6.78C8.27156 8.49 6.92156 9.82 4.61156 10.49L4.95156 11.16C7.55156 10.38 9.16156 8.75 9.16156 6.42H8.27156ZM5.08156 6.42V7.1H8.84156V6.42H5.08156ZM8.99156 11.26C7.16156 11.26 6.00156 11.91 6.00156 13C6.00156 14.09 7.16156 14.74 8.99156 14.74C10.8216 14.74 11.9816 14.09 11.9816 13C11.9816 11.91 10.8216 11.26 8.99156 11.26ZM8.99156 11.91C10.3216 11.91 11.1716 12.32 11.1716 13C11.1716 13.68 10.3216 14.08 8.99156 14.08C7.67156 14.08 6.82156 13.68 6.82156 13C6.82156 12.32 7.67156 11.91 8.99156 11.91ZM19.4808 5.74V11.15H20.3108V5.74H19.4808ZM20.0808 8.07V8.77H21.6508V8.07H20.0808ZM16.9808 6.4V6.78C16.9808 8.47 15.6008 9.83 13.3008 10.51L13.6508 11.18C16.2608 10.41 17.8708 8.72 17.8708 6.4H16.9808ZM13.7008 6.4V7.09H17.4508V6.4H13.7008ZM17.4808 11.26C15.6808 11.26 14.5308 11.92 14.5308 13.01C14.5308 14.1 15.6808 14.76 17.4808 14.76C19.2708 14.76 20.4108 14.1 20.4108 13.01C20.4108 11.92 19.2708 11.26 17.4808 11.26ZM17.4808 11.92C18.7808 11.92 19.6108 12.33 19.6108 13.01C19.6108 13.69 18.7808 14.1 17.4808 14.1C16.1808 14.1 15.3508 13.69 15.3508 13.01C15.3508 12.33 16.1808 11.92 17.4808 11.92Z" fill="white"/>
</svg>
