<svg width="26" height="20" viewBox="0 0 26 20" fill="none" xmlns="http://www.w3.org/2000/svg">
<rect width="26" height="20" rx="10" fill="#168C72"/>
<path d="M8.82156 7.4V8.08H11.2416V7.4H8.82156ZM8.74156 9.28V9.96H11.1816V9.28H8.74156ZM11.1016 5.74V11.16H11.9316V5.74H11.1016ZM8.27156 6.42V6.78C8.27156 8.49 6.92156 9.82 4.61156 10.49L4.95156 11.16C7.55156 10.38 9.16156 8.75 9.16156 6.42H8.27156ZM5.08156 6.42V7.1H8.84156V6.42H5.08156ZM8.99156 11.26C7.16156 11.26 6.00156 11.91 6.00156 13C6.00156 14.09 7.16156 14.74 8.99156 14.74C10.8216 14.74 11.9816 14.09 11.9816 13C11.9816 11.91 10.8216 11.26 8.99156 11.26ZM8.99156 11.91C10.3216 11.91 11.1716 12.32 11.1716 13C11.1716 13.68 10.3216 14.08 8.99156 14.08C7.67156 14.08 6.82156 13.68 6.82156 13C6.82156 12.32 7.67156 11.91 8.99156 11.91ZM16.9708 5.73V6.99H17.7908V5.73H16.9708ZM16.9308 7.13V7.28C16.9308 8.37 15.5308 9.15 13.7908 9.33L14.0608 9.97C16.0208 9.74 17.6608 8.81 17.6608 7.28V7.13H16.9308ZM17.1008 7.13V7.28C17.1008 8.81 18.7408 9.74 20.7008 9.97L20.9708 9.33C19.2208 9.15 17.8308 8.37 17.8308 7.28V7.13H17.1008ZM14.1308 6.71V7.37H20.6308V6.71H14.1308ZM13.2908 10.51V11.18H21.4808V10.51H13.2908ZM17.0308 10.88V12.96H17.8608V10.88H17.0308ZM14.3308 13.9V14.58H20.5708V13.9H14.3308ZM14.3308 12.1V14.18H15.1508V12.1H14.3308Z" fill="white"/>
</svg>
