<svg width="32" height="20" viewBox="0 0 32 20" fill="none" xmlns="http://www.w3.org/2000/svg">
<rect width="32" height="20" rx="10" fill="#F5A251"/>
<path d="M11.9247 5.75V12.35H12.7647V5.75H11.9247ZM6.95469 13.9V14.58H13.0347V13.9H6.95469ZM6.95469 11.67V14.13H7.77469V11.67H6.95469ZM7.91469 6.37C6.56469 6.37 5.55469 7.29 5.55469 8.6C5.55469 9.9 6.56469 10.83 7.91469 10.83C9.26469 10.83 10.2647 9.9 10.2647 8.6C10.2647 7.29 9.26469 6.37 7.91469 6.37ZM7.91469 7.09C8.79469 7.09 9.46469 7.71 9.46469 8.6C9.46469 9.48 8.79469 10.1 7.91469 10.1C7.03469 10.1 6.36469 9.48 6.36469 8.6C6.36469 7.71 7.03469 7.09 7.91469 7.09ZM16.4039 7.44V7.89C16.4039 9.16 15.5139 10.28 14.1739 10.74L14.5839 11.39C16.0939 10.86 17.0839 9.52 17.0839 7.89V7.44H16.4039ZM16.5439 7.44V7.89C16.5439 9.45 17.5739 10.73 19.0839 11.23L19.4939 10.57C18.1539 10.15 17.2339 9.09 17.2339 7.89V7.44H16.5439ZM14.4039 6.95V7.62H19.2239V6.95H14.4039ZM16.4039 5.8V7.2H17.2339V5.8H16.4039ZM18.9239 8.52V9.21H21.2039V8.52H18.9239ZM20.7539 5.75V12.49H21.5839V5.75H20.7539ZM15.8139 13.9V14.58H21.8339V13.9H15.8139ZM15.8139 11.89V14.27H16.6439V11.89H15.8139ZM22.8931 14H27.4931V13.22H25.4631C25.0931 13.22 24.6531 13.25 24.2631 13.29C25.9931 11.66 27.1431 10.17 27.1431 8.7C27.1431 7.39 26.3231 6.54 25.0131 6.54C24.0831 6.54 23.4431 6.97 22.8431 7.62L23.3731 8.13C23.7831 7.65 24.3031 7.28 24.9031 7.28C25.8131 7.28 26.2431 7.9 26.2431 8.74C26.2431 9.99 25.1931 11.46 22.8931 13.47V14Z" fill="white"/>
</svg>
