<svg width="44" height="20" viewBox="0 0 44 20" fill="none" xmlns="http://www.w3.org/2000/svg">
<rect width="44" height="20" rx="10" fill="#FFAE43"/>
<path d="M7.13313 7.03V8.5C7.13313 10.03 6.04313 11.75 4.75313 12.38L5.23313 13.04C6.64313 12.32 7.79313 10.38 7.79313 8.5V7.03H7.13313ZM7.28313 7.03V8.5C7.28313 10.29 8.37313 12.11 9.80313 12.82L10.2731 12.16C8.96313 11.54 7.94313 9.93 7.94313 8.5V7.03H7.28313ZM5.07313 6.66V7.36H9.94313V6.66H5.07313ZM11.0131 5.74V14.78H11.8531V5.74H11.0131ZM11.6531 9.39V10.09H13.3331V9.39H11.6531ZM20.2823 5.74V14.78H21.1123V5.74H20.2823ZM17.6323 6.71V6.85C17.6323 9.25 16.4223 11.17 13.8123 12.43L14.2523 13.1C17.2723 11.62 18.4523 9.33 18.4523 6.71H17.6323ZM14.2223 6.71V7.39H17.9923V6.71H14.2223ZM22.4916 11.09V11.77H30.6916V11.09H22.4916ZM26.1516 11.41V14.78H26.9716V11.41H26.1516ZM23.5216 6.1V10.01H29.6416V6.1H28.8216V7.34H24.3516V6.1H23.5216ZM24.3516 8.01H28.8216V9.34H24.3516V8.01ZM33.4908 6.21V7.13C33.4908 8.51 32.6108 9.73 31.2508 10.23L31.6908 10.9C33.2008 10.31 34.1808 8.87 34.1808 7.13V6.21H33.4908ZM33.6408 6.21V7.19C33.6408 8.76 34.6308 10.1 36.0808 10.64L36.5208 9.99C35.2208 9.54 34.3208 8.41 34.3208 7.19V6.21H33.6408ZM37.4808 5.74V11.22H38.3108V5.74H37.4808ZM38.0808 8.07V8.77H39.6508V8.07H38.0808ZM35.4308 11.47C33.5808 11.47 32.4608 12.08 32.4608 13.12C32.4608 14.16 33.5808 14.76 35.4308 14.76C37.2808 14.76 38.4008 14.16 38.4008 13.12C38.4008 12.08 37.2808 11.47 35.4308 11.47ZM35.4308 12.13C36.7708 12.13 37.5908 12.49 37.5908 13.12C37.5908 13.75 36.7708 14.11 35.4308 14.11C34.0908 14.11 33.2708 13.75 33.2708 13.12C33.2708 12.49 34.0908 12.13 35.4308 12.13Z" fill="white"/>
</svg>
