<svg width="20" height="20" viewBox="0 0 20 20" fill="none" xmlns="http://www.w3.org/2000/svg">
<rect width="20" height="20" rx="10" fill="#ACAA88"/>
<path d="M9.79313 14.14C11.1731 14.14 12.4531 13 12.4531 10.02C12.4531 7.69 11.4031 6.54 9.99313 6.54C8.85313 6.54 7.89313 7.5 7.89313 8.92C7.89313 10.44 8.68313 11.22 9.91313 11.22C10.5431 11.22 11.1931 10.84 11.6531 10.26L11.6031 9.53C11.1231 10.26 10.5531 10.55 10.0631 10.55C9.19313 10.55 8.75313 9.9 8.75313 8.92C8.75313 7.91 9.29313 7.25 9.99313 7.25C11.0231 7.25 11.5931 8.22 11.5931 10.02C11.5931 12.53 10.7431 13.38 9.76313 13.38C9.29313 13.38 8.84313 13.17 8.53313 12.81L8.02313 13.39C8.43313 13.82 8.99313 14.14 9.79313 14.14Z" fill="white"/>
</svg>
