<svg width="35" height="20" viewBox="0 0 35 20" fill="none" xmlns="http://www.w3.org/2000/svg">
<rect width="35" height="20" rx="10" fill="#CCCCCC"/>
<path d="M8.36234 10.85V13.1H9.19234V10.85H8.36234ZM8.78234 6.33C6.87234 6.33 5.49234 7.26 5.49234 8.7C5.49234 10.14 6.87234 11.07 8.78234 11.07C10.6923 11.07 12.0623 10.14 12.0623 8.7C12.0623 7.26 10.6923 6.33 8.78234 6.33ZM8.78234 6.99C10.2123 6.99 11.2623 7.67 11.2623 8.7C11.2623 9.73 10.2123 10.41 8.78234 10.41C7.34234 10.41 6.29234 9.73 6.29234 8.7C6.29234 7.67 7.34234 6.99 8.78234 6.99ZM4.70234 12.94V13.63H12.8923V12.94H4.70234ZM15.6916 10.77V12.48H16.5116V10.77H15.6916ZM18.6516 10.77V12.48H19.4716V10.77H18.6516ZM13.4916 10.51V11.19H21.6916V10.51H13.4916ZM14.5316 5.97V6.62H19.8216V7.54H14.5516V9.38H15.3716V8.15H20.6316V5.97H14.5316ZM14.5516 9.09V9.75H20.8316V9.09H14.5516ZM14.4016 12.21V12.89H19.8616V14.78H20.6916V12.21H14.4016ZM23.3308 9.96V10.64H29.5408V9.96H23.3308ZM22.3008 12.95V13.65H30.4908V12.95H22.3008ZM25.9608 10.25V13.23H26.7908V10.25H25.9608ZM23.3308 6.46V10.26H24.1608V7.14H29.4508V6.46H23.3308Z" fill="white"/>
</svg>
