<svg width="44" height="20" viewBox="0 0 44 20" fill="none" xmlns="http://www.w3.org/2000/svg">
<rect width="44" height="20" rx="10" fill="#D6406A"/>
<path d="M7.11313 6.52V8.14C7.11313 9.79 6.08313 11.53 4.77313 12.19L5.28313 12.85C6.71313 12.09 7.79313 10.14 7.79313 8.14V6.52H7.11313ZM7.26313 6.52V8.14C7.26313 10.08 8.31313 11.93 9.71313 12.68L10.2231 12.02C8.94313 11.38 7.93313 9.73 7.93313 8.14V6.52H7.26313ZM11.0131 5.74V14.78H11.8531V5.74H11.0131ZM11.6531 9.4V10.1H13.3331V9.4H11.6531ZM15.8923 6.21V7.13C15.8923 8.51 15.0123 9.73 13.6523 10.23L14.0923 10.9C15.6023 10.31 16.5823 8.87 16.5823 7.13V6.21H15.8923ZM16.0423 6.21V7.19C16.0423 8.76 17.0323 10.1 18.4823 10.64L18.9223 9.99C17.6223 9.54 16.7223 8.41 16.7223 7.19V6.21H16.0423ZM19.8823 5.74V11.22H20.7123V5.74H19.8823ZM20.4823 8.07V8.77H22.0523V8.07H20.4823ZM17.8323 11.47C15.9823 11.47 14.8623 12.08 14.8623 13.12C14.8623 14.16 15.9823 14.76 17.8323 14.76C19.6823 14.76 20.8023 14.16 20.8023 13.12C20.8023 12.08 19.6823 11.47 17.8323 11.47ZM17.8323 12.13C19.1723 12.13 19.9923 12.49 19.9923 13.12C19.9923 13.75 19.1723 14.11 17.8323 14.11C16.4923 14.11 15.6723 13.75 15.6723 13.12C15.6723 12.49 16.4923 12.13 17.8323 12.13ZM28.6216 5.74V14.78H29.4516V5.74H28.6216ZM29.2516 9.45V10.15H30.9316V9.45H29.2516ZM22.4516 7.18V7.86H27.7816V7.18H22.4516ZM25.1516 8.61C23.8816 8.61 22.9516 9.47 22.9516 10.69C22.9516 11.91 23.8816 12.77 25.1516 12.77C26.4316 12.77 27.3516 11.91 27.3516 10.69C27.3516 9.47 26.4316 8.61 25.1516 8.61ZM25.1516 9.3C25.9716 9.3 26.5616 9.87 26.5616 10.69C26.5616 11.5 25.9716 12.08 25.1516 12.08C24.3316 12.08 23.7416 11.5 23.7416 10.69C23.7416 9.87 24.3316 9.3 25.1516 9.3ZM24.7216 5.85V7.49H25.5516V5.85H24.7216ZM37.4808 5.73V12.28H38.3108V5.73H37.4808ZM38.0608 8.42V9.11H39.6508V8.42H38.0608ZM31.7108 10V10.69H32.4108C34.3108 10.69 35.3808 10.63 36.6208 10.37L36.5308 9.7C35.3208 9.95 34.2708 10 32.4108 10H31.7108ZM31.7108 6.51V10.37H32.5308V7.2H35.7008V6.51H31.7108ZM32.6808 13.9V14.58H38.7208V13.9H32.6808ZM32.6808 11.63V14.21H33.5108V11.63H32.6808Z" fill="white"/>
</svg>
