<svg width="26" height="20" viewBox="0 0 26 20" fill="none" xmlns="http://www.w3.org/2000/svg">
<rect width="26" height="20" rx="10" fill="#84BD00"/>
<path d="M9.01156 8.8V9.48H11.5316V8.8H9.01156ZM6.83156 6.52V8.13C6.83156 9.81 5.81156 11.55 4.48156 12.21L5.01156 12.87C6.44156 12.1 7.51156 10.16 7.51156 8.13V6.52H6.83156ZM6.99156 6.52V8.13C6.99156 10.11 8.04156 11.97 9.50156 12.71L9.99156 12.04C8.68156 11.42 7.66156 9.78 7.66156 8.13V6.52H6.99156ZM11.1216 5.73V14.79H11.9416V5.73H11.1216ZM13.2808 7.28V7.96H17.7608V7.28H13.2808ZM15.5208 8.56C14.4008 8.56 13.5808 9.41 13.5808 10.63C13.5808 11.84 14.4008 12.69 15.5208 12.69C16.6508 12.69 17.4708 11.84 17.4708 10.63C17.4708 9.41 16.6508 8.56 15.5208 8.56ZM15.5208 9.27C16.2208 9.27 16.7308 9.83 16.7308 10.63C16.7308 11.43 16.2208 11.99 15.5208 11.99C14.8308 11.99 14.3308 11.43 14.3308 10.63C14.3308 9.83 14.8308 9.27 15.5208 9.27ZM20.1508 5.74V14.78H20.9508V5.74H20.1508ZM18.7108 9.54V10.23H20.4208V9.54H18.7108ZM18.2208 5.94V14.34H19.0008V5.94H18.2208ZM15.1208 6V7.7H15.9408V6H15.1208Z" fill="white"/>
</svg>
