<svg width="35" height="20" viewBox="0 0 35 20" fill="none" xmlns="http://www.w3.org/2000/svg">
<rect width="35" height="20" rx="10" fill="#BA0C2F"/>
<path d="M11.2723 5.75V12.37H12.1123V5.75H11.2723ZM6.30234 13.9V14.58H12.3823V13.9H6.30234ZM6.30234 11.76V14.22H7.12234V11.76H6.30234ZM7.05234 6.24V7.16C7.05234 8.56 6.15234 9.88 4.79234 10.41L5.22234 11.08C6.74234 10.46 7.74234 8.92 7.74234 7.16V6.24H7.05234ZM7.20234 6.24V7.16C7.20234 8.88 8.20234 10.33 9.70234 10.91L10.1423 10.24C8.79234 9.75 7.88234 8.52 7.88234 7.16V6.24H7.20234ZM13.4916 10.51V11.19H21.6816V10.51H13.4916ZM17.2316 10.85V12.93H18.0616V10.85H17.2316ZM14.5316 13.9V14.58H20.7716V13.9H14.5316ZM14.5316 12.13V14.16H15.3516V12.13H14.5316ZM14.5816 6.02V9.64H20.6016V6.02H19.7716V7.17H15.4016V6.02H14.5816ZM15.4016 7.82H19.7716V8.97H15.4016V7.82ZM28.4908 5.74V11.11H29.3208V5.74H28.4908ZM29.0808 8.09V8.78H30.6508V8.09H29.0808ZM26.4308 11.3C24.6008 11.3 23.4608 11.95 23.4608 13.04C23.4608 14.13 24.6008 14.77 26.4308 14.77C28.2608 14.77 29.4008 14.13 29.4008 13.04C29.4008 11.95 28.2608 11.3 26.4308 11.3ZM26.4308 11.98C27.7708 11.98 28.5908 12.36 28.5908 13.04C28.5908 13.7 27.7708 14.09 26.4308 14.09C25.0908 14.09 24.2708 13.7 24.2708 13.04C24.2708 12.36 25.0908 11.98 26.4308 11.98ZM22.7008 9.72V10.4H23.4008C25.3108 10.4 26.3808 10.34 27.6308 10.09L27.5308 9.41C26.3208 9.66 25.2708 9.72 23.4008 9.72H22.7008ZM22.7008 6.43V10.16H23.5208V7.11H26.6908V6.43H22.7008Z" fill="white"/>
</svg>
