<svg width="35" height="20" viewBox="0 0 35 20" fill="none" xmlns="http://www.w3.org/2000/svg">
<rect width="35" height="20" rx="10" fill="#F04938"/>
<path d="M11.2723 5.75V12.37H12.1123V5.75H11.2723ZM6.30234 13.9V14.58H12.3823V13.9H6.30234ZM6.30234 11.76V14.22H7.12234V11.76H6.30234ZM7.05234 6.24V7.16C7.05234 8.56 6.15234 9.88 4.79234 10.41L5.22234 11.08C6.74234 10.46 7.74234 8.92 7.74234 7.16V6.24H7.05234ZM7.20234 6.24V7.16C7.20234 8.88 8.20234 10.33 9.70234 10.91L10.1423 10.24C8.79234 9.75 7.88234 8.52 7.88234 7.16V6.24H7.20234ZM19.6816 5.73V12.39H20.5116V5.73H19.6816ZM20.2516 8.48V9.17H21.8516V8.48H20.2516ZM14.8816 13.9V14.58H20.9216V13.9H14.8816ZM14.8816 11.71V14.17H15.7116V11.71H14.8816ZM16.0216 6.37C14.6716 6.37 13.6616 7.3 13.6616 8.6C13.6616 9.91 14.6716 10.83 16.0216 10.83C17.3716 10.83 18.3816 9.91 18.3816 8.6C18.3816 7.3 17.3716 6.37 16.0216 6.37ZM16.0216 7.1C16.9016 7.1 17.5716 7.72 17.5716 8.6C17.5716 9.49 16.9016 10.1 16.0216 10.1C15.1416 10.1 14.4716 9.49 14.4716 8.6C14.4716 7.72 15.1416 7.1 16.0216 7.1ZM24.5208 6.29V7.4C24.5208 8.8 23.6408 10.02 22.2608 10.51L22.7008 11.17C24.2208 10.58 25.2008 9.17 25.2008 7.4V6.29H24.5208ZM24.6608 6.29V7.43C24.6608 9.02 25.6608 10.4 27.1508 10.94L27.5608 10.29C26.2408 9.82 25.3408 8.66 25.3408 7.43V6.29H24.6608ZM28.4808 5.73V12.41H29.3108V5.73H28.4808ZM29.0508 8.51V9.2H30.6508V8.51H29.0508ZM23.7008 13.9V14.58H29.7108V13.9H23.7008ZM23.7008 11.78V14.23H24.5308V11.78H23.7008Z" fill="white"/>
</svg>
