<svg width="26" height="20" viewBox="0 0 26 20" fill="none" xmlns="http://www.w3.org/2000/svg">
<rect width="26" height="20" rx="10" fill="#558BCF"/>
<path d="M11.0716 5.75V12.37H11.9116V5.75H11.0716ZM6.10156 13.9V14.58H12.1816V13.9H6.10156ZM6.10156 11.76V14.22H6.92156V11.76H6.10156ZM6.85156 6.24V7.16C6.85156 8.56 5.95156 9.88 4.59156 10.41L5.02156 11.08C6.54156 10.46 7.54156 8.92 7.54156 7.16V6.24H6.85156ZM7.00156 6.24V7.16C7.00156 8.88 8.00156 10.33 9.50156 10.91L9.94156 10.24C8.59156 9.75 7.68156 8.52 7.68156 7.16V6.24H7.00156ZM19.8708 5.74V11.1H20.7108V5.74H19.8708ZM13.7608 9.99V10.68H14.4908C16.1708 10.68 17.3908 10.63 18.8808 10.38L18.7908 9.71C17.3408 9.94 16.1308 9.99 14.4908 9.99H13.7608ZM13.7408 6.28V6.96H17.0308V8.11H13.7608V10.4H14.5708V8.75H17.8408V6.28H13.7408ZM14.8708 11.6V14.66H20.7108V11.6H14.8708ZM19.8908 12.26V13.99H15.6808V12.26H19.8908Z" fill="white"/>
</svg>
