<svg width="20" height="20" viewBox="0 0 20 20" fill="none" xmlns="http://www.w3.org/2000/svg">
<rect width="20" height="20" rx="10" fill="#C75D28"/>
<path d="M10.4631 14.14C11.5931 14.14 12.5631 13.18 12.5631 11.76C12.5631 10.22 11.7631 9.46 10.5231 9.46C9.93313 9.46 9.25313 9.82 8.80313 10.41L8.83313 11.14C9.32313 10.41 9.91313 10.13 10.3831 10.13C11.2631 10.13 11.7031 10.76 11.7031 11.76C11.7031 12.75 11.1631 13.42 10.4631 13.42C9.43313 13.42 8.86313 12.39 8.86313 10.51C8.86313 8.11 9.72313 7.3 10.7531 7.3C11.1931 7.3 11.6431 7.51 11.9231 7.85L12.4331 7.29C12.0331 6.86 11.4731 6.54 10.7131 6.54C9.29313 6.54 8.00313 7.64 8.00313 10.51C8.00313 12.93 9.05313 14.14 10.4631 14.14Z" fill="white"/>
</svg>
