<svg width="44" height="20" viewBox="0 0 44 20" fill="none" xmlns="http://www.w3.org/2000/svg">
<rect width="44" height="20" rx="10" fill="#F2A900"/>
<path d="M8.55313 6.06V6.56C8.55313 7.85 6.96313 8.93 5.31313 9.18L5.64313 9.85C7.52313 9.53 9.28313 8.29 9.28313 6.56V6.06H8.55313ZM8.70313 6.06V6.56C8.70313 8.27 10.4731 9.53 12.3331 9.85L12.6631 9.18C11.0331 8.93 9.42313 7.82 9.42313 6.56V6.06H8.70313ZM8.55313 11.34V14.78H9.37313V11.34H8.55313ZM4.90313 10.83V11.52H13.0731V10.83H4.90313ZM20.2723 5.75V12.35H21.1123V5.75H20.2723ZM15.3023 13.9V14.58H21.3823V13.9H15.3023ZM15.3023 11.67V14.13H16.1223V11.67H15.3023ZM16.2623 6.37C14.9123 6.37 13.9023 7.29 13.9023 8.6C13.9023 9.9 14.9123 10.83 16.2623 10.83C17.6123 10.83 18.6123 9.9 18.6123 8.6C18.6123 7.29 17.6123 6.37 16.2623 6.37ZM16.2623 7.09C17.1423 7.09 17.8123 7.71 17.8123 8.6C17.8123 9.48 17.1423 10.1 16.2623 10.1C15.3823 10.1 14.7123 9.48 14.7123 8.6C14.7123 7.71 15.3823 7.09 16.2623 7.09ZM22.4916 10.51V11.19H30.6816V10.51H22.4916ZM26.2316 10.85V12.93H27.0616V10.85H26.2316ZM23.5316 13.9V14.58H29.7716V13.9H23.5316ZM23.5316 12.13V14.16H24.3516V12.13H23.5316ZM23.5816 6.02V9.64H29.6016V6.02H28.7716V7.17H24.4016V6.02H23.5816ZM24.4016 7.82H28.7716V8.97H24.4016V7.82ZM37.4908 5.74V11.11H38.3208V5.74H37.4908ZM38.0808 8.09V8.78H39.6508V8.09H38.0808ZM35.4308 11.3C33.6008 11.3 32.4608 11.95 32.4608 13.04C32.4608 14.13 33.6008 14.77 35.4308 14.77C37.2608 14.77 38.4008 14.13 38.4008 13.04C38.4008 11.95 37.2608 11.3 35.4308 11.3ZM35.4308 11.98C36.7708 11.98 37.5908 12.36 37.5908 13.04C37.5908 13.7 36.7708 14.09 35.4308 14.09C34.0908 14.09 33.2708 13.7 33.2708 13.04C33.2708 12.36 34.0908 11.98 35.4308 11.98ZM31.7008 9.72V10.4H32.4008C34.3108 10.4 35.3808 10.34 36.6308 10.09L36.5308 9.41C35.3208 9.66 34.2708 9.72 32.4008 9.72H31.7008ZM31.7008 6.43V10.16H32.5208V7.11H35.6908V6.43H31.7008Z" fill="white"/>
</svg>
