<svg width="26" height="20" viewBox="0 0 26 20" fill="none" xmlns="http://www.w3.org/2000/svg">
<rect width="26" height="20" rx="10" fill="#CCCCCC"/>
<path d="M7.45156 6.16C6.11156 6.16 5.15156 6.91 5.15156 8.02C5.15156 9.12 6.11156 9.89 7.45156 9.89C8.80156 9.89 9.76156 9.12 9.76156 8.02C9.76156 6.91 8.80156 6.16 7.45156 6.16ZM7.45156 6.85C8.33156 6.85 8.96156 7.33 8.96156 8.02C8.96156 8.72 8.33156 9.19 7.45156 9.19C6.57156 9.19 5.94156 8.72 5.94156 8.02C5.94156 7.33 6.57156 6.85 7.45156 6.85ZM7.08156 10.89V14.5H7.91156V10.89H7.08156ZM11.0816 5.74V14.79H11.9016V5.74H11.0816ZM4.59156 11.34C6.24156 11.34 8.46156 11.31 10.5016 10.94L10.4416 10.32C8.45156 10.62 6.16156 10.64 4.48156 10.64L4.59156 11.34ZM13.5908 11.9V12.6H14.1708C15.2308 12.6 16.1908 12.56 17.4208 12.35L17.3408 11.67C16.1608 11.87 15.2008 11.9 14.1708 11.9H13.5908ZM13.5708 6.72V7.4H15.8908V9.21H13.5908V12.14H14.4008V9.88H16.6908V6.72H13.5708ZM20.1708 5.74V14.78H20.9708V5.74H20.1708ZM17.2008 8.09V8.78H18.7708V8.09H17.2008ZM18.3708 5.91V14.32H19.1608V5.91H18.3708ZM17.2008 10.34V11.03H18.7708V10.34H17.2008Z" fill="white"/>
</svg>
