<svg width="44" height="20" viewBox="0 0 44 20" fill="none" xmlns="http://www.w3.org/2000/svg">
<rect width="44" height="20" rx="10" fill="#CCCCCC"/>
<path d="M7.85313 6.16C6.51313 6.16 5.55313 6.91 5.55313 8.02C5.55313 9.12 6.51313 9.89 7.85313 9.89C9.20313 9.89 10.1631 9.12 10.1631 8.02C10.1631 6.91 9.20313 6.16 7.85313 6.16ZM7.85313 6.85C8.73313 6.85 9.36313 7.33 9.36313 8.02C9.36313 8.72 8.73313 9.19 7.85313 9.19C6.97313 9.19 6.34313 8.72 6.34313 8.02C6.34313 7.33 6.97313 6.85 7.85313 6.85ZM7.48313 10.89V14.5H8.31313V10.89H7.48313ZM11.4831 5.74V14.79H12.3031V5.74H11.4831ZM4.99313 11.34C6.64313 11.34 8.86313 11.31 10.9031 10.94L10.8431 10.32C8.85313 10.62 6.56313 10.64 4.88313 10.64L4.99313 11.34ZM13.9923 11.9V12.6H14.5723C15.6323 12.6 16.5923 12.56 17.8223 12.35L17.7423 11.67C16.5623 11.87 15.6023 11.9 14.5723 11.9H13.9923ZM13.9723 6.72V7.4H16.2923V9.21H13.9923V12.14H14.8023V9.88H17.0923V6.72H13.9723ZM20.5723 5.74V14.78H21.3723V5.74H20.5723ZM17.6023 8.09V8.78H19.1723V8.09H17.6023ZM18.7723 5.91V14.32H19.5623V5.91H18.7723ZM17.6023 10.34V11.03H19.1723V10.34H17.6023ZM29.0716 5.75V12.37H29.9116V5.75H29.0716ZM24.1016 13.9V14.58H30.1816V13.9H24.1016ZM24.1016 11.76V14.22H24.9216V11.76H24.1016ZM24.8516 6.24V7.16C24.8516 8.56 23.9516 9.88 22.5916 10.41L23.0216 11.08C24.5416 10.46 25.5416 8.92 25.5416 7.16V6.24H24.8516ZM25.0016 6.24V7.16C25.0016 8.88 26.0016 10.33 27.5016 10.91L27.9416 10.24C26.5916 9.75 25.6816 8.52 25.6816 7.16V6.24H25.0016ZM33.5108 6.52V8.14C33.5108 9.79 32.4808 11.53 31.1708 12.19L31.6808 12.85C33.1108 12.09 34.1908 10.14 34.1908 8.14V6.52H33.5108ZM33.6608 6.52V8.14C33.6608 10.08 34.7108 11.93 36.1108 12.68L36.6208 12.02C35.3408 11.38 34.3308 9.73 34.3308 8.14V6.52H33.6608ZM37.4108 5.74V14.78H38.2508V5.74H37.4108ZM38.0508 9.4V10.1H39.7308V9.4H38.0508Z" fill="white"/>
</svg>
