<svg width="26" height="20" viewBox="0 0 26 20" fill="none" xmlns="http://www.w3.org/2000/svg">
<rect width="26" height="20" rx="10" fill="#C7D138"/>
<path d="M4.49156 10.92V11.6H12.6916V10.92H4.49156ZM8.15156 11.34V14.78H8.97156V11.34H8.15156ZM8.57156 6.1C6.69156 6.1 5.41156 6.87 5.41156 8.08C5.41156 9.29 6.69156 10.06 8.57156 10.06C10.4616 10.06 11.7316 9.29 11.7316 8.08C11.7316 6.87 10.4616 6.1 8.57156 6.1ZM8.57156 6.77C9.95156 6.77 10.8816 7.28 10.8816 8.08C10.8816 8.88 9.95156 9.39 8.57156 9.39C7.19156 9.39 6.25156 8.88 6.25156 8.08C6.25156 7.28 7.19156 6.77 8.57156 6.77ZM19.8608 5.73V14.79H20.6908V5.73H19.8608ZM15.9208 6.43C14.5908 6.43 13.6308 7.66 13.6308 9.58C13.6308 11.51 14.5908 12.74 15.9208 12.74C17.2608 12.74 18.2208 11.51 18.2208 9.58C18.2208 7.66 17.2608 6.43 15.9208 6.43ZM15.9208 7.18C16.8108 7.18 17.4208 8.12 17.4208 9.58C17.4208 11.05 16.8108 12.01 15.9208 12.01C15.0408 12.01 14.4208 11.05 14.4208 9.58C14.4208 8.12 15.0408 7.18 15.9208 7.18Z" fill="white"/>
</svg>
