<svg width="26" height="20" viewBox="0 0 26 20" fill="none" xmlns="http://www.w3.org/2000/svg">
<rect width="26" height="20" rx="10" fill="#CCCCCC"/>
<path d="M11.2616 7.09V7.78H12.8316V7.09H11.2616ZM11.2616 9.01V9.7H12.8316V9.01H11.2616ZM7.02156 6.27C5.66156 6.27 4.66156 7.15 4.66156 8.41C4.66156 9.66 5.66156 10.53 7.02156 10.53C8.38156 10.53 9.38156 9.66 9.38156 8.41C9.38156 7.15 8.38156 6.27 7.02156 6.27ZM7.02156 6.97C7.92156 6.97 8.57156 7.56 8.57156 8.41C8.57156 9.26 7.92156 9.84 7.02156 9.84C6.12156 9.84 5.47156 9.26 5.47156 8.41C5.47156 7.56 6.12156 6.97 7.02156 6.97ZM10.6816 5.74V11.09H11.5116V5.74H10.6816ZM8.63156 11.38C6.79156 11.38 5.66156 12.01 5.66156 13.07C5.66156 14.14 6.79156 14.76 8.63156 14.76C10.4716 14.76 11.6016 14.14 11.6016 13.07C11.6016 12.01 10.4716 11.38 8.63156 11.38ZM8.63156 12.05C9.97156 12.05 10.7916 12.42 10.7916 13.07C10.7916 13.72 9.97156 14.1 8.63156 14.1C7.29156 14.1 6.47156 13.72 6.47156 13.07C6.47156 12.42 7.29156 12.05 8.63156 12.05ZM15.5208 6.29V7.4C15.5208 8.8 14.6408 10.02 13.2608 10.51L13.7008 11.17C15.2208 10.58 16.2008 9.17 16.2008 7.4V6.29H15.5208ZM15.6608 6.29V7.43C15.6608 9.02 16.6608 10.4 18.1508 10.94L18.5608 10.29C17.2408 9.82 16.3408 8.66 16.3408 7.43V6.29H15.6608ZM19.4808 5.73V12.41H20.3108V5.73H19.4808ZM20.0508 8.51V9.2H21.6508V8.51H20.0508ZM14.7008 13.9V14.58H20.7108V13.9H14.7008ZM14.7008 11.78V14.23H15.5308V11.78H14.7008Z" fill="white"/>
</svg>
