<svg width="26" height="20" viewBox="0 0 26 20" fill="none" xmlns="http://www.w3.org/2000/svg">
<rect width="26" height="20" rx="10" fill="#51E800"/>
<path d="M6.51156 8.8V10.51H7.33156V8.8H6.51156ZM9.83156 8.8V10.51H10.6516V8.8H9.83156ZM4.49156 10.21V10.88H12.6616V10.21H4.49156ZM8.57156 11.56C6.63156 11.56 5.47156 12.13 5.47156 13.16C5.47156 14.19 6.63156 14.77 8.57156 14.77C10.5116 14.77 11.6716 14.19 11.6716 13.16C11.6716 12.13 10.5116 11.56 8.57156 11.56ZM8.57156 12.2C9.99156 12.2 10.8316 12.55 10.8316 13.16C10.8316 13.78 9.99156 14.12 8.57156 14.12C7.16156 14.12 6.31156 13.78 6.31156 13.16C6.31156 12.55 7.16156 12.2 8.57156 12.2ZM8.58156 5.9C6.61156 5.9 5.40156 6.53 5.40156 7.59C5.40156 8.64 6.61156 9.26 8.58156 9.26C10.5416 9.26 11.7616 8.64 11.7616 7.59C11.7616 6.53 10.5416 5.9 8.58156 5.9ZM8.58156 6.55C10.0216 6.55 10.9116 6.93 10.9116 7.59C10.9116 8.24 10.0216 8.62 8.58156 8.62C7.14156 8.62 6.25156 8.24 6.25156 7.59C6.25156 6.93 7.14156 6.55 8.58156 6.55ZM19.8708 5.75V12.35H20.7108V5.75H19.8708ZM14.9008 13.9V14.58H20.9808V13.9H14.9008ZM14.9008 11.67V14.13H15.7208V11.67H14.9008ZM15.8608 6.37C14.5108 6.37 13.5008 7.29 13.5008 8.6C13.5008 9.9 14.5108 10.83 15.8608 10.83C17.2108 10.83 18.2108 9.9 18.2108 8.6C18.2108 7.29 17.2108 6.37 15.8608 6.37ZM15.8608 7.09C16.7408 7.09 17.4108 7.71 17.4108 8.6C17.4108 9.48 16.7408 10.1 15.8608 10.1C14.9808 10.1 14.3108 9.48 14.3108 8.6C14.3108 7.71 14.9808 7.09 15.8608 7.09Z" fill="white"/>
</svg>
