<svg width="32" height="40" viewBox="0 0 32 40" fill="none" xmlns="http://www.w3.org/2000/svg">
<path fill-rule="evenodd" clip-rule="evenodd" d="M16 0C7.16344 0 0 7.16344 0 16V25V32V38.7732C0 39.636 1.01946 40.0938 1.66436 39.5206L10.125 32H16C24.8366 32 32 24.8366 32 16C32 7.16344 24.8366 0 16 0Z" fill="#FFD970"/>
<path fill-rule="evenodd" clip-rule="evenodd" d="M16 8C11.5817 8 8 11.5824 8 16.0007C8 20.419 11.5817 24.0015 16 24.0015C20.4183 24.0015 24 20.419 24 16.0007C24 11.5824 20.4183 8 16 8ZM12.9823 19.644C13.0455 19.8559 13.2403 20.0011 13.4614 20.0011H14.2014C14.4216 20.0011 14.6159 19.857 14.6798 19.6463L15.5585 16.7507H16.4486L17.3207 19.6453C17.3843 19.8565 17.5788 20.0011 17.7994 20.0011H18.5386C18.7597 20.0011 18.9545 19.8559 19.0177 19.644L19.881 16.7507H21C21.4142 16.7507 21.75 16.4149 21.75 16.0007C21.75 15.5865 21.4142 15.2507 21 15.2507H20.3286L20.8082 13.6434C20.9038 13.3228 20.6637 13.0005 20.329 13.0005H19.7351C19.5058 13.0005 19.306 13.1563 19.2501 13.3787L18.78 15.2507H17.3274L16.8121 13.3684C16.7527 13.1511 16.5552 13.0005 16.3299 13.0005H15.6699C15.4447 13.0005 15.2473 13.151 15.1877 13.3682L14.6713 15.2507H13.2211L12.75 13.3784C12.6941 13.1562 12.4943 13.0005 12.2651 13.0005H11.671C11.3363 13.0005 11.0962 13.3228 11.1918 13.6434L11.6714 15.2507H11C10.5858 15.2507 10.25 15.5865 10.25 16.0007C10.25 16.4149 10.5858 16.7507 11 16.7507H12.119L12.9823 19.644ZM13.5985 16.7507H14.2599L13.9465 17.8932H13.886L13.5985 16.7507ZM18.0535 17.9028L17.7381 16.7507H18.4033L18.114 17.9028H18.0535Z" fill="white"/>
</svg>
