<svg width="32" height="40" viewBox="0 0 32 40" fill="none" xmlns="http://www.w3.org/2000/svg">
<path fill-rule="evenodd" clip-rule="evenodd" d="M16 0C7.16344 0 0 7.16344 0 16V25V32V38.7732C0 39.636 1.01946 40.0938 1.66436 39.5206L10.125 32H16C24.8366 32 32 24.8366 32 16C32 7.16344 24.8366 0 16 0Z" fill="#FF7E47"/>
<path fill-rule="evenodd" clip-rule="evenodd" d="M13.1338 10.5H11.8673L11.2958 14.5006H20.7042L20.1327 10.5H18.8662C18.6933 10.7989 18.3701 11 18 11H14C13.6299 11 13.3067 10.7989 13.1338 10.5ZM18.8662 9.5H20.1327C20.6303 9.5 21.0523 9.86594 21.1226 10.3586L21.7143 14.5006H23.5C23.7761 14.5006 24 14.7245 24 15.0006C24 15.2768 23.7761 15.5006 23.5 15.5006H22.9375L22.1095 22.1254C22.0469 22.6258 21.6215 23.0014 21.1172 23.0014H10.8828C10.3785 23.0014 9.95306 22.6258 9.89051 22.1254L9.06249 15.5006H8.5C8.22386 15.5006 8 15.2768 8 15.0006C8 14.7245 8.22386 14.5006 8.5 14.5006H10.2857L10.8774 10.3586C10.9477 9.86594 11.3697 9.5 11.8673 9.5H13.1338C13.3067 9.2011 13.6299 9 14 9H18C18.3701 9 18.6933 9.2011 18.8662 9.5ZM12.25 21.0012C11.9739 21.0012 11.75 20.7773 11.75 20.5012V17.5008C11.75 17.2247 11.9739 17.0008 12.25 17.0008H12.75C13.0261 17.0008 13.25 17.2247 13.25 17.5008V20.5012C13.25 20.7773 13.0261 21.0012 12.75 21.0012H12.25ZM15.75 21.0012C15.4739 21.0012 15.25 20.7773 15.25 20.5012V17.5008C15.25 17.2247 15.4739 17.0008 15.75 17.0008H16.25C16.5261 17.0008 16.75 17.2247 16.75 17.5008V20.5012C16.75 20.7773 16.5261 21.0012 16.25 21.0012H15.75ZM19.25 17.0008C18.9739 17.0008 18.75 17.2247 18.75 17.5008V20.5012C18.75 20.7773 18.9739 21.0012 19.25 21.0012H19.75C20.0261 21.0012 20.25 20.7773 20.25 20.5012V17.5008C20.25 17.2247 20.0261 17.0008 19.75 17.0008H19.25Z" fill="white"/>
</svg>
