<svg width="32" height="40" viewBox="0 0 32 40" fill="none" xmlns="http://www.w3.org/2000/svg">
<path fill-rule="evenodd" clip-rule="evenodd" d="M16 0C7.16344 0 0 7.16344 0 16V25V32V38.7732C0 39.636 1.01946 40.0938 1.66436 39.5206L10.125 32H16C24.8366 32 32 24.8366 32 16C32 7.16344 24.8366 0 16 0Z" fill="#62DC93"/>
<path fill-rule="evenodd" clip-rule="evenodd" d="M16 8C11.5817 8 8 11.5824 8 16.0007C8 20.419 11.5817 24.0015 16 24.0015C20.4183 24.0015 24 20.419 24 16.0007C24 11.5824 20.4183 8 16 8ZM15 12.5004C15 12.2242 15.2239 12.0004 15.5 12.0004H16.5C16.7761 12.0004 17 12.2242 17 12.5004V15.0006H19.5C19.7761 15.0006 20 15.2245 20 15.5006V16.5006C20 16.7768 19.7761 17.0006 19.5 17.0006H17V19.5011C17 19.7772 16.7761 20.0011 16.5 20.0011H15.5C15.2239 20.0011 15 19.7772 15 19.5011V17.0006H12.5C12.2239 17.0006 12 16.7768 12 16.5006V15.5006C12 15.2245 12.2239 15.0006 12.5 15.0006H15V12.5004Z" fill="white"/>
</svg>
