<svg width="32" height="40" viewBox="0 0 32 40" fill="none" xmlns="http://www.w3.org/2000/svg">
<path fill-rule="evenodd" clip-rule="evenodd" d="M16 0C7.16344 0 0 7.16344 0 16V25V32V38.7732C0 39.636 1.01946 40.0938 1.66436 39.5206L10.125 32H16C24.8366 32 32 24.8366 32 16C32 7.16344 24.8366 0 16 0Z" fill="#748FFC"/>
<path fill-rule="evenodd" clip-rule="evenodd" d="M21.9917 13.5894C21.9917 13.8655 21.7669 14.0894 21.4908 14.0894L16.7959 14.0895L10.508 14.0897C10.2319 14.0897 10.0079 13.8658 10.0079 13.5897V11.7267C10.0079 10.7746 10.7814 10 11.732 10H20.2676C21.2182 10 21.9917 10.7746 21.9917 11.7267V13.5894ZM22.2759 15.029H9.72406C8.77344 15.029 8 15.8033 8 16.7554V17.5458C8 17.822 8.22386 18.0458 8.5 18.0458H23.5C23.7761 18.0458 24 17.822 24 17.5458V16.7554C24 15.8033 23.2266 15.029 22.2759 15.029ZM8 21.5011V21.5318C8 21.7909 8.21 22.0013 8.46875 22.0013C8.47485 22.0013 8.48092 22.0012 8.48697 22.0009L8.5 22.0011H9C9.27614 22.0011 9.5 21.7772 9.5 21.5011V20.9957H22.5V21.5011C22.5 21.7772 22.7239 22.0011 23 22.0011H23.5C23.5044 22.0011 23.5087 22.001 23.513 22.0009C23.5191 22.0012 23.5251 22.0013 23.5312 22.0013C23.79 22.0013 24 21.7909 24 21.5318V21.5011V20.5011V19.4842C24 19.208 23.7761 18.9842 23.5 18.9842H8.5C8.22386 18.9842 8 19.208 8 19.4842V20.5011V20.5262V21.5011Z" fill="white"/>
</svg>
