<svg width="32" height="40" viewBox="0 0 32 40" fill="none" xmlns="http://www.w3.org/2000/svg">
<path fill-rule="evenodd" clip-rule="evenodd" d="M16 0C7.16344 0 0 7.16344 0 16V25V32V38.7732C0 39.636 1.01946 40.0938 1.66436 39.5206L10.125 32H16C24.8366 32 32 24.8366 32 16C32 7.16344 24.8366 0 16 0Z" fill="#FFD970"/>
<path fill-rule="evenodd" clip-rule="evenodd" d="M20.9 12.0005H22C22.5523 12.0005 23 12.4482 23 13.0005V20.0012C23.5523 20.0012 24 20.4489 24 21.0012C24 21.5535 23.5523 22.0012 23 22.0012H22.0193L22 22.0014H10L9.98072 22.0012H9C8.44772 22.0012 8 21.5535 8 21.0012C8 20.4489 8.44772 20.0012 9 20.0012V13.0005C9 12.4482 9.44772 12.0005 10 12.0005H11.1C11.5632 9.71796 13.581 8 16 8C18.419 8 20.4368 9.71796 20.9 12.0005ZM12.25 14.0006V13.7506C12.25 13.4744 12.0261 13.2506 11.75 13.2506H11.25C10.9739 13.2506 10.75 13.4744 10.75 13.7506V14.0006V19.001V19.251C10.75 19.5272 10.9739 19.751 11.25 19.751H11.75C12.0261 19.751 12.25 19.5272 12.25 19.251V19.001V14.0006ZM15.25 14.0006V13.7506C15.25 13.4744 15.0261 13.2506 14.75 13.2506H14.25C13.9739 13.2506 13.75 13.4744 13.75 13.7506V14.0006V19.001V19.251C13.75 19.5272 13.9739 19.751 14.25 19.751H14.75C15.0261 19.751 15.25 19.5272 15.25 19.251V19.001V14.0006ZM17.75 13.2506C18.0261 13.2506 18.25 13.4744 18.25 13.7506V14.0006V19.001V19.251C18.25 19.5272 18.0261 19.751 17.75 19.751H17.25C16.9739 19.751 16.75 19.5272 16.75 19.251V19.001V14.0006V13.7506C16.75 13.4744 16.9739 13.2506 17.25 13.2506H17.75ZM21.25 14.0006V13.7506C21.25 13.4744 21.0261 13.2506 20.75 13.2506H20.25C19.9739 13.2506 19.75 13.4744 19.75 13.7506V14.0006V19.001V19.251C19.75 19.5272 19.9739 19.751 20.25 19.751H20.75C21.0261 19.751 21.25 19.5272 21.25 19.251V19.001V14.0006Z" fill="white"/>
</svg>
