<svg width="32" height="40" viewBox="0 0 32 40" fill="none" xmlns="http://www.w3.org/2000/svg">
<path fill-rule="evenodd" clip-rule="evenodd" d="M16 0C7.16344 0 0 7.16344 0 16V25V32V38.7732C0 39.636 1.01946 40.0938 1.66436 39.5206L10.125 32H16C24.8366 32 32 24.8366 32 16C32 7.16344 24.8366 0 16 0Z" fill="#748FFC"/>
<path fill-rule="evenodd" clip-rule="evenodd" d="M8 16.0007C8 11.5824 11.5817 8 16 8C20.4183 8 24 11.5824 24 16.0007C24 20.419 20.4183 24.0015 16 24.0015C11.5817 24.0015 8 20.419 8 16.0007ZM22 16.0005C22 19.3146 19.3137 22.0011 16 22.0011C12.6863 22.0011 10 19.3146 10 16.0005C10 12.6865 12.6863 10 16 10C19.3137 10 22 12.6865 22 16.0005ZM11.2963 16.418C12.8068 15.8268 14.5413 15.8636 16.025 16.53C17.3546 17.1276 18.8867 17.2192 20.2786 16.8045C20.6254 16.7012 20.9958 16.9478 20.9272 17.3031C20.5219 19.4023 18.4721 20.9999 16.0031 21.0012C13.3629 21.0025 11.1993 19.1784 11.013 16.8652C10.9973 16.6698 11.1138 16.4895 11.2963 16.418Z" fill="white"/>
</svg>
