<svg width="32" height="40" viewBox="0 0 32 40" fill="none" xmlns="http://www.w3.org/2000/svg">
<path fill-rule="evenodd" clip-rule="evenodd" d="M16 0C7.16344 0 0 7.16344 0 16V25V32V38.7732C0 39.636 1.01946 40.0938 1.66436 39.5206L10.125 32H16C24.8366 32 32 24.8366 32 16C32 7.16344 24.8366 0 16 0Z" fill="#FF7E47"/>
<path fill-rule="evenodd" clip-rule="evenodd" d="M8 9.5C8 9.22386 8.22386 9 8.5 9H10.5452C10.7976 9 11.0105 9.18816 11.0414 9.43869L11.2344 11.0003H22.9997C23.6088 11.0003 24.0764 11.5402 23.9895 12.143L23.2683 17.1437C23.1973 17.6357 22.7757 18.0009 22.2785 18.0009H12.0478C11.7748 18.0045 11.5546 18.227 11.5546 18.5009C11.5546 18.777 11.7784 19.0009 12.0546 19.0009H20.2173V19.001C20.2173 19.001 20.2174 19.001 20.2174 19.001C21.3419 19.001 22.2536 19.8965 22.2536 21.0012C22.2536 22.1059 21.3419 23.0014 20.2174 23.0014C19.0929 23.0014 18.1812 22.1059 18.1812 21.0012C18.1812 20.6368 18.2804 20.2951 18.4538 20.0009H14.8544C15.0277 20.2951 15.1269 20.6368 15.1269 21.0012C15.1269 22.1059 14.2153 23.0014 13.0907 23.0014C11.9662 23.0014 11.0546 22.1059 11.0546 21.0012C11.0546 20.5769 11.1891 20.1834 11.4185 19.8597C10.9081 19.6204 10.5546 19.1019 10.5546 18.5009C10.5546 18.0738 10.733 17.6885 11.0194 17.4153L10.1032 10H8.5C8.22386 10 8 9.77614 8 9.5Z" fill="white"/>
</svg>
