<svg width="32" height="40" viewBox="0 0 32 40" fill="none" xmlns="http://www.w3.org/2000/svg">
<path fill-rule="evenodd" clip-rule="evenodd" d="M16 0C7.16344 0 0 7.16344 0 16V25V32V38.7732C0 39.636 1.01946 40.0938 1.66436 39.5206L10.125 32H16C24.8366 32 32 24.8366 32 16C32 7.16344 24.8366 0 16 0Z" fill="#62DC93"/>
<path fill-rule="evenodd" clip-rule="evenodd" d="M12.5296 9.55697C12.8967 8.81459 13.9554 8.81459 14.3225 9.55697L18.7472 18.5062C19.0748 19.1687 18.5953 19.9444 17.8579 19.9493H18.2504V19.9531H17.1653C17.1356 19.9531 17.1063 19.9518 17.0774 19.9494H14.0001V22.4992C14.0001 22.7753 13.7762 22.9992 13.5001 22.9992H13.0001C12.7239 22.9992 12.5001 22.7753 12.5001 22.4992V19.9494H9.00128C8.25984 19.9494 7.77624 19.1708 8.10486 18.5062L12.5296 9.55697ZM19.2501 22.4992V21.001H19.2504V19.8009C19.6651 19.5432 19.8615 18.994 19.6203 18.5061L17.9455 15.1189L19.185 12.612C19.5521 11.8696 20.6108 11.8696 20.9778 12.612L23.8939 18.5099C24.2225 19.1745 23.7389 19.9531 22.9975 19.9531H20.7501V22.4992C20.7501 22.7753 20.5262 22.9992 20.2501 22.9992H19.7501C19.4739 22.9992 19.2501 22.7753 19.2501 22.4992Z" fill="white"/>
</svg>
