<svg width="32" height="40" viewBox="0 0 32 40" fill="none" xmlns="http://www.w3.org/2000/svg">
<path fill-rule="evenodd" clip-rule="evenodd" d="M16 0C7.16344 0 0 7.16344 0 16V25V32V38.7732C0 39.636 1.01946 40.0938 1.66436 39.5206L10.125 32H16C24.8366 32 32 24.8366 32 16C32 7.16344 24.8366 0 16 0Z" fill="#FF6666"/>
<path fill-rule="evenodd" clip-rule="evenodd" d="M13.5229 8.38598C12.4305 8.67438 11.4402 9.26177 10.6634 10.0821C9.44322 11.3707 8.84768 13.1285 9.03337 14.8933L9.65819 20.8318C9.72617 21.4779 10.271 21.9684 10.9207 21.9684H11.1601L10.3089 23.2203C10.0833 23.5523 10.321 24.0015 10.7224 24.0015H11.5872C11.7528 24.0015 11.9076 23.9195 12.0007 23.7826L13.2341 21.9684H18.7651L19.9984 23.7826C20.0915 23.9195 20.2464 24.0015 20.4119 24.0015H21.2767C21.6781 24.0015 21.9159 23.5523 21.6902 23.2203L20.8391 21.9684H21.0789C21.7286 21.9684 22.2734 21.4779 22.3414 20.8318L22.9662 14.8933C23.1519 13.1285 22.5564 11.3707 21.3362 10.0821C20.5593 9.26177 19.5691 8.67438 18.4767 8.38598L17.996 8.25906C16.6876 7.91365 15.312 7.91365 14.0036 8.25906L13.5229 8.38598ZM12.8872 19.9338C13.4599 19.9338 13.9242 19.4785 13.9242 18.9169C13.9242 18.3553 13.4599 17.9 12.8872 17.9C12.3144 17.9 11.8502 18.3553 11.8502 18.9169C11.8502 19.4785 12.3144 19.9338 12.8872 19.9338ZM20.1468 18.9169C20.1468 19.4785 19.6825 19.9338 19.1098 19.9338C18.5371 19.9338 18.0728 19.4785 18.0728 18.9169C18.0728 18.3553 18.5371 17.9 19.1098 17.9C19.6825 17.9 20.1468 18.3553 20.1468 18.9169ZM12.1 11.7985C11.4475 11.7985 10.9698 12.4132 11.131 13.0455L11.7892 15.6274C11.8267 15.7743 11.942 15.8885 12.0892 15.9246C14.6571 16.5541 17.339 16.5541 19.9069 15.9246C20.0541 15.8885 20.1694 15.7743 20.2069 15.6274L20.8651 13.0455C21.0263 12.4132 20.5486 11.7985 19.8961 11.7985H12.1Z" fill="white"/>
</svg>
