<svg width="28" height="34" viewBox="0 0 28 34" fill="none" xmlns="http://www.w3.org/2000/svg">
<path d="M27.25 14.1667C27.25 19.1119 24.6265 23.4331 21.6124 26.7572C18.6065 30.0725 15.2909 32.3079 14.0849 33.0689C14.0268 33.1055 13.9732 33.1055 13.9151 33.0689C12.7091 32.3079 9.39349 30.0725 6.38756 26.7572C3.37351 23.4331 0.75 19.1119 0.75 14.1667C0.75 6.74845 6.69057 0.75 14 0.75C21.3094 0.75 27.25 6.74845 27.25 14.1667Z" fill="#F6C955" stroke="#F6C955" stroke-width="1.5"/>
<path fill-rule="evenodd" clip-rule="evenodd" d="M14 6C9.58172 6 6 9.58172 6 14C6 18.4183 9.58172 22 14 22C18.4183 22 22 18.4183 22 14C22 9.58172 18.4183 6 14 6ZM10.9823 17.643C11.0455 17.8548 11.2403 18 11.4614 18H12.2014C12.4216 18 12.6159 17.8559 12.6798 17.6452L13.5585 14.75H14.4486L15.3207 17.6443C15.3843 17.8555 15.5788 18 15.7994 18H16.5386C16.7597 18 16.9545 17.8548 17.0177 17.643L17.881 14.75H19C19.4142 14.75 19.75 14.4142 19.75 14C19.75 13.5858 19.4142 13.25 19 13.25H18.3286L18.8081 11.643C18.9038 11.3223 18.6636 11 18.329 11H17.7351C17.5058 11 17.306 11.1559 17.2501 11.3782L16.78 13.25H15.3274L14.8121 11.368C14.7527 11.1507 14.5552 11 14.3299 11H13.6699C13.4447 11 13.2473 11.1505 13.1877 11.3677L12.6714 13.25H11.2211L10.75 11.378C10.6941 11.1558 10.4943 11 10.2651 11H9.67099C9.33636 11 9.09618 11.3223 9.19186 11.643L9.6714 13.25H9C8.58579 13.25 8.25 13.5858 8.25 14C8.25 14.4142 8.58579 14.75 9 14.75H10.119L10.9823 17.643ZM11.5985 14.75H12.2599L11.9465 15.8923H11.886L11.5985 14.75ZM16.0535 15.9019L15.7381 14.75H16.4033L16.114 15.9019H16.0535Z" fill="white"/>
</svg>
