<svg width="28" height="34" viewBox="0 0 28 34" fill="none" xmlns="http://www.w3.org/2000/svg">
<path d="M27.25 14.1667C27.25 19.1119 24.6265 23.4331 21.6124 26.7572C18.6065 30.0725 15.2909 32.3079 14.0849 33.0689C14.0268 33.1055 13.9732 33.1055 13.9151 33.0689C12.7091 32.3079 9.39349 30.0725 6.38756 26.7572C3.37351 23.4331 0.75 19.1119 0.75 14.1667C0.75 6.74845 6.69057 0.75 14 0.75C21.3094 0.75 27.25 6.74845 27.25 14.1667Z" fill="#FF4216" stroke="#FF4216" stroke-width="1.5"/>
<path fill-rule="evenodd" clip-rule="evenodd" d="M11.1338 8.5L9.8673 8.5L9.29587 12.5H18.7041L18.1327 8.5L16.8662 8.5C16.6933 8.7989 16.3701 9 16 9H12C11.6299 9 11.3067 8.7989 11.1338 8.5ZM16.8662 7.5H18.1327C18.6304 7.5 19.0523 7.86593 19.1227 8.35858L19.7143 12.5H21.5C21.7761 12.5 22 12.7239 22 13C22 13.2761 21.7761 13.5 21.5 13.5H20.9375L20.1095 20.124C20.0469 20.6245 19.6215 21 19.1172 21H8.88278C8.37846 21 7.95306 20.6245 7.8905 20.124L7.0625 13.5H6.5C6.22386 13.5 6 13.2761 6 13C6 12.7239 6.22386 12.5 6.5 12.5H8.28571L8.87735 8.35858C8.94772 7.86593 9.36965 7.5 9.8673 7.5H11.1338C11.3067 7.2011 11.6299 7 12 7H16C16.3701 7 16.6933 7.2011 16.8662 7.5ZM10.25 19C9.97386 19 9.75 18.7761 9.75 18.5V15.5C9.75 15.2239 9.97386 15 10.25 15H10.75C11.0261 15 11.25 15.2239 11.25 15.5V18.5C11.25 18.7761 11.0261 19 10.75 19H10.25ZM13.75 19C13.4739 19 13.25 18.7761 13.25 18.5V15.5C13.25 15.2239 13.4739 15 13.75 15H14.25C14.5261 15 14.75 15.2239 14.75 15.5V18.5C14.75 18.7761 14.5261 19 14.25 19H13.75ZM17.25 15C16.9739 15 16.75 15.2239 16.75 15.5V18.5C16.75 18.7761 16.9739 19 17.25 19H17.75C18.0261 19 18.25 18.7761 18.25 18.5V15.5C18.25 15.2239 18.0261 15 17.75 15H17.25Z" fill="white"/>
</svg>
