<svg width="28" height="34" viewBox="0 0 28 34" fill="none" xmlns="http://www.w3.org/2000/svg">
<path d="M27.25 14.1667C27.25 19.1119 24.6265 23.4331 21.6124 26.7572C18.6065 30.0725 15.2909 32.3079 14.0849 33.0689C14.0268 33.1055 13.9732 33.1055 13.9151 33.0689C12.7091 32.3079 9.39349 30.0725 6.38756 26.7572C3.37351 23.4331 0.75 19.1119 0.75 14.1667C0.75 6.74845 6.69057 0.75 14 0.75C21.3094 0.75 27.25 6.74845 27.25 14.1667Z" fill="#31BA68" stroke="#31BA68" stroke-width="1.5"/>
<path fill-rule="evenodd" clip-rule="evenodd" d="M14 6C9.58172 6 6 9.58172 6 14C6 18.4183 9.58172 22 14 22C18.4183 22 22 18.4183 22 14C22 9.58172 18.4183 6 14 6ZM13 10.5C13 10.2239 13.2239 10 13.5 10H14.5C14.7761 10 15 10.2239 15 10.5V13H17.5C17.7761 13 18 13.2239 18 13.5V14.5C18 14.7761 17.7761 15 17.5 15H15V17.5C15 17.7761 14.7761 18 14.5 18H13.5C13.2239 18 13 17.7761 13 17.5V15H10.5C10.2239 15 10 14.7761 10 14.5V13.5C10 13.2239 10.2239 13 10.5 13H13V10.5Z" fill="white"/>
</svg>
