<svg width="28" height="34" viewBox="0 0 28 34" fill="none" xmlns="http://www.w3.org/2000/svg">
<path d="M27.25 14.1667C27.25 19.1119 24.6265 23.4331 21.6124 26.7572C18.6065 30.0725 15.2909 32.3079 14.0849 33.0689C14.0268 33.1055 13.9732 33.1055 13.9151 33.0689C12.7091 32.3079 9.39349 30.0725 6.38756 26.7572C3.37351 23.4331 0.75 19.1119 0.75 14.1667C0.75 6.74845 6.69057 0.75 14 0.75C21.3094 0.75 27.25 6.74845 27.25 14.1667Z" fill="#4F70E7" stroke="#4F70E7" stroke-width="1.5"/>
<path fill-rule="evenodd" clip-rule="evenodd" d="M19.9917 11.589C19.9917 11.8652 19.7669 12.089 19.4908 12.089L14.7959 12.0892L8.50805 12.0893C8.2319 12.0893 8.00793 11.8655 8.00793 11.5893V9.72655C8.00793 8.77455 8.78137 8 9.732 8H18.2676C19.2182 8 19.9917 8.77455 19.9917 9.72655V11.589ZM20.2759 13.0284H7.72406C6.77344 13.0284 6 13.8026 6 14.7546V15.5449C6 15.821 6.22386 16.0449 6.5 16.0449H21.5C21.7761 16.0449 22 15.821 22 15.5449V14.7546C22 13.8026 21.2266 13.0284 20.2759 13.0284ZM6 19.5V19.5306C6 19.7897 6.21 20 6.46875 20L6.48413 19.9998L6.5 20H7C7.27614 20 7.5 19.7761 7.5 19.5V18.9945H20.5V19.5C20.5 19.7761 20.7239 20 21 20H21.5C21.5053 20 21.5106 19.9999 21.5159 19.9998C21.521 19.9999 21.5261 20 21.5312 20C21.79 20 22 19.7897 22 19.5306V19.5V18.5V17.4832C22 17.207 21.7761 16.9832 21.5 16.9832H6.5C6.22386 16.9832 6 17.207 6 17.4832V18.5V18.5251V19.5Z" fill="white"/>
</svg>
