<svg width="28" height="34" viewBox="0 0 28 34" fill="none" xmlns="http://www.w3.org/2000/svg">
<path d="M27.25 14.1667C27.25 19.1119 24.6265 23.4331 21.6124 26.7572C18.6065 30.0725 15.2909 32.3079 14.0849 33.0689C14.0268 33.1055 13.9732 33.1055 13.9151 33.0689C12.7091 32.3079 9.39349 30.0725 6.38756 26.7572C3.37351 23.4331 0.75 19.1119 0.75 14.1667C0.75 6.74845 6.69057 0.75 14 0.75C21.3094 0.75 27.25 6.74845 27.25 14.1667Z" fill="#F6C955" stroke="#F6C955" stroke-width="1.5"/>
<path fill-rule="evenodd" clip-rule="evenodd" d="M18.9 11H20C20.5523 11 21 11.4477 21 12V19C21.5523 19 22 19.4477 22 20C22 20.5523 21.5523 21 21 21H20H8H7C6.44772 21 6 20.5523 6 20C6 19.4477 6.44772 19 7 19V12C7 11.4477 7.44772 11 8 11H9.10002C9.56329 8.71776 11.581 7 14 7C16.419 7 18.4367 8.71776 18.9 11ZM10.25 13V12.75C10.25 12.4739 10.0261 12.25 9.75 12.25H9.25C8.97386 12.25 8.75 12.4739 8.75 12.75V13V18V18.25C8.75 18.5261 8.97386 18.75 9.25 18.75H9.75C10.0261 18.75 10.25 18.5261 10.25 18.25V18V13ZM13.25 13V12.75C13.25 12.4739 13.0261 12.25 12.75 12.25H12.25C11.9739 12.25 11.75 12.4739 11.75 12.75V13V18V18.25C11.75 18.5261 11.9739 18.75 12.25 18.75H12.75C13.0261 18.75 13.25 18.5261 13.25 18.25V18V13ZM15.75 12.25C16.0261 12.25 16.25 12.4739 16.25 12.75V13V18V18.25C16.25 18.5261 16.0261 18.75 15.75 18.75H15.25C14.9739 18.75 14.75 18.5261 14.75 18.25V18V13V12.75C14.75 12.4739 14.9739 12.25 15.25 12.25H15.75ZM19.25 13V12.75C19.25 12.4739 19.0261 12.25 18.75 12.25H18.25C17.9739 12.25 17.75 12.4739 17.75 12.75V13V18V18.25C17.75 18.5261 17.9739 18.75 18.25 18.75H18.75C19.0261 18.75 19.25 18.5261 19.25 18.25V18V13Z" fill="white"/>
</svg>
