<svg width="28" height="34" viewBox="0 0 28 34" fill="none" xmlns="http://www.w3.org/2000/svg">
<path d="M27.25 14.1667C27.25 19.1119 24.6265 23.4331 21.6124 26.7572C18.6065 30.0725 15.2909 32.3079 14.0849 33.0689C14.0268 33.1055 13.9732 33.1055 13.9151 33.0689C12.7091 32.3079 9.39349 30.0725 6.38756 26.7572C3.37351 23.4331 0.75 19.1119 0.75 14.1667C0.75 6.74845 6.69057 0.75 14 0.75C21.3094 0.75 27.25 6.74845 27.25 14.1667Z" fill="#4F70E7" stroke="#4F70E7" stroke-width="1.5"/>
<path fill-rule="evenodd" clip-rule="evenodd" d="M14 6C9.58172 6 6 9.58172 6 14C6 18.4183 9.58172 22 14 22C18.4183 22 22 18.4183 22 14C22 9.58172 18.4183 6 14 6ZM14 20C17.3137 20 20 17.3137 20 14C20 10.6863 17.3137 8 14 8C10.6863 8 8 10.6863 8 14C8 17.3137 10.6863 20 14 20Z" fill="white"/>
<path d="M14.025 14.5292C12.5413 13.8629 10.8068 13.8261 9.29632 14.4173C9.11381 14.4887 8.99728 14.6691 9.01302 14.8644C9.19934 17.1774 11.363 19.0013 14.0031 19C16.4721 18.9988 18.5219 17.4012 18.9272 15.3023C18.9958 14.9469 18.6255 14.7004 18.2787 14.8037C16.8867 15.2184 15.3546 15.1268 14.025 14.5292Z" fill="white"/>
</svg>
