<svg width="28" height="34" viewBox="0 0 28 34" fill="none" xmlns="http://www.w3.org/2000/svg">
<path d="M27.25 14.1667C27.25 19.1119 24.6265 23.4331 21.6124 26.7572C18.6065 30.0725 15.2909 32.3079 14.0849 33.0689C14.0268 33.1055 13.9732 33.1055 13.9151 33.0689C12.7091 32.3079 9.39349 30.0725 6.38756 26.7572C3.37351 23.4331 0.75 19.1119 0.75 14.1667C0.75 6.74845 6.69057 0.75 14 0.75C21.3094 0.75 27.25 6.74845 27.25 14.1667Z" fill="#FF4216" stroke="#FF4216" stroke-width="1.5"/>
<path fill-rule="evenodd" clip-rule="evenodd" d="M6 7.5C6 7.22386 6.22386 7 6.5 7H8.54521C8.79764 7 9.01048 7.18816 9.04143 7.43868L9.23436 9H20.9997C21.6088 9 22.0764 9.5399 21.9895 10.1428L21.2683 15.1428C21.1973 15.6348 20.7757 16 20.2785 16H18.2173H10.0546C9.77842 16 9.55457 16.2239 9.55457 16.5C9.55457 16.7761 9.77842 17 10.0546 17H11.0907H18.2173C18.2173 17 18.2174 17 18.2174 17C19.3419 17 20.2536 17.8954 20.2536 19C20.2536 20.1046 19.3419 21 18.2174 21C17.0929 21 16.1812 20.1046 16.1812 19C16.1812 18.6357 16.2804 18.2942 16.4536 18H12.8545C13.0277 18.2942 13.1269 18.6357 13.1269 19C13.1269 20.1046 12.2153 21 11.0907 21C9.96619 21 9.05457 20.1046 9.05457 19C9.05457 18.5758 9.18902 18.1824 9.41836 17.8588C8.908 17.6194 8.55457 17.101 8.55457 16.5C8.55457 16.073 8.733 15.6876 9.01938 15.4145L8.10319 8H6.5C6.22386 8 6 7.77614 6 7.5Z" fill="white"/>
</svg>
