<svg width="28" height="34" viewBox="0 0 28 34" fill="none" xmlns="http://www.w3.org/2000/svg">
<path d="M27.25 14.1667C27.25 19.1119 24.6265 23.4331 21.6124 26.7572C18.6065 30.0725 15.2909 32.3079 14.0849 33.0689C14.0268 33.1055 13.9732 33.1055 13.9151 33.0689C12.7091 32.3079 9.39349 30.0725 6.38756 26.7572C3.37351 23.4331 0.75 19.1119 0.75 14.1667C0.75 6.74845 6.69057 0.75 14 0.75C21.3094 0.75 27.25 6.74845 27.25 14.1667Z" fill="#31BA68" stroke="#31BA68" stroke-width="1.5"/>
<path fill-rule="evenodd" clip-rule="evenodd" d="M10.5296 7.55675C10.8967 6.81442 11.9553 6.81442 12.3224 7.55675L16.7471 16.505C17.0757 17.1696 16.5921 17.9482 15.8507 17.9482H16.2503V17.9519H15.1653C15.136 17.9519 15.107 17.9506 15.0785 17.9482H12V20.4978C12 20.7739 11.7761 20.9978 11.5 20.9978H11C10.7239 20.9978 10.5 20.7739 10.5 20.4978V17.9482H7.00128C6.25983 17.9482 5.77623 17.1696 6.10488 16.505L10.5296 7.55675ZM17.25 20.4978V19H17.2503V17.7997C17.665 17.542 17.8614 16.9928 17.6201 16.505L15.9454 13.1182L17.185 10.6114C17.552 9.8691 18.6107 9.8691 18.9778 10.6114L21.8938 16.5086C22.2224 17.1732 21.7388 17.9519 20.9974 17.9519H18.75V20.4978C18.75 20.7739 18.5261 20.9978 18.25 20.9978H17.75C17.4739 20.9978 17.25 20.7739 17.25 20.4978Z" fill="white"/>
</svg>
