<svg width="28" height="34" viewBox="0 0 28 34" fill="none" xmlns="http://www.w3.org/2000/svg">
<path d="M27.25 14.1667C27.25 19.1119 24.6265 23.4331 21.6124 26.7572C18.6065 30.0725 15.2909 32.3079 14.0849 33.0689C14.0268 33.1055 13.9732 33.1055 13.9151 33.0689C12.7091 32.3079 9.39349 30.0725 6.38756 26.7572C3.37351 23.4331 0.75 19.1119 0.75 14.1667C0.75 6.74845 6.69057 0.75 14 0.75C21.3094 0.75 27.25 6.74845 27.25 14.1667Z" fill="#F83D3D" stroke="#F83D3D" stroke-width="1.5"/>
<path fill-rule="evenodd" clip-rule="evenodd" d="M11.5227 6.386C10.4304 6.67434 9.44024 7.26163 8.66346 8.08186C7.44323 9.37034 6.84767 11.1281 7.03337 12.8929L7.65818 18.8307C7.72615 19.4767 8.2709 19.9671 8.92048 19.9671H9.16007L8.30897 21.2189C8.08327 21.5509 8.32104 22 8.72245 22H9.5872C9.75277 22 9.90759 21.9181 10.0007 21.7812L11.2341 19.9671H16.765L17.9984 21.7812C18.0915 21.9181 18.2463 22 18.4119 22H19.2766C19.6781 22 19.9158 21.5509 19.6901 21.2189L18.839 19.9671H19.0791C19.7286 19.9671 20.2734 19.4767 20.3414 18.8307L20.9662 12.893C21.1519 11.1281 20.5563 9.37034 19.3361 8.08186C18.5593 7.26163 17.5691 6.67434 16.4769 6.386L15.9959 6.25904C14.6876 5.91365 13.312 5.91365 12.0036 6.25904L11.5227 6.386ZM10.8872 17.9329C11.4599 17.9329 11.9242 17.4776 11.9242 16.916C11.9242 16.3544 11.4599 15.8991 10.8872 15.8991C10.3144 15.8991 9.85016 16.3544 9.85016 16.916C9.85016 17.4776 10.3144 17.9329 10.8872 17.9329ZM18.1468 16.916C18.1468 17.4776 17.6825 17.9329 17.1098 17.9329C16.5371 17.9329 16.0728 17.4776 16.0728 16.916C16.0728 16.3544 16.5371 15.8991 17.1098 15.8991C17.6825 15.8991 18.1468 16.3544 18.1468 16.916ZM10.1 9.79812C9.44751 9.79812 8.9698 10.4129 9.13101 11.0452L9.78921 13.6267C9.82666 13.7735 9.942 13.8878 10.0892 13.9239C12.6571 14.5534 15.339 14.5534 17.9069 13.9239C18.0541 13.8878 18.1694 13.7735 18.2069 13.6267L18.8651 11.0452C19.0263 10.4129 18.5486 9.79812 17.8961 9.79812H10.1Z" fill="white"/>
</svg>
